<svg width="75" height="75" version="1.1" viewBox="0 0 75 75" xmlns="http://www.w3.org/2000/svg"><path d="m37.498 0.92834c-20.706 0-37.498 16.787-37.498 37.502 0 16.565 10.742 30.621 25.644 35.579 1.8749 0.34308 2.561-0.8118 2.561-1.8072 0-0.88912-0.03383-3.2472-0.04832-6.3785-10.433 2.2663-12.631-5.0254-12.631-5.0254-1.7058-4.3296-4.1653-5.4845-4.1653-5.4845-3.4067-2.3243 0.2561-2.2808 0.2561-2.2808 3.7643 0.26577 5.7454 3.8657 5.7454 3.8657 3.3439 5.7309 8.7752 4.0735 10.911 3.1167 0.34308-2.4257 1.3095-4.0735 2.3823-5.011-8.3258-0.95194-17.077-4.1653-17.077-18.536 0-4.0928 1.4593-7.4415 3.8609-10.061-0.38657-0.95194-1.6768-4.7645 0.36724-9.9253 0 0 3.1506-1.0099 10.312 3.8464 2.9911-0.83596 6.1948-1.2515 9.3841-1.266 3.1844 0.0145 6.393 0.43006 9.3889 1.2612 7.1613-4.8515 10.302-3.8464 10.302-3.8464 2.044 5.1608 0.75865 8.9733 0.37208 9.9253 2.4016 2.619 3.8561 5.9677 3.8561 10.061 0 14.405-8.7655 17.575-17.12 18.502 1.3482 1.1597 2.5466 3.4453 2.5466 6.9438 0 5.011-0.04832 9.0555-0.04832 10.288 0 1.0051 0.6765 2.1696 2.5804 1.8024 14.888-4.9675 25.62-19.015 25.62-35.574 0-20.706-16.792-37.498-37.502-37.498z"/></svg>
