<svg width="75" height="75" style="stroke:#808080" version="1.1" xmlns="http://www.w3.org/2000/svg"><g transform="matrix(.41477 0 0 .41477 .17045 .17045)" style="stroke-width:2.411"><g style="fill:#fff;stroke-width:4.8219"><circle cx="90" cy="90" r="88" style="stroke-width:4.8219"/><circle cx="90" cy="90" r="66" style="stroke-width:4.8219"/><circle cx="90" cy="90" r="44" style="stroke-width:4.8219"/><circle cx="90" cy="90" r="22" style="stroke-width:4.8219"/><path d="m90 2v176m62-26-124-124m124 0-124 124m150-62h-176" style="stroke-width:4.8219"/></g><g style="opacity:.8;stroke-width:5.8127"><path d="m90 90h18a18 18 0 0 0 0-5z" style="fill:#44c;stroke-width:2.411"/><path d="m90 90 34-43a55 55 0 0 0-15-8z" style="fill:#bc3;stroke-width:2.411"/><path d="m90 90-16-72a74 74 0 0 0-31 15z" style="fill:#d93;stroke-width:2.411"/><path d="m90 90-58-28a65 65 0 0 0-5 39z" style="fill:#db3;stroke-width:2.411"/><path d="m90 90-33 16a37 37 0 0 0 2 5z" style="fill:#3bb;stroke-width:2.411"/><path d="m90 90-10 45a46 46 0 0 0 18 0z" style="fill:#3c9;stroke-width:2.411"/><path d="m90 90 46 58a74 74 0 0 0 12-12z" style="fill:#d73;stroke-width:2.411"/></g></g></svg>
