<svg width="75" height="75" version="1.0" xmlns="http://www.w3.org/2000/svg" xmlns:xlink="http://www.w3.org/1999/xlink"><defs><linearGradient id="linearGradient1475" x1="150.96" x2="112.03" y1="192.35" y2="137.27" gradientTransform="matrix(.56254 0 0 .56797 -3.8084 38.481)" gradientUnits="userSpaceOnUse"><stop style="stop-color:#ffd43b" offset="0"/><stop style="stop-color:#ffe873" offset="1"/></linearGradient><linearGradient id="linearGradient1478" x1="26.649" x2="135.67" y1="20.604" y2="114.4" gradientTransform="matrix(.56254 0 0 .56797 -3.8084 38.481)" gradientUnits="userSpaceOnUse"><stop style="stop-color:#5a9fd4" offset="0"/><stop style="stop-color:#306998" offset="1"/></linearGradient></defs><g transform="translate(-5.5914 -43.786)"><path d="m42.65 43.787c-3.0588 0.01421-5.9799 0.27508-8.5501 0.72989-7.5716 1.3377-8.9463 4.1375-8.9463 9.3008v6.8192h17.893v2.2731h-24.608c-5.2001 0-9.7535 3.1256-11.178 9.0714-1.6428 6.8154-1.7157 11.068 0 18.185 1.2719 5.2971 4.3093 9.0714 9.5094 9.0715h6.1519v-8.1747c0-5.9058 5.1098-11.115 11.178-11.115h17.872c4.9749 0 8.9463-4.0962 8.9463-9.0923v-17.038c0-4.849-4.0907-8.4916-8.9463-9.3008-3.0737-0.51166-6.2629-0.7441-9.3217-0.72989zm-9.6762 5.4846c1.8482 0 3.3575 1.5339 3.3575 3.42-1e-6 1.8794-1.5093 3.3992-3.3575 3.3992-1.8548-1e-6 -3.3575-1.5198-3.3575-3.3992-1e-6 -1.8861 1.5027-3.42 3.3575-3.42z" style="fill:url(#linearGradient1478)"/><path d="m63.149 62.91v7.9453c0 6.1599-5.2224 11.345-11.178 11.345h-17.872c-4.8954 0-8.9463 4.1898-8.9463 9.0923v17.038c0 4.849 4.2166 7.7012 8.9463 9.0923 5.6638 1.6654 11.095 1.9664 17.872 0 4.5045-1.3042 8.9463-3.929 8.9463-9.0923v-6.8192h-17.872v-2.2731h26.818c5.2001 0 7.1379-3.6272 8.9463-9.0715 1.8681-5.6048 1.7886-10.995 0-18.185-1.2851-5.1767-3.7396-9.0714-8.9463-9.0714zm-10.052 43.147c1.8548 0 3.3575 1.5198 3.3575 3.3992-2e-6 1.8861-1.5027 3.42-3.3575 3.42-1.8482 0-3.3575-1.5339-3.3575-3.42 1e-6 -1.8794 1.5093-3.3992 3.3575-3.3992z" style="fill:url(#linearGradient1475)"/></g></svg>
