<svg width="185.43" height="75" version="1.2" viewBox="0 0 185.43 75" xml:space="preserve" xmlns="http://www.w3.org/2000/svg"><g id="logo-black" transform="matrix(.21835 0 0 .21835 -12.562 -15.159)" style="stroke-width:4.5799"><g id="test-tube_1_" style="stroke-width:4.5799"><path id="tube_1_" d="m753.61 412.92c-5.014 0-9.929-0.903-14.642-2.708-19.657-7.522-30.087-28.883-24.671-48.74l-0.201-0.1 1.304-3.41 100.09-259.95c1.504-3.811 0.802-13.038 0.1-18.052-0.201-1.203-0.201-2.307 0.1-3.41l0.1-0.201c0.1-0.201 0.1-0.401 0.201-0.602 1.605-4.212 6.519-6.318 14.542-6.318 9.628 0 22.866 3.009 36.505 8.224 11.433 4.413 21.763 9.929 29.084 15.445 8.625 6.519 12.035 12.336 10.129 17.35-0.1 0.201-0.201 0.401-0.301 0.602l-0.1 0.201c-0.501 1.003-1.203 1.805-2.106 2.507-4.413 3.911-10.932 10.53-12.035 13.539l-101.29 263.36-0.201-0.1c-7.12 13.639-21.06 22.364-36.605 22.364zm-31.29-53.253-0.301 0.702c-6.419 17.25 2.307 36.605 19.456 43.225 3.911 1.504 7.923 2.206 12.035 2.206 13.94 0 26.175-8.324 31.29-21.261l0.401-0.903 99.587-258.95c2.106-5.616 12.035-14.542 14.04-16.347l0.201-0.201c0.201-0.1 0.301-0.201 0.301-0.301l0.1-0.1c0.1-0.702-0.802-3.811-7.823-9.227-6.719-5.115-16.447-10.229-27.279-14.442-12.636-4.914-25.373-7.823-33.998-7.823-5.716 0-7.622 1.203-7.923 1.805v0.1 0.401 0.1c0.201 1.504 2.106 14.843-0.501 21.662z" style="stroke-width:4.5799"/><path id="liquid_1_" d="m850.39 194.99s-13.84 15.946-26.376 21.562-21.863 4.212-33.196 10.831-17.049 15.846-17.049 15.846l-46.033 119.74c-5.014 13.539 2.407 29.284 16.146 34.6 13.74 5.315 29.184-1.705 34.499-15.144zm-46.334 69.099c2.206-1.003 4.814 0 5.716 2.206 1.003 2.206 0 4.814-2.206 5.716-2.206 1.003-4.814 0-5.716-2.206-1.003-2.205 0-4.813 2.206-5.716zm-18.453-19.656c1.504-0.602 3.209 0 3.811 1.504s0 3.209-1.504 3.811-3.209 0-3.811-1.504c-0.602-1.505 0.1-3.209 1.504-3.811zm-20.258 67.695c-2.206 1.003-4.814 0-5.716-2.206-1.003-2.206 0-4.814 2.206-5.716 2.206-1.003 4.814 0 5.716 2.206 1.003 2.206 0 4.713-2.206 5.716zm4.011-15.746c-1.805-4.112 0-8.926 4.112-10.831 4.112-1.805 8.926 0 10.831 4.112 1.805 4.112 0 8.926-4.112 10.831-4.212 1.806-9.026 0-10.831-4.112zm10.43 41.52c1.504-0.602 3.209 0 3.811 1.504s0 3.209-1.504 3.811-3.209 0-3.811-1.504c-0.602-1.404 0-3.109 1.504-3.811z" style="stroke-width:4.5799"/><ellipse id="top_1_" transform="matrix(.359 -.9333 .9333 .359 461.77 863.82)" cx="859.76" cy="95.736" rx="7.322" ry="27.782" style="stroke-width:4.5799"/></g><path id="jekyll-text" d="m250.46 228.18c4.413 3.51 12.436 1.504 17.751-4.413 5.616-6.218 6.519-14.141 2.106-17.651s-12.436-1.504-17.751 4.714c-5.717 6.218-6.619 13.84-2.106 17.35zm-13.038 11.533c-1.203 0-3.209 2.106-1.504 2.908 2.407 0.903 3.51 2.908 3.51 5.917-2.106 12.135-17.149 25.975-23.066 30.688-1.504 1.504 0.602 4.714 2.106 3.51 3.209-2.608 10.029-7.923 15.645-15.043-9.126 20.359-26.877 46.634-33.697 55.761-26.577 36.906-66.993 70.804-94.773 70.804-22.164 0-41.018-15.043-45.13-37.207-0.301-2.407-3.51-2.908-2.908 0.301 5.014 30.388 28.382 42.121 56.663 42.121 30.989 0 67.394-22.465 87.352-45.431 32.393-37.207 53.454-79.93 47.838-104.1-2.308-9.025-8.526-10.53-12.036-10.229zm199.17 80.833c8.525-2.106 15.645-6.82 15.645-14.241 0-0.702-1.504-0.702-1.504 0 0 4.413-5.014 8.023-10.631 8.926-13.238 2.106-39.514-13.539-51.95-29.485 13.238 5.014 40.416-2.307 53.153-11.433 11.834-8.525 16.548-17.952 17.45-25.674 1.504-12.636-12.436-20.058-31.591-12.636-12.436 5.014-27.178 15.946-42.523 36.305 16.247-26.877 48.139-70.503 79.429-98.484 38.11-33.898 60.173-27.379 25.975 8.525-14.141 14.742-40.717 33.898-59.07 42.222-5.616 2.407-2.908 5.616 1.203 3.811 19.456-8.525 45.431-26.276 61.076-41.018 46.334-44.528 7.722-78.125-43.726-30.989-34.8 32.193-57.566 65.79-77.323 109.42-6.82 8.224-11.834 15.043-18.052 20.359-0.702 0.602-1.304 1.304-1.805 1.905-17.049 14.642-43.826 34.299-60.474 34.6-11.834 0.301-16.849-8.525-14.742-20.058 3.209-17.952 21.863-39.213 37.809-46.634 20.66-9.427 32.795 8.825 5.616 23.568-10.33 5.315-22.766 8.224-27.78 8.224-5.917 0-5.315 2.407-0.301 2.608 8.224 0.301 21.562-3.209 30.388-7.421 27.78-13.238 29.485-38.01-0.602-38.912-32.794-1.203-72.008 26.877-71.707 61.979 0.301 15.946 13.038 24.471 30.388 24.471 28.984-0.301 54.858-22.364 76.019-41.72 3.009-2.507 6.017-5.315 8.926-8.224-7.421 18.854-11.232 36.305-9.427 49.242 1.203 9.427 6.519 13.84 10.631 17.35 0.903 0.602 2.608 0 1.504-1.805-6.218-7.421-4.413-29.284 4.112-50.445 7.221 14.236 34.901 32.188 63.884 25.669zm-34.8-61.477c33.898-30.388 47.236-3.209 25.674 13.238-11.232 8.525-33.396 15.043-40.416 10.931l-1.504-0.903c-0.903-1.504-1.805-2.908-2.407-4.413 5.615-6.818 12.134-12.936 18.653-18.853zm188.34-34.399c13.539 1.504 7.923-15.043-5.917-10.931-6.218 1.805-12.135 13.539-16.548 23.869-13.539 20.359-36.305 48.038-52.251 62.48-14.141 12.135-27.178 15.344-11.232-7.421 6.519-9.126 14.742-18.854 19.456-28.582 11.232-24.471-12.737-35.402-31.892-20.66-11.232 8.525-26.276 26.276-38.11 36.004-3.209 2.608-2.407 6.519 0.903 3.811 9.427-7.622 25.975-25.072 40.116-35.402 11.834-9.126 16.548-3.209 9.728 4.413-9.427 10.932-25.975 29.786-30.087 41.921-5.917 17.952 1.203 25.975 12.937 25.975 16.247 0 40.416-25.373 56.663-45.431 5.315-6.82 11.232-14.742 16.247-22.364-14.141 27.379-28.883 55.159-47.236 80.231-25.975 35.402-58.468 61.979-89.157 61.979-22.164 0-41.319-15.043-45.431-37.207-0.301-2.407-3.209-2.908-2.908 0.301 5.014 30.388 28.382 42.121 56.663 42.121 30.989 0 60.775-17.952 81.736-40.116 42.222-44.528 47.236-94.673 60.173-122.65 6.118-12.338 11.734-12.94 16.147-12.338zm171.59-43.024c6.218-10.631 5.917-18.854-8.525-18.854-10.932 0.301-30.688 7.923-39.815 15.043-2.106 2.106-1.203 3.209 1.504 2.106 1.805-0.602 3.811-1.805 5.917-2.608 10.33-5.616 6.218 6.218 3.811 10.631-12.436 21.562-34.199 51.95-45.732 66.993-5.516 7.421-11.734 14.843-17.751 21.061-11.132 10.53-32.995 29.184-49.543 35.402-53.755 20.058 14.743-71.406 20.359-78.727 12.737-15.946 41.018-43.626 49.543-57.466 6.218-10.631 5.917-18.854-8.525-18.854-10.932 0.301-30.688 7.923-39.815 15.043-2.106 2.106-1.203 3.209 1.504 2.106 1.805-0.602 3.811-1.805 5.917-2.608 10.33-5.616 6.218 6.218 3.811 10.631-12.436 21.562-34.199 51.95-45.732 66.993-9.427 12.636-20.96 25.373-29.786 32.393-3.51 2.908-1.504 5.616 2.106 3.209 3.209-2.106 7.923-6.82 13.238-12.436-9.728 19.456-17.751 46.935 7.923 50.145 21.863 3.009 47.938-19.356 64.686-35.903 1.805-1.805 3.911-3.811 6.017-6.017l1.504-1.504c-9.728 19.456-17.651 46.835 8.023 50.044 28.081 3.811 62.881-33.898 76.42-47.738 2.607-2.608 1.805-7.121-2.607-2.608-7.923 8.224-34.8 32.694-54.357 40.116-53.755 20.058 14.742-71.406 20.359-78.727 12.64-16.246 41.022-43.926 49.546-57.866z" style="stroke-width:4.5799"/></g><g id="logo-black-red" transform="translate(-57.532 -337.92)" display="none" style="display:none"><g id="test-tube_2_" display="inline" style="display:inline"><path id="tube_2_" d="m753.61 412.92c-5.014 0-9.929-0.903-14.642-2.708-19.657-7.522-30.087-28.883-24.671-48.74l-0.201-0.1 1.304-3.41 100.09-259.95c1.504-3.811 0.802-13.038 0.1-18.052-0.201-1.203-0.201-2.307 0.1-3.41l0.1-0.201c0.1-0.201 0.1-0.401 0.201-0.602 1.605-4.212 6.519-6.318 14.542-6.318 9.628 0 22.866 3.009 36.505 8.224 11.433 4.413 21.763 9.929 29.084 15.445 8.625 6.519 12.035 12.336 10.129 17.35-0.1 0.201-0.201 0.401-0.301 0.602l-0.1 0.201c-0.501 1.003-1.203 1.805-2.106 2.507-4.413 3.911-10.932 10.53-12.035 13.539l-101.29 263.36-0.201-0.1c-7.12 13.639-21.06 22.364-36.605 22.364zm-31.29-53.253-0.301 0.702c-6.419 17.25 2.307 36.605 19.456 43.225 3.911 1.504 7.923 2.206 12.035 2.206 13.94 0 26.175-8.324 31.29-21.261l0.401-0.903 99.587-258.95c2.106-5.616 12.035-14.542 14.04-16.347l0.201-0.201c0.201-0.1 0.301-0.201 0.301-0.301l0.1-0.1c0.1-0.702-0.802-3.811-7.823-9.227-6.719-5.115-16.447-10.229-27.279-14.442-12.636-4.914-25.373-7.823-33.998-7.823-5.716 0-7.622 1.203-7.923 1.805v0.1 0.401 0.1c0.201 1.504 2.106 14.843-0.501 21.662z"/><path id="liquid_2_" d="m850.39 194.99s-13.84 15.946-26.376 21.562-21.863 4.212-33.196 10.831-17.049 15.846-17.049 15.846l-46.033 119.74c-5.014 13.539 2.407 29.284 16.146 34.6 13.74 5.315 29.184-1.705 34.499-15.144zm-46.334 69.099c2.206-1.003 4.814 0 5.716 2.206 1.003 2.206 0 4.814-2.206 5.716-2.206 1.003-4.814 0-5.716-2.206-1.003-2.205 0-4.813 2.206-5.716zm-18.453-19.656c1.504-0.602 3.209 0 3.811 1.504s0 3.209-1.504 3.811-3.209 0-3.811-1.504c-0.602-1.505 0.1-3.209 1.504-3.811zm-20.258 67.695c-2.206 1.003-4.814 0-5.716-2.206-1.003-2.206 0-4.814 2.206-5.716 2.206-1.003 4.814 0 5.716 2.206 1.003 2.206 0 4.713-2.206 5.716zm4.011-15.746c-1.805-4.112 0-8.926 4.112-10.831 4.112-1.805 8.926 0 10.831 4.112 1.805 4.112 0 8.926-4.112 10.831-4.212 1.806-9.026 0-10.831-4.112zm10.43 41.52c1.504-0.602 3.209 0 3.811 1.504s0 3.209-1.504 3.811-3.209 0-3.811-1.504c-0.602-1.404 0-3.109 1.504-3.811z" style="fill:#c00"/><ellipse id="top_2_" transform="matrix(.359 -.9333 .9333 .359 461.77 863.82)" cx="859.76" cy="95.736" rx="7.322" ry="27.782"/></g><path id="jekyll-text_1_" d="m250.46 228.18c4.413 3.51 12.436 1.504 17.751-4.413 5.616-6.218 6.519-14.141 2.106-17.651s-12.436-1.504-17.751 4.714c-5.717 6.218-6.619 13.84-2.106 17.35zm-13.038 11.533c-1.203 0-3.209 2.106-1.504 2.908 2.407 0.903 3.51 2.908 3.51 5.917-2.106 12.135-17.149 25.975-23.066 30.688-1.504 1.504 0.602 4.714 2.106 3.51 3.209-2.608 10.029-7.923 15.645-15.043-9.126 20.359-26.877 46.634-33.697 55.761-26.577 36.906-66.993 70.804-94.773 70.804-22.164 0-41.018-15.043-45.13-37.207-0.301-2.407-3.51-2.908-2.908 0.301 5.014 30.388 28.382 42.121 56.663 42.121 30.989 0 67.394-22.465 87.352-45.431 32.393-37.207 53.454-79.93 47.838-104.1-2.308-9.025-8.526-10.53-12.036-10.229zm199.17 80.833c8.525-2.106 15.645-6.82 15.645-14.241 0-0.702-1.504-0.702-1.504 0 0 4.413-5.014 8.023-10.631 8.926-13.238 2.106-39.514-13.539-51.95-29.485 13.238 5.014 40.416-2.307 53.153-11.433 11.834-8.525 16.548-17.952 17.45-25.674 1.504-12.636-12.436-20.058-31.591-12.636-12.436 5.014-27.178 15.946-42.523 36.305 16.247-26.877 48.139-70.503 79.429-98.484 38.11-33.898 60.173-27.379 25.975 8.525-14.141 14.742-40.717 33.898-59.07 42.222-5.616 2.407-2.908 5.616 1.203 3.811 19.456-8.525 45.431-26.276 61.076-41.018 46.334-44.528 7.722-78.125-43.726-30.989-34.8 32.193-57.566 65.79-77.323 109.42-6.82 8.224-11.834 15.043-18.052 20.359-0.702 0.602-1.304 1.304-1.805 1.905-17.049 14.642-43.826 34.299-60.474 34.6-11.834 0.301-16.849-8.525-14.742-20.058 3.209-17.952 21.863-39.213 37.809-46.634 20.66-9.427 32.795 8.825 5.616 23.568-10.33 5.315-22.766 8.224-27.78 8.224-5.917 0-5.315 2.407-0.301 2.608 8.224 0.301 21.562-3.209 30.388-7.421 27.78-13.238 29.485-38.01-0.602-38.912-32.794-1.203-72.008 26.877-71.707 61.979 0.301 15.946 13.038 24.471 30.388 24.471 28.984-0.301 54.858-22.364 76.019-41.72 3.009-2.507 6.017-5.315 8.926-8.224-7.421 18.854-11.232 36.305-9.427 49.242 1.203 9.427 6.519 13.84 10.631 17.35 0.903 0.602 2.608 0 1.504-1.805-6.218-7.421-4.413-29.284 4.112-50.445 7.221 14.236 34.901 32.188 63.884 25.669zm-34.8-61.477c33.898-30.388 47.236-3.209 25.674 13.238-11.232 8.525-33.396 15.043-40.416 10.931l-1.504-0.903c-0.903-1.504-1.805-2.908-2.407-4.413 5.615-6.818 12.134-12.936 18.653-18.853zm188.34-34.399c13.539 1.504 7.923-15.043-5.917-10.931-6.218 1.805-12.135 13.539-16.548 23.869-13.539 20.359-36.305 48.038-52.251 62.48-14.141 12.135-27.178 15.344-11.232-7.421 6.519-9.126 14.742-18.854 19.456-28.582 11.232-24.471-12.737-35.402-31.892-20.66-11.232 8.525-26.276 26.276-38.11 36.004-3.209 2.608-2.407 6.519 0.903 3.811 9.427-7.622 25.975-25.072 40.116-35.402 11.834-9.126 16.548-3.209 9.728 4.413-9.427 10.932-25.975 29.786-30.087 41.921-5.917 17.952 1.203 25.975 12.937 25.975 16.247 0 40.416-25.373 56.663-45.431 5.315-6.82 11.232-14.742 16.247-22.364-14.141 27.379-28.883 55.159-47.236 80.231-25.975 35.402-58.468 61.979-89.157 61.979-22.164 0-41.319-15.043-45.431-37.207-0.301-2.407-3.209-2.908-2.908 0.301 5.014 30.388 28.382 42.121 56.663 42.121 30.989 0 60.775-17.952 81.736-40.116 42.222-44.528 47.236-94.673 60.173-122.65 6.118-12.338 11.734-12.94 16.147-12.338zm171.59-43.024c6.218-10.631 5.917-18.854-8.525-18.854-10.932 0.301-30.688 7.923-39.815 15.043-2.106 2.106-1.203 3.209 1.504 2.106 1.805-0.602 3.811-1.805 5.917-2.608 10.33-5.616 6.218 6.218 3.811 10.631-12.436 21.562-34.199 51.95-45.732 66.993-5.516 7.421-11.734 14.843-17.751 21.061-11.132 10.53-32.995 29.184-49.543 35.402-53.755 20.058 14.743-71.406 20.359-78.727 12.737-15.946 41.018-43.626 49.543-57.466 6.218-10.631 5.917-18.854-8.525-18.854-10.932 0.301-30.688 7.923-39.815 15.043-2.106 2.106-1.203 3.209 1.504 2.106 1.805-0.602 3.811-1.805 5.917-2.608 10.33-5.616 6.218 6.218 3.811 10.631-12.436 21.562-34.199 51.95-45.732 66.993-9.427 12.636-20.96 25.373-29.786 32.393-3.51 2.908-1.504 5.616 2.106 3.209 3.209-2.106 7.923-6.82 13.238-12.436-9.728 19.456-17.751 46.935 7.923 50.145 21.863 3.009 47.938-19.356 64.686-35.903 1.805-1.805 3.911-3.811 6.017-6.017l1.504-1.504c-9.728 19.456-17.651 46.835 8.023 50.044 28.081 3.811 62.881-33.898 76.42-47.738 2.607-2.608 1.805-7.121-2.607-2.608-7.923 8.224-34.8 32.694-54.357 40.116-53.755 20.058 14.742-71.406 20.359-78.727 12.64-16.246 41.022-43.926 49.546-57.866z" display="inline" style="display:inline"/></g></svg>
