<svg width="75" height="75" version="1.1" viewBox="0 0 75 75" xmlns="http://www.w3.org/2000/svg"><title>Artboard</title><desc>Created with Sketch.</desc><g transform="matrix(.28708 0 0 .28708 -71.263 -7.2679)" style="fill-rule:evenodd;fill:none"><g id="Artboard" style="stroke-width:3.4833"><g id="Group-Copy-4-+-Group-+-Group-Copy" style="stroke-width:3.4833"><g transform="translate(248,26)" style="stroke-width:3.4833"><path d="m131.26 205.27c-42.59 0-79.677-15.311-98.984-37.933 14.611 40.554 53.411 69.549 98.984 69.549 45.574 0 84.374-28.995 98.985-69.549-19.307 22.622-56.395 37.933-98.985 37.933" style="fill:#e46e2e;stroke-width:3.4833"/><path d="m131.26 58.041c42.59 0 79.678 15.312 98.985 37.933-14.611-40.554-53.411-69.549-98.985-69.549-45.574 0-84.373 28.995-98.984 69.549 19.307-22.621 56.395-37.933 98.984-37.933" style="fill:#e46e2e;stroke-width:3.4833"/><path d="m51.457 259.86c-9.1317 0.391-16.852-6.6945-17.243-15.826-0.39164-9.1316 6.6945-16.851 15.826-17.243 9.1317-0.391 16.852 6.6945 17.243 15.826 0.39164 9.1316-6.6939 16.852-15.826 17.243z" style="fill:#767474;stroke-width:3.4833"/><path d="m38.757 44.365c-5.7072 0.24434-10.533-4.1841-10.777-9.8915-0.24433-5.7081 4.1839-10.533 9.8911-10.777 5.7079-0.245 10.533 4.1841 10.778 9.8915 0.24433 5.7074-4.1839 10.533-9.8918 10.777z" style="fill:#767474;stroke-width:3.4833"/><path d="m202.98 32.11c-8.8631 0.37948-16.356-6.497-16.735-15.36-0.37948-8.8624 6.4977-16.355 15.36-16.735 8.8631-0.37948 16.355 6.497 16.735 15.36 0.38023 8.8624-6.4969 16.355-15.359 16.735z" style="fill:#767474;stroke-width:3.4833"/><g id="Group-Copy" transform="translate(0 100.87)" style="fill:#313940;stroke-width:3.4833"><path d="m10.91 44.749c0 9.5318-0.74498 12.654-2.7326 14.954-1.738 1.8896-4.6358 2.7936-7.9474 3.0406l0.74498 5.6695c3.8908 0 9.1901-1.3149 12.419-4.5193 3.5598-3.6153 4.8016-8.6278 4.8016-16.352v-36.072h-7.2854v33.279" style="stroke-width:3.4833"/><path d="m65.305 40.394c0 4.1077 0.08219 7.7238 0.33102 10.846h-6.4582l-0.41396-6.4912h-0.16513c-1.9047 3.2044-6.1272 7.3945-13.247 7.3945-6.2923 0-13.827-3.4507-13.827-17.419v-23.254h7.2862v22.021c0 7.5591 2.3179 12.655 8.9412 12.655 4.8846 0 8.2792-3.3691 9.604-6.5743 0.41396-1.0679 0.66204-2.3828 0.66204-3.6976v-24.404h7.2862v28.924" style="stroke-width:3.4833"/><path d="m79.049 24.453c0-5.094-0.16513-9.2032-0.33102-12.982h6.5404l0.33102 6.8197h0.16588c2.9807-4.8478 7.6994-7.7238 14.24-7.7238 9.687 0 16.972 8.1346 16.972 20.214 0 14.297-8.7761 21.363-18.214 21.363-5.2985 0-9.935-2.3004-12.336-6.2443h-0.16513v21.61h-7.2032zm7.2032 10.6c0 1.0686 0.16513 2.055 0.33102 2.9582 1.3241 5.0125 5.7125 8.4631 10.928 8.4631 7.6994 0 12.171-6.2443 12.171-15.365 0-7.97-4.2225-14.79-11.922-14.79-4.9675 0-9.604 3.5337-11.012 8.9563-0.24807 0.90401-0.49615 1.9719-0.49615 2.9582z" style="stroke-width:3.4833"/><path d="m129.88 11.47 8.7761 23.501c0.91086 2.6297 1.9039 5.7511 2.5667 8.1346h0.16513c0.74573-2.3835 1.5737-5.4233 2.5667-8.2992l7.9482-23.336h7.6994l-10.928 28.348c-5.2164 13.639-8.7761 20.625-13.744 24.897-3.5598 3.1221-7.1203 4.3547-8.9412 4.6832l-1.8217-6.0796c1.8217-0.57548 4.2226-1.7265 6.3753-3.5337 1.9869-1.5618 4.4706-4.3554 6.1265-8.0523 0.33102-0.73937 0.57909-1.3149 0.57909-1.7257 0-0.4116-0.16513-0.98558-0.4969-1.8896l-14.819-36.648h7.9474" style="stroke-width:3.4833"/><path d="m178.77 0.049103v11.421h10.432v5.5056h-10.432v21.446c0 4.9302 1.4078 7.7245 5.4644 7.7245 1.9039 0 3.3117-0.24696 4.2225-0.49316l0.33102 5.4226c-1.4078 0.57548-3.6427 0.98633-6.4575 0.98633-3.3946 0-6.1272-1.0679-7.866-3.0398-2.069-2.1373-2.8148-5.6703-2.8148-10.354v-21.692h-6.2086v-5.5056h6.2086v-9.5318l7.1203-1.8896" style="stroke-width:3.4833"/><path d="m202.61 32.67c0.16513 9.778 6.4582 13.804 13.744 13.804 5.2156 0 8.3614-0.90326 11.094-2.0542l1.2419 5.1764c-2.5667 1.151-6.9544 2.4658-13.33 2.4658-12.336 0-19.704-8.053-19.704-20.049 0-11.997 7.1195-21.446 18.794-21.446 13.081 0 16.558 11.421 16.558 18.734 0 1.4795-0.16513 2.6297-0.24807 3.3691zm21.36-5.1764c0.0829-4.6016-1.9039-11.751-10.1-11.751-7.3683 0-10.598 6.7382-11.177 11.751z" style="stroke-width:3.4833"/><path d="m241.69 23.877c0-4.6832-0.0829-8.7101-0.33177-12.407h6.3753l0.24883 7.8061h0.33101c1.821-5.341 6.2094-8.7101 11.094-8.7101 0.82792 0 1.4078 0.08232 2.0698 0.24696v6.8197c-0.74498-0.16389-1.4907-0.24621-2.4838-0.24621-5.1334 0-8.7761 3.8615-9.7692 9.2841-0.16589 0.98633-0.33177 2.1373-0.33177 3.3691v21.2h-7.2025v-27.363" style="stroke-width:3.4833"/></g></g></g></g></g></svg>
