<svg width="75" height="75" preserveAspectRatio="xMidYMid" version="1.1" viewBox="0 0 75 75" xmlns="http://www.w3.org/2000/svg"><defs><linearGradient id="gradientFill-1" x1=".74144" x2="590.86" y1="3.6658" y2="593.79" gradientTransform="matrix(1.2219 0 0 .81837 0 9.5723e-6)" gradientUnits="userSpaceOnUse"><stop stop-color="#cbced0" offset="0"/><stop stop-color="#84838b" offset="1"/></linearGradient><linearGradient id="gradientFill-2" x1="301.03" x2="703.07" y1="151.4" y2="553.44" gradientTransform="matrix(.98995 0 0 1.0102 0 9.5723e-6)" gradientUnits="userSpaceOnUse"><stop stop-color="#276dc3" offset="0"/><stop stop-color="#165caa" offset="1"/></linearGradient></defs><path d="m37.879 58.52c-20.711 0-37.5-11.244-37.5-25.114 0-13.87 16.789-25.116 37.5-25.116 20.711 0 37.5 11.244 37.5 25.116 0 13.87-16.789 25.114-37.5 25.114zm5.7399-40.411c-15.742 0-28.503 7.687-28.503 17.169 0 9.4824 12.761 17.169 28.503 17.169 15.742 0 27.36-5.2554 27.36-17.169 0-11.91-11.617-17.169-27.36-17.169z" style="fill-rule:evenodd;fill:url(#gradientFill-1)"/><path d="m57.488 47.19s2.2696 0.6849 3.5883 1.3521c0.45753 0.23153 1.2491 0.69354 1.8201 1.3001 0.55936 0.5941 0.83207 1.1961 0.83207 1.1961l8.9447 15.081-14.457 0.0062-6.7605-12.695s-1.3844-2.3785-2.2361-3.0683c-0.71058-0.5753-1.0136-0.78009-1.7161-0.78009h-3.435l0.0027 16.535-12.793 0.0054v-42.237h25.69s11.701 0.21104 11.701 11.343c0 11.132-11.181 11.961-11.181 11.961zm-5.5645-14.143-7.7448-0.0048-0.0038 7.1817 7.7487-0.0027s3.5883-0.01118 3.5883-3.6532c0-3.7153-3.5883-3.521-3.5883-3.521z" style="fill-rule:evenodd;fill:url(#gradientFill-2)"/></svg>
