<svg width="75" height="75" version="1.1" viewBox="0 0 75 75" xml:space="preserve" xmlns="http://www.w3.org/2000/svg"><g transform="matrix(1.3333 0 0 -1.3333 -79.933 229.01)"><g transform="matrix(.93318 0 0 .93318 4.0058 8.1023)" style="stroke-width:1.0716"><g transform="translate(100.03 146.96)" style="stroke-width:1.0716"><path d="m0 0h-8.287v9.009h-3.258v-9.009h-8.288v-3.201h8.288v-9.007h3.258v9.007h8.287z" style="fill:#e8762c"/></g><g transform="translate(83.372 132.25)" style="stroke-width:1.0716"><path d="m0 0h-7.426v8.065h-2.81v-8.065h-7.424v-2.459h7.424v-8.067h2.81v8.067h7.426z" style="fill:#c71f36"/></g><g transform="translate(114.52 161.1)" style="stroke-width:1.0716"><path d="m0 0h-7.424v8.104h-2.813v-8.104h-7.424v-2.457h7.424v-8.029h2.813v8.029h7.424z" style="fill:#5b879b"/></g><g transform="translate(96.403 123.3)" style="stroke-width:1.0716"><path d="m0 0h-5.038v5.625h-2.4v-5.625h-5.037v-2.172h5.037v-5.626h2.4v5.626h5.038z" style="fill:#5c6692"/></g><g transform="translate(83.372 161.11)" style="stroke-width:1.0716"><path d="m0 0h-7.513v8.103h-2.634v-8.103h-7.513v-2.386h7.513v-8.101h2.634v8.101h7.513z" style="fill:#eb9128"/></g><g transform="translate(120.23 146.45)" style="stroke-width:1.0716"><path d="m0 0h-5.037v5.624h-2.401v-5.624h-5.037v-2.172h5.037v-5.625h2.401v5.625h5.037z" style="fill:#5c6692"/></g><g transform="translate(114.52 132.25)" style="stroke-width:1.0716"><path d="m0 0h-7.424v8.065h-2.813v-8.065h-7.424v-2.459h7.424v-8.067h2.813v8.067h7.424z" style="fill-rule:evenodd;fill:#1e457e"/></g><g transform="translate(89.268 174.96)" style="stroke-width:1.0716"><path d="m0 0v-5.519h-4.983v-1.67h4.983v-5.519h1.792v5.519h4.985v1.67h-4.985v5.519z" style="fill:#7199a6"/></g><g transform="translate(71.711 146.23)" style="stroke-width:1.0716"><path d="m0 0h-5.002v5.411h-1.758v-5.411h-5.002v-1.741l5.002 0.032v-5.443h1.758v5.453l5.002 0.03z" style="fill:#7199a6"/></g></g></g></svg>
