<svg width="75" height="75" preserveAspectRatio="xMidYMid" version="1.1" viewBox="0 0 75 75" xmlns="http://www.w3.org/2000/svg"><g transform="matrix(.29297 0 0 .29297 0 16.992)" style="stroke-width:3.4133"><path d="m151.7 35.456c-9.1947 9.234-14.256 21.502-14.256 34.547 0 13.061 5.061 25.329 14.256 34.555 9.1947 9.2262 21.423 14.303 34.421 14.303 13.014 0 25.242-5.0768 34.437-14.303 9.1947-9.2262 14.264-21.502 14.264-34.555 0-13.046-5.061-25.305-14.256-34.547-9.2026-9.2262-21.431-14.303-34.445-14.303-12.998 0-25.227 5.0768-34.421 14.303z" style="fill:#029aff;stroke-width:11.651"/><path d="m69.761 0c-38.469 0-69.761 31.402-69.761 70.004 0 38.587 31.291 69.996 69.761 69.996h116.47c18.639 0 36.162-7.268 49.335-20.492 13.18-13.217 20.434-30.799 20.434-49.504 0-18.698-7.2535-36.265-20.434-49.489-13.18-13.217-30.688-20.515-49.335-20.515zm83.438 103.14c-8.8219-8.8438-13.678-20.613-13.678-33.143 0-12.515 4.8558-24.277 13.678-33.143 8.8219-8.8513 20.554-13.722 33.025-13.722 12.486 0 24.226 4.8705 33.048 13.722 8.8219 8.8589 13.678 20.628 13.678 33.143s-4.8633 24.3-13.685 33.151c-8.8219 8.8513-20.569 13.722-33.048 13.722-12.471 0-24.204-4.8705-33.025-13.722zm-130.16-33.128c0-25.845 20.961-46.88 46.718-46.88h64.792c-23.962 26.561-23.962 67.176 0 93.745h-64.792c-25.757 0-46.718-21.035-46.718-46.873z" style="fill:#303030;stroke-width:11.651"/></g></svg>
