<svg width="75" height="75" version="1.1" viewBox="0 0 75 75" xmlns="http://www.w3.org/2000/svg"><defs><style>.cls-1{fill:#b3dcff;}.cls-2{fill:#5ecc62;}.cls-3{fill:#00ad45;}</style></defs><title>basecamp-full-stacked</title><g transform="translate(-34.05 -62.22)" data-name="Layer 2"><g transform="matrix(.45537 0 0 .45537 18.545 68.477)" style="stroke-width:2.196" data-name="Layer 1"><path class="cls-1" d="m116.41 0c-44.34 0-79.07 56.4-82.36 104 13.91 24.15 47.46 33.22 82.35 33.22s68.44-9.08 82.35-33.22c-3.28-47.6-38.01-104-82.34-104z" style="fill:#b3dcff;stroke-width:4.8224"/><path class="cls-2" d="m167.73 59.22c-9.73-12.55-22.14-25.83-29.33-25.83s-27.3 35.61-36.53 35.61-14-16.2-25.36-16.14c-15.45 0.09-30.6 45.52-30.6 45.52s6.26 27.77 71.79 27.77 70.76-27.31 70.76-27.31-6.74-21.58-20.73-39.62z" style="fill:#5ecc62;stroke-width:4.8224"/><path d="m81.29 94.49a8.3 8.3 0 1 1 8.3 8.3 8.3 8.3 0 0 1-8.3-8.3m53.63 0a8.3 8.3 0 1 0 8.3-8.3 8.3 8.3 0 0 0-8.3 8.3m-1.49 12.05a2.5563 2.5563 0 0 0-4.53-2.37c-0.14 0.26-3.47 6.25-12.29 6.25a15.24 15.24 0 0 1-12.78-6.4 2.5537 2.5537 0 0 0-4.36 2.66 20.35 20.35 0 0 0 17.14 8.84c12.02 0.02 16.63-8.61 16.82-8.97z" style="stroke-width:2.196"/><path class="cls-3" d="m102.9 84.19c-10.18 0-15.39-10-18.22-16.24-2.55-5.58-3-14.4-10.2-14.64a5.61 5.61 0 0 1 2-0.45c11.37 0 16.17 16.14 25.39 16.14s29.33-35.6 36.53-35.6a10.25 10.25 0 0 1 4.54 1.33 4.61 4.61 0 0 0-4 1.17c-2.34 2.31-23.44 48.29-36.04 48.29z" style="fill:#00ad45;stroke-width:4.8224"/></g></g></svg>
