<svg width="75" height="56.248" version="1.1" viewBox="0 0 75 56.248" xmlns="http://www.w3.org/2000/svg"><path d="m62.497 43.061c0.0063-5.6248 0.0094-8.7871 0-12.584-0.0031-1.3031 0.88746-1.9937 1.7718-1.9937 0.76872 0 1.5312 0.52498 1.6812 1.6249 0.59372 4.4123 1.2843 8.7996 1.7093 9.8308 0.13124 0.30936 0.35311 0.44061 0.5781 0.44061 0.38436 0 0.76247-0.38436 0.64372-0.88746-0.79684-3.3405-1.5406-7.8715-1.8968-10.418 5.9498 5.7935 7.2309 6.2654 6.8497 11.087-0.27811 3.528-1.6249 7.8372 1.1656 13.296l-8.009 2.7905c-0.19374-0.98121-0.43123-1.9905-0.70622-2.9155-1.6093-5.3779-3.7936-5.4748-3.7873-10.271zm-51.77-14.578c-0.76872 0-1.5312 0.52498-1.6812 1.6249-0.59373 4.4123-1.2843 8.7996-1.7093 9.8308-0.13124 0.30936-0.35311 0.44061-0.5781 0.44061-0.38436 0-0.76247-0.38436-0.64372-0.88746 0.79684-3.3405 1.5406-7.8715 1.8968-10.418-5.9498 5.7935-7.2309 6.2654-6.8497 11.087 0.28124 3.5249 1.6281 7.834-1.1625 13.293l8.0059 2.7936c0.19374-0.98121 0.43123-1.9905 0.70622-2.9155 1.6093-5.3779 3.7936-5.4748 3.7873-10.271-0.0062-5.6248-0.0094-8.7871 0-12.584 0.0031-1.3062-0.89059-1.9937-1.7718-1.9937zm4.8967 2.0062zm43.751 8.2403c-7.3559 0.60622-13.593 1.9374-18.752 3.8905v-30.861l0.17812-0.1125c4.0967-2.5499 10.446-4.2529 18.571-5.0092v23.852c-0.0063-1.4343 0.5156-2.753 1.4656-3.7061 1.1781-1.1812 2.9593-1.7562 4.7842-1.2218v-25.561c-10.743 0.32811-21.237 2.0562-28.124 6.3435-6.8872-4.2873-17.381-6.0154-28.124-6.3435v25.561c1.8218-0.53123 3.603 0.0375 4.7842 1.2218 0.94996 0.95309 1.4718 2.2687 1.4656 3.6998v-23.846c8.1247 0.75622 14.474 2.4624 18.571 5.0123l0.17812 0.10937v30.861c-5.1592-1.9562-11.39-3.2874-18.749-3.8936v4.3279c0 0.73122-0.06562 1.3468-0.14374 1.9437 7.0278 0.6031 13.662 1.9218 18.893 4.3154 1.9937 0.91246 4.2561 0.90934 6.2497 0 5.2342-2.3937 11.868-3.7123 18.893-4.3154-0.07812-0.59685-0.14374-1.2062-0.14374-1.9405zm-37.502-7.5809c3.3999 0.93434 6.631 1.9999 9.3746 3.0249v3.3249c-2.5718-1.0781-5.8716-2.203-9.3746-3.1717zm0-3.1686c3.503 0.96871 6.8028 2.0937 9.3746 3.1717v-3.3249c-2.7436-1.025-5.9748-2.0905-9.3746-3.0249zm0-15.906v3.178c3.503 0.97183 6.8028 2.0937 9.3746 3.1717v-3.3249c-2.7436-1.025-5.9748-2.0905-9.3746-3.0249zm0 9.5559c3.503 0.96871 6.8028 2.0937 9.3746 3.1717v-3.3217c-2.7436-1.025-5.9748-2.0905-9.3746-3.0249zm31.249 12.696c-3.503 0.96871-6.8028 2.0937-9.3746 3.1717v-3.3249c2.7436-1.025 5.9748-2.0905 9.3746-3.0249zm0-9.5246c-3.3999 0.93434-6.631 1.9999-9.3746 3.0249v3.3249c2.5718-1.0781 5.8716-2.203 9.3746-3.1717zm-9.3746-9.7027v3.3249c2.5718-1.0781 5.8716-2.203 9.3746-3.1717v-3.178c-3.3999 0.93434-6.631 1.9999-9.3746 3.0249zm9.3746 3.3561c-3.3999 0.93434-6.631 1.9999-9.3746 3.0249v3.3249c2.5718-1.0781 5.8716-2.203 9.3746-3.1717z"/></svg>
