<?xml version="1.0" encoding="UTF-8" standalone="no"?>
<svg
   xmlns:dc="http://purl.org/dc/elements/1.1/"
   xmlns:cc="http://creativecommons.org/ns#"
   xmlns:rdf="http://www.w3.org/1999/02/22-rdf-syntax-ns#"
   xmlns:svg="http://www.w3.org/2000/svg"
   xmlns="http://www.w3.org/2000/svg"
   xmlns:sodipodi="http://sodipodi.sourceforge.net/DTD/sodipodi-0.dtd"
   xmlns:inkscape="http://www.inkscape.org/namespaces/inkscape"
   viewBox="0 0 16 16"
   version="1.1"
   id="svg4"
   sodipodi:docname="icon-kaggle.svg"
   inkscape:version="0.92.2 (5c3e80d, 2017-08-06)">
  <metadata
     id="metadata10">
    <rdf:RDF>
      <cc:Work
         rdf:about="">
        <dc:format>image/svg+xml</dc:format>
        <dc:type
           rdf:resource="http://purl.org/dc/dcmitype/StillImage" />
        <dc:title></dc:title>
      </cc:Work>
    </rdf:RDF>
  </metadata>
  <defs
     id="defs8" />
  <sodipodi:namedview
     pagecolor="#ffffff"
     bordercolor="#666666"
     borderopacity="1"
     objecttolerance="10"
     gridtolerance="10"
     guidetolerance="10"
     inkscape:pageopacity="0"
     inkscape:pageshadow="2"
     inkscape:window-width="1920"
     inkscape:window-height="1051"
     id="namedview6"
     showgrid="false"
     inkscape:zoom="14.75"
     inkscape:cx="8"
     inkscape:cy="8"
     inkscape:window-x="-9"
     inkscape:window-y="-9"
     inkscape:window-maximized="1"
     inkscape:current-layer="svg4" />
  <path
     d="m 12.550386,15.905662 c -0.01581,0.06272 -0.07853,0.09407 -0.187885,0.09407 H 10.27126 c -0.125696,0 -0.234791,-0.05481 -0.3288653,-0.164695 l -3.4538686,-4.393294 -0.963141,0.916236 v 3.406963 c 0,0.15679 -0.078527,0.235054 -0.2350539,0.235054 H 3.6691975 C 3.5124071,16 3.4341436,15.921736 3.4341436,15.764946 V 0.23479 C 3.4341436,0.078527 3.5124071,0 3.6691975,0 H 5.2903312 C 5.4468581,0 5.5253851,0.07853 5.5253851,0.23479 V 9.797161 L 9.6604357,5.615205 c 0.109621,-0.109358 0.219243,-0.164433 0.328865,-0.164433 h 2.1618633 c 0.09381,0 0.156263,0.03926 0.187885,0.117264 0.03136,0.09407 0.02345,0.164432 -0.02345,0.211601 l -4.3703687,4.228598 4.5579897,5.662373 c 0.06245,0.06272 0.07826,0.14098 0.04717,0.235054"
     id="path2"
     fill="#828282" />
</svg>
