<svg width="59.615" height="75" enable-background="new 0 0 100 100" version="1.1" viewBox="0 0 59.615 75" xml:space="preserve" xmlns="http://www.w3.org/2000/svg"><path d="m14.073 17.133c-0.43706-1.5734 0-1.8357 0.43706-1.7483-0.26224-0.78671-0.26224-1.6608-0.08741-2.3601 0.17482-0.87412 0.6993-1.5734 1.2238-2.1853 0.34965-0.34965 0.6993-0.6993 1.1364-0.96154 0.34965-0.26224 0.6993-0.43706 1.1364-0.52448 0.34965-0.08741 0.61189-0.17482 0.96154-0.17482 1.049-0.08741 1.9231 0.17482 2.535 0.52448 0.87413 0.52448 1.2238 1.1364 1.2238 1.1364s2.2727 0.17482 1.2238 4.8077c0.26224 0.08741 0.52448 0.52448 0.17482 1.7483-0.43706 1.486-0.78671 1.5734-1.049 1.3986-0.26224 1.6608-1.1364 3.7587-4.021 3.8462-2.8846-0.26224-3.7587-2.3601-4.021-4.021-0.26224 0-0.52448-0.34965-0.87412-1.486zm4.9825 14.248h9.6154c-0.08741-4.021 0.08741-6.1189-2.535-7.0804-2.3601-0.87413-3.7587-1.8357-3.7587-1.8357l-1.8357 5.7692-0.26224 0.78671-0.78671-2.2727c1.8357-2.6224-0.17482-2.7098-0.52448-2.7098-0.34965 0-2.3601 0.08741-0.52448 2.7098l-0.78671 2.2727-0.26224-0.78671-1.8357-5.7692s-1.3986 0.96154-3.7587 1.8357c-2.6224 0.96154-2.4476 3.0594-2.535 7.0804zm40.559-11.976v46.329c0 5.1573-4.1084 9.2657-9.2657 9.2657h-41.084c-5.1573 0-9.2657-4.1084-9.2657-9.2657v-56.469c0-5.1573 4.1084-9.2657 9.2657-9.2657h30.332c0.52448 0 1.049 0.08741 1.5734 0.26224 0.52448 0.17482 0.96154 0.52448 1.3112 0.87413l15.822 15.21c0.43706 0.34965 0.6993 0.87413 0.96154 1.3986 0.26224 0.52448 0.34965 1.1364 0.34965 1.6608zm-4.3706 1.3112h-7.7797c-5.0699 0-9.2657-4.1958-9.2657-9.2657v-7.0804h-28.934c-2.7098 0-4.8951 2.1853-4.8951 4.8951v56.469c0 2.7098 2.1853 4.8951 4.8951 4.8951h41.084c2.7098 0 4.8951-2.1853 4.8951-4.8951zm-45.804 16.783c0 1.2238 0.96154 2.1853 2.1853 2.1853h36.801c1.2238 0 2.1853-0.96154 2.1853-2.1853s-0.96154-2.1853-2.1853-2.1853h-36.801c-1.2238 0-2.1853 0.96154-2.1853 2.1853zm38.986 6.5559h-36.801c-1.2238 0-2.1853 0.96154-2.1853 2.1853 0 1.2238 0.96154 2.1853 2.1853 2.1853h36.801c1.2238 0 2.1853-0.96154 2.1853-2.1853 0-1.2238-1.049-2.1853-2.1853-2.1853zm0 8.7413h-36.801c-1.2238 0-2.1853 0.96154-2.1853 2.1853s0.96154 2.1853 2.1853 2.1853h36.801c1.2238 0 2.1853-0.96154 2.1853-2.1853s-1.049-2.1853-2.1853-2.1853zm-16.521 8.7413h-20.542c-1.2238 0-2.1853 0.96154-2.1853 2.1853s0.96154 2.1853 2.1853 2.1853h20.542c1.2238 0 2.1853-0.96154 2.1853-2.1853s-0.96154-2.1853-2.1853-2.1853z"/></svg>
