<svg width="200" height="75" version="1.1" xml:space="preserve" xmlns="http://www.w3.org/2000/svg"><defs><clipPath id="clipPath2846"><path d="M 0,652 H 1700.8 V 0 H 0 Z"/></clipPath></defs><g transform="matrix(1.1424 0 0 -1.1395 -224.69 184.59)" style="stroke-width:1.0956"><g transform="matrix(.13629 0 0 .13629 169.88 85.585)" style="stroke-width:8.0385"><g transform="translate(395.75,457.77)" style="stroke-width:8.0385"><path d="m0 0-25.594-79.342h51.174zm60.847-129.87h-18.712l-11.827 34.403h-60.846l-11.612-34.403h-18.695l48.371 143.19h24.941z" style="fill:#231f20;stroke-width:8.0385"/></g><path d="m479.81 432.61h18.057v-104.71h-18.057zm0 42.79h18.057v-26.011h-18.057z" style="fill:#231f20;stroke-width:8.0385"/><g transform="translate(518.94,327.9)" style="stroke-width:8.0385"><path d="m0 0 34.396 52.684-33.758 52.022h18.712l24.933-38.484 24.948 38.484h18.704l-33.966-52.022 34.606-52.684h-18.912l-25.38 38.917-25.148-38.917z" style="fill:#231f20;stroke-width:8.0385"/></g><g transform="translate(754.04,444.01)" style="stroke-width:8.0385"><path d="m0 0-2.795-116.1h-17.842l4.944 143.19h23.439l41.272-110.73 41.288 110.73h23.424l4.953-143.19h-17.843l-2.803 116.1-36.544-97.607h-24.941z" style="fill:#231f20;stroke-width:8.0385"/></g><g style="stroke-width:8.0385"><g clip-path="url(#clipPath2846)" style="stroke-width:8.0385"><g transform="translate(952.99,370.26)" style="stroke-width:8.0385"><path d="m0 0h-26.673c-11.172 0-15.262-3.441-15.262-13.977 0-10.748 1.94-15.044 14.839-15.044 9.033 0 19.133 3.433 27.096 8.592zm18.049-42.358h-15.261l-1.078 7.747c-9.241-6.453-21.283-9.896-33.966-9.896-19.566 0-27.736 11.612-27.736 30.101 0 21.714 10.966 29.459 32.041 29.459h27.951v16.341c0 13.113-5.806 17.633-22.791 17.633-10.103 0-19.897-1.017-28.061-2.733l-1.939 14.406c9.886 2.579 19.897 3.804 31.069 3.804 29.885 0 39.771-11.611 39.771-33.974z" style="fill:#231f20;stroke-width:8.0385"/></g><g transform="translate(1047.1,418.21)" style="stroke-width:8.0385"><path d="m0 0c-9.892-4.729-21.289-12.043-29.883-18.065v-72.243h-18.063v104.71h15.7l1.07-14.614c7.745 6.021 18.495 12.466 28.815 16.771z" style="fill:#231f20;stroke-width:8.0385"/></g><g transform="translate(1094.4,325.75)" style="stroke-width:8.0385"><path d="m0 0c-10.749 0-24.941 2.364-33.326 5.591l2.371 14.191c9.023-2.58 20.851-4.297 29.883-4.297 16.557 0 19.345 3.003 19.345 14.184 0 11.18-0.856 12.475-21.931 17.633-26.01 6.453-28.375 11.828-28.375 33.542 0 19.35 8.602 28.167 36.121 28.167 10.103 0 21.068-1.293 29.671-3.657l-1.297-14.839c-8.808 1.725-20.42 3.019-29.02 3.019-15.478 0-17.634-3.658-17.634-13.121 0-11.611 0.214-13.76 17.849-18.057 30.102-7.524 32.463-11.189 32.463-32.041 0-20.419-6.227-30.315-36.12-30.315" style="fill:#231f20;stroke-width:8.0385"/></g><g transform="translate(1170,388.32)" style="stroke-width:8.0385"><path d="m0 0h44.938v8.609c0 14.615-4.944 22.792-21.931 22.792s-23.007-8.177-23.007-22.792zm24.941-47.078c10.317 0 21.714 1.925 33.112 4.943l2.361-14.408c-9.886-3.656-23.86-6.02-36.974-6.02-30.964 0-41.499 14.838-41.499 38.485v31.394c0 21.713 9.89 39.131 41.066 39.131 30.954 0 39.348-17.848 39.348-39.562v-21.93h-62.355v-8.817c0-16.556 4.512-23.216 24.941-23.216" style="fill:#231f20;stroke-width:8.0385"/></g><path d="m1256 432.61h18.065v-104.71h-18.065zm0 42.79h18.065v-26.011h-18.065z" style="fill:#231f20;stroke-width:8.0385"/><g transform="translate(1308.5,327.9)" style="stroke-width:8.0385"><path d="m0 0v147.5l18.055 2.579v-150.08z" style="fill:#231f20;stroke-width:8.0385"/></g><g transform="translate(1360.9,327.9)" style="stroke-width:8.0385"><path d="m0 0v147.5l18.066 2.579v-150.08z" style="fill:#231f20;stroke-width:8.0385"/></g><g transform="translate(1418.9,388.32)" style="stroke-width:8.0385"><path d="m0 0h44.938v8.609c0 14.615-4.944 22.792-21.929 22.792-16.988 0-23.009-8.177-23.009-22.792zm24.948-47.078c10.318 0 21.707 1.925 33.103 4.943l2.365-14.408c-9.888-3.656-23.863-6.02-36.978-6.02-30.961 0-41.495 14.838-41.495 38.485v31.394c0 21.713 9.886 39.131 41.066 39.131 30.961 0 39.346-17.848 39.346-39.562v-21.93h-62.355v-8.817c0-16.556 4.521-23.216 24.948-23.216" style="fill:#231f20;stroke-width:8.0385"/></g><g transform="translate(582.69,287.19)" style="stroke-width:8.0385"><path d="m0 0v-83.793c0-7.662 4.042-10.426 11.273-10.426 8.5 0 26.796 5.106 39.77 11.912v82.307h12.336v-103.58h-10.842l-0.853 9.356c-11.065-5.305-29.569-11.481-42.105-11.481-16.171 0-21.915 9.148-21.915 23.393v82.307z" style="fill:#4dc6f4;stroke-width:8.0385"/></g><g transform="translate(748.31,183.62)" style="stroke-width:8.0385"><path d="m0 0v83.794c0 7.653-4.043 10.425-11.273 10.425-8.502 0-26.797-5.113-39.764-11.919v-82.3h-12.352v103.58h10.859l0.846-9.356c11.057 5.313 29.569 11.481 42.104 11.481 16.17 0 21.915-9.148 21.915-23.4v-82.3z" style="fill:#4dc6f4;stroke-width:8.0385"/></g><path d="m792.97 252.7h12.335v-69.078h-12.335zm0 34.967h12.335v-22.747h-12.335z" style="fill:#4dc6f4;stroke-width:8.0385"/><g transform="translate(884.17,183.62)" style="stroke-width:8.0385"><path d="m0 0h-18.929l-35.096 103.58h12.551l31.902-94.849 32.117 94.849h12.535z" style="fill:#4dc6f4;stroke-width:8.0385"/></g><g transform="translate(947.63,242.74)" style="stroke-width:8.0385"><path d="m0 0h51.884v9.363c0 17.434-6.16 26.581-25.519 26.581-19.35 0-26.365-9.147-26.365-26.581zm27.012-50.396c10.627 0 22.547 2.116 32.742 4.888l2.14-9.994c-9.579-3.404-23.192-5.745-35.744-5.745-29.137 0-38.485 15.101-38.485 37.639v32.54c0 21.268 9.564 37.646 38.7 37.646 29.139 0 37.654-16.378 37.654-37.646v-19.989h-64.019v-12.967c0-18.503 6.377-26.372 27.012-26.372" style="fill:#4dc6f4;stroke-width:8.0385"/></g><g transform="translate(1087.4,277.19)" style="stroke-width:8.0385"><path d="m0 0c-10.842-4.682-22.749-12.552-32.757-19.136v-74.436h-12.32v103.58h11.056l0.632-15.747c11.057 7.238 22.114 14.261 31.91 17.872z" style="fill:#4dc6f4;stroke-width:8.0385"/></g><g transform="translate(1138.7,181.49)" style="stroke-width:8.0385"><path d="m0 0c-10.426 0-22.745 2.125-30.415 5.313l2.126 9.995c8.931-2.756 19.772-4.25 27.429-4.25 19.14 0 22.976 3.619 22.976 16.801 0 14.893-0.416 16.378-24.024 21.908-25.95 6.167-28.074 12.543-28.074 31.47 0 17.217 8.285 26.588 33.801 26.588 9.579 0 21.268-1.27 29.354-3.611l-1.277-10.426c-8.288 1.693-20.407 2.979-28.923 2.979-18.078 0-20.621-4.688-20.621-15.954 0-14.246 0.846-15.731 19.973-20.628 30.418-7.655 32.125-12.543 32.125-31.902 0-18.712-6.806-28.283-34.45-28.283" style="fill:#4dc6f4;stroke-width:8.0385"/></g><path d="m1203.1 252.7h12.337v-69.078h-12.337zm0 34.967h12.337v-22.747h-12.337z" style="fill:#4dc6f4;stroke-width:8.0385"/><g transform="translate(1304.5,184.72)" style="stroke-width:8.0385"><path d="m0 0c-5.947-2.348-11.798-3.226-19.253-3.226-16.368 0-23.393 5.96-23.393 22.33v72.736h-19.987v10.635h19.987v20.904l12.353 1.695v-22.599h28.213l-1.277-10.635h-26.936v-71.457c0-9.147 1.264-12.983 11.903-12.983 5.729 0 9.886 0.262 16.048 2.172z" style="fill:#4dc6f4;stroke-width:8.0385"/></g><g transform="translate(1334.3,242.74)" style="stroke-width:8.0385"><path d="m0 0h51.901v9.363c0 17.434-6.176 26.581-25.535 26.581-19.342 0-26.366-9.147-26.366-26.581zm27.013-50.396c10.627 0 22.547 2.116 32.742 4.888l2.14-9.994c-9.579-3.404-23.192-5.745-35.73-5.745-29.152 0-38.499 15.101-38.499 37.639v32.54c0 21.268 9.578 37.646 38.7 37.646 29.139 0 37.654-16.378 37.654-37.646v-19.989h-64.02v-12.967c0-18.503 6.376-26.372 27.013-26.372" style="fill:#4dc6f4;stroke-width:8.0385"/></g><g transform="translate(1347.3,306.25)" style="stroke-width:8.0385"><path d="m0 0c9.549 3.079 20.807 6.807 31.495 10.911l3.68-10.588c-10.472-4.158-22.101-7.57-31.755-10.179z" style="fill:#4dc6f4;stroke-width:8.0385"/></g><g transform="translate(665.53,454.55)" style="stroke-width:8.0385"><path d="m0 0s-4.736-2.003-4.736-4.144v-117.6c0-2.128 4.792-4.142 4.792-4.142s4.736 2.004 4.736 4.142v117.6c0 2.13-4.792 4.144-4.792 4.144" style="fill:#fab20b;stroke-width:8.0385"/></g><g transform="translate(664.87,452.99)" style="stroke-width:8.0385"><path d="m0 0 0.657 1.56zm-2.36-120.2c0.037-0.075 0.129-0.214 0.275-0.373 0.294-0.322 0.793-0.713 1.318-1.048 0.532-0.342 1.07-0.628 1.473-0.828 0.299 0.148 0.672 0.345 1.065 0.58 0.915 0.512 1.854 1.346 1.959 1.658 0.037 0.03 0.027 0.034 0.027 0.034v117.57c-4e-3 0.012-0.011 0.029-0.024 0.052-0.037 0.078-0.132 0.213-0.277 0.373-0.296 0.323-0.794 0.712-1.316 1.048-0.534 0.343-1.074 0.63-1.478 0.829-0.297-0.147-0.67-0.343-1.062-0.578-0.915-0.515-1.855-1.346-1.96-1.658-0.038-0.034-0.027-0.038-0.024-0.038v-59.464c-3e-3 -13.215-3e-3 -25.392 0-25.392l-3e-3 -32.709c4e-3 -9e-3 0.012-0.028 0.027-0.058m2.418-5.677c-0.051 0.023-1.313 0.546-2.656 1.407-1.267 0.918-2.991 1.91-3.173 4.293v117.6c0.176 2.371 1.885 3.381 3.139 4.293 1.33 0.862 2.577 1.384 2.629 1.411l0.657 0.278 0.659-0.278c0.054-0.023 1.312-0.549 2.654-1.411 1.269-0.915 2.994-1.909 3.178-4.293v-59.464c-3e-3 -13.215-3e-3 -25.392 0-25.392l-3e-3 -32.744c-0.173-2.371-1.886-3.378-3.138-4.293-1.332-0.861-2.58-1.384-2.63-1.407l-0.659-0.278z" style="fill:#fab20b;stroke-width:8.0385"/></g><g transform="translate(622.61,403.01)" style="stroke-width:8.0385"><path d="m0 0s-0.633-5.104 1.219-6.175l28.354-16.368c11.442-6.607 21.989-12.696 21.989-12.696l28.354-16.369c1.843-1.066 5.983 2.078 5.983 2.078s0.634 5.103-1.219 6.174l-28.355 16.371s-10.545 6.089-21.989 12.694l-28.351 16.37c-1.846 1.065-5.985-2.079-5.985-2.079" style="fill:#fab20b;stroke-width:8.0385"/></g><g transform="translate(703.45,352.87)" style="stroke-width:8.0385"><path d="m0 0c0.397-0.033 1.567 0.398 2.451 0.929 0.381 0.216 0.72 0.428 0.986 0.606 0.017 0.275 0.032 0.611 0.032 0.983 0.057 1.169-0.293 2.645-0.476 2.795h-1e-3l-0.023 0.013-28.335 16.358c-0.02 0.012-10.545 6.087-21.988 12.694l-28.323 16.353c-0.012 4e-3 -0.049 0.01-0.106 0.01-0.402 0.034-1.571-0.397-2.455-0.928-0.381-0.215-0.72-0.43-0.985-0.608-0.017-0.274-0.032-0.613-0.032-0.983-0.059-1.173 0.296-2.655 0.478-2.798l1e-3 2e-3 28.355-16.367c11.44-6.608 21.964-12.684 21.988-12.698l28.329-16.354c0.019-3e-3 0.052-7e-3 0.104-7e-3m-1.772-2.941-28.355 16.371s-10.548 6.087-21.988 12.694l-28.354 16.371c-1.211 0.737-1.619 1.867-1.874 2.846-0.245 1.003-0.296 2.016-0.299 2.881 0 1.18 0.116 2.077 0.119 2.125l0.088 0.707 0.568 0.428c0.17 0.028 2.969 2.504 6.084 2.646 0.558 0 1.183-0.108 1.772-0.448l28.35-16.371c11.447-6.604 21.992-12.695 21.989-12.695l28.355-16.371c1.213-0.737 1.619-1.866 1.873-2.843 0.245-1.003 0.296-2.016 0.299-2.882 0-1.18-0.112-2.079-0.119-2.123l-0.085-0.708-0.571-0.431c-0.17-0.03-2.972-2.5-6.08-2.643-0.555 0-1.18 0.106-1.772 0.446" style="fill:#fab20b;stroke-width:8.0385"/></g><g transform="translate(708.5,403.01)" style="stroke-width:8.0385"><path d="m0 0s0.634-5.104-1.219-6.175l-28.353-16.368c-11.443-6.607-21.989-12.696-21.989-12.696l-28.353-16.369c-1.845-1.066-5.985 2.078-5.985 2.078s-0.633 5.103 1.219 6.174l28.355 16.371s10.545 6.089 21.989 12.694l28.353 16.37c1.844 1.065 5.983-2.079 5.983-2.079" style="fill:#fab20b;stroke-width:8.0385"/></g><g transform="translate(703.34,403.61)" style="stroke-width:8.0385"><path d="m0 0v2e-3s-1e-3 0 0-2e-3m-78.132-49.805c0.887-0.53 2.053-0.963 2.454-0.929 0.054 0 0.092 5e-3 0.108 8e-3l28.328 16.357c0.021 0.01 10.546 6.086 21.989 12.693l28.327 16.354v1e-3c0.01 0.01 0.037 0.044 0.072 0.105 0.068 0.115 0.16 0.343 0.227 0.629 0.144 0.575 0.204 1.378 0.201 2.075 0 0.369-0.012 0.705-0.029 0.981-0.266 0.177-0.606 0.394-0.987 0.609-0.884 0.531-2.055 0.967-2.453 0.933-0.051 0-0.083-5e-3 -0.098-9e-3l-28.331-16.358c-11.447-6.605-21.968-12.682-21.992-12.695l-28.334-16.357c-0.01-0.01-0.034-0.04-0.068-0.103-0.071-0.114-0.159-0.34-0.227-0.625-0.147-0.575-0.204-1.378-0.201-2.077 0-0.371 0.013-0.707 0.03-0.982 0.265-0.178 0.603-0.395 0.984-0.61m2.454-4.312c-3.111 0.142-5.91 2.611-6.08 2.638l-0.568 0.432-0.088 0.707c-7e-3 0.045-0.119 0.944-0.119 2.127 0 0.863 0.054 1.877 0.295 2.883 0.256 0.976 0.663 2.105 1.875 2.844l28.357 16.369s10.542 6.088 21.988 12.695l28.348 16.367c0.592 0.34 1.218 0.452 1.775 0.452 3.112-0.145 5.915-2.618 6.083-2.648l-1.023-1.347 1.023 1.347 0.569-0.429 0.089-0.711c3e-3 -0.045 0.115-0.941 0.115-2.121 0-0.865-0.055-1.874-0.296-2.881-0.258-0.976-0.663-2.105-1.874-2.846l-28.351-16.368c-11.443-6.608-21.988-12.698-21.992-12.698l-28.354-16.37c-0.586-0.335-1.198-0.442-1.746-0.442z" style="fill:#fab20b;stroke-width:8.0385"/></g><g transform="translate(196.69,319.09)" style="stroke-width:8.0385"><path d="m0 0c0 23.059 1.987 44.648 5.964 64.738 3.974 20.092 9.997 39.877 18.104 59.354 8.094 19.475 18.107 38.99 30.023 58.555 7.178 11.918 13.539 20.227 18.103 25.778 4.715 5.737 9.708 11.8 16.582 11.8 7.493 0 11.23-2.059 11.23-6.184 0-1.38-3.517-9.662-10.543-24.869-7.033-15.198-13.639-31.124-19.823-47.775-6.191-16.66-11.921-37.436-17.178-62.337-5.281-24.9-7.911-51.261-7.911-79.06 0-27.502 2.589-53.553 7.787-78.157 5.193-24.591 12.552-45.909 19.202-63.933 6.65-18.023 11.848-34.189 18.489-48.47 6.651-14.281 9.977-22.036 9.977-23.256 0-4.125-3.737-6.184-11.23-6.184-7.026 0-11.847 7.02-16.582 12.365-4.738 5.355-10.77 13.9-18.103 25.676-12.071 20.155-22.045 39.598-29.912 58.314-7.871 18.719-13.858 38.164-17.983 58.332-4.134 20.163-6.196 41.936-6.196 65.313" style="fill:#1476c6;stroke-width:8.0385"/></g></g></g></g></g></svg>
