<svg width="200" height="75" version="1.1" viewBox="0 0 200 75" xml:space="preserve" xmlns="http://www.w3.org/2000/svg"><g transform="matrix(.71639 0 0 -.71457 -304.11 283.88)" style="stroke-width:1.747"><path d="m447.01 339.22c-0.2264-0.116-0.3056-0.80016-0.0744-0.95312l0.9512-0.075c2.2464-0.192 2.6264-0.64952 2.6264-4.8762v-14.395c0-2.0552-0.1152-7.7696-0.9904-9.5616-0.2648-0.532-0.7232-0.9872-1.5216-0.9872-0.5336 0-1.0656 0.112-1.5984 0.2672-0.4952 0.1512-0.9552 0.228-1.4128 0.228-0.7992 0-1.3672-1.1064-1.3672-1.7528 0-0.7624 1.1792-0.8 1.636-0.8 3.5408 0 6.244 2.4368 7.5032 5.4856 0.7232 1.7512 0.8752 4.3792 0.8752 7.3864v14.13c0 4.0377 0.0784 4.5693 2.3248 4.8762l0.5688 0.075c0.2296 0.15296 0.1528 0.83712-0.0784 0.95312-1.5208-0.076-2.8168-0.1172-4.3408-0.1172-1.5976 0-2.8904 0.0412-5.1016 0.1172zm103.62-2e-3c-0.232-0.11496-0.304-0.79952-0.08-0.95152l0.992-0.075c1.976-0.15296 2.248-0.8 2.248-4.8002v-13.71c0-3.9992-0.08-4.38-2.208-4.7608l-0.648-0.1144c-0.232-0.228-0.152-0.8352 0.072-0.9504 1.488 0.0392 2.784 0.1144 4.424 0.1144 1.48 0 2.776-0.036 4.832-0.1144 0.224 0.1152 0.304 0.7992 0.08 0.9504l-1.104 0.1144c-2.136 0.2288-2.328 0.7616-2.328 4.7608v5.372c0 1.1416 0.08 1.2168 1.904 1.2168h10.896c1.824 0 1.896-0.0752 1.896-1.2168v-5.372c0-3.9992 0-4.38-2.32-4.7608l-0.72-0.1144c-0.232-0.228-0.152-0.8352 0.08-0.9504 1.672 0.0784 3.04 0.1144 4.6 0.1144 1.488 0 2.784-0.036 4.608-0.1144 0.232 0.1152 0.304 0.7992 0.08 0.9504l-0.912 0.1144c-2.216 0.2672-2.288 0.7616-2.288 4.7608v13.71c0 4.0002 0.072 4.5702 2.288 4.8002l0.792 0.075c0.232 0.152 0.16 0.83656-0.072 0.95152-1.712-0.077-3.008-0.114-4.496-0.114-1.56 0-2.856 0.037-4.6 0.114-0.232-0.11496-0.312-0.79952-0.08-0.95152l0.72-0.075c2.248-0.23 2.32-0.8 2.32-4.8002v-4.3808c0-1.18-0.072-1.216-1.896-1.216h-10.896c-1.824 0-1.904 0.036-1.904 1.216v4.3808c0 4.0002 0.08 4.5702 2.28 4.8002l0.728 0.075c0.232 0.152 0.152 0.83656-0.072 0.95152-1.64-0.077-2.936-0.114-4.416-0.114-1.64 0-2.936 0.077-4.8 0.114zm-82.745-3.5297c-6.6136 0-11.436-4.9179-11.436-11.343 0-5.7816 4.3072-10.891 11.436-10.891 6.208 0 11.152 4.7256 11.152 11.214 0 5.6544-3.728 11.02-11.152 11.02zm121.24 0c-6.616 0-11.432-4.9179-11.432-11.343 0-5.7816 4.304-10.891 11.432-10.891 6.2 0 11.152 4.7256 11.152 11.214 0 5.6544-3.728 11.02-11.152 11.02zm-54.392-2e-3c-4.176 0-6.552-2.4724-6.552-5.5252 0-2.632 1.856-4.4648 3.472-5.5248l3.048-1.9936c2.344-1.508 2.64-3.0832 2.64-4.4968 0-1.9296-1.328-3.6952-4.024-3.6952-3.72 0-5.04 3.1488-5.52 4.7856-0.128 0.1936-0.608 0.1296-0.776-0.0952 0.064-1.5104 0.488-3.7904 0.872-4.4984 0.608-0.3528 2.312-1.1896 5.008-1.1896 4.176 0 6.848 2.412 6.848 5.944 0 3.0544-2 4.9168-4.024 6.1704l-2.568 1.6048c-1.184 0.7376-2.728 2.0904-2.728 3.9528 0 1.4792 0.672 3.5643 3.824 3.5643 3.08 0 3.952-2.0859 4.368-3.6299 0.16-0.1896 0.672-0.096 0.8 0.0968 0 1.3496-0.288 3.1481-0.576 3.919-0.256 0-0.704 0.0663-1.12 0.19536-0.84 0.224-1.992 0.4156-2.992 0.4156zm144.84 0c-4.176 0-6.56-2.4724-6.56-5.5252 0-2.632 1.864-4.4648 3.472-5.5248l3.056-1.9936c2.344-1.508 2.632-3.0832 2.632-4.4968 0-1.9296-1.32-3.6952-4.016-3.6952-3.728 0-5.048 3.1488-5.528 4.7856-0.128 0.1936-0.608 0.1296-0.768-0.0952 0.064-1.5104 0.48-3.7904 0.864-4.4984 0.616-0.3528 2.312-1.1896 5.016-1.1896 4.176 0 6.84 2.412 6.84 5.944 0 3.0544-1.992 4.9168-4.016 6.1704l-2.568 1.6048c-1.192 0.7376-2.736 2.0904-2.736 3.9528 0 1.4792 0.68 3.5643 3.832 3.5643 3.08 0 3.944-2.0859 4.368-3.6299 0.16-0.1896 0.672-0.096 0.8 0.0968 0 1.3496-0.288 3.1481-0.576 3.919-0.256 0-0.712 0.0663-1.128 0.19536-0.832 0.224-1.992 0.4156-2.984 0.4156zm-200.14-0.4156c-0.192-0.095-0.256-0.6752-0.064-0.8032l0.832-0.064c1.672-0.12904 1.896-0.6768 1.896-4.0504v-11.566c0-3.3728-0.064-3.696-1.864-4.0152l-0.544-0.0968c-0.192-0.192-0.128-0.7064 0.064-0.8032 1.256 0.032 2.344 0.0968 3.728 0.0968 1.256 0 2.344-0.0312 4.08-0.0968 0.192 0.0968 0.256 0.6752 0.064 0.8032l-0.928 0.0968c-1.8 0.1928-1.96 0.6424-1.96 4.0152v4.5304c0 0.964 0.064 1.028 1.6 1.028h9.192c1.544 0 1.608-0.064 1.608-1.028v-4.5304c0-3.3728 0-3.696-1.96-4.0152l-0.608-0.0968c-0.2-0.192-0.136-0.7064 0.064-0.8032 1.408 0.0656 2.56 0.0968 3.888 0.0968 1.248 0 2.344-0.0312 3.88-0.0968 0.192 0.0968 0.256 0.6752 0.064 0.8032l-0.768 0.0968c-1.864 0.2248-1.928 0.6424-1.928 4.0152v11.566c0 3.3736 0.064 3.8564 1.928 4.0504l0.68 0.064c0.184 0.128 0.12 0.70816-0.064 0.8032-1.448-0.065-2.544-0.0954-3.792-0.0954-1.328 0-2.416 0.0303-3.888 0.0954-0.2-0.095-0.264-0.6752-0.064-0.8032l0.608-0.064c1.896-0.194 1.96-0.6768 1.96-4.0504v-3.6936c0-0.9968-0.064-1.0296-1.608-1.0296h-9.192c-1.536 0-1.6 0.0328-1.6 1.0296v3.6936c0 3.3736 0.064 3.8564 1.92 4.0504l0.616 0.064c0.192 0.128 0.128 0.70816-0.064 0.8032-1.384-0.065-2.472-0.0954-3.728-0.0954-1.384 0-2.472 0.0623-4.048 0.0954zm24.448 0c-0.248-0.13-0.256-0.61328-0.056-0.80632l0.544-0.0609c0.768-0.098 1.536-0.32344 1.992-0.7736 0.672-0.7368 0.704-1.4136 0.704-2.312v-9.2864c0-1.5416 0.032-5.4608-0.416-6.6168-0.16-0.356-0.672-0.5464-1.416-0.6424l-0.864-0.0968c-0.2-0.192-0.168-0.6432 0.056-0.8032 1.128 0.064 2 0.0968 3.344 0.0968 1.192 0 2.32-0.0328 3.76-0.0968 0.224 0.16 0.256 0.5448 0.064 0.8032l-0.992 0.0968c-0.808 0.064-1.448 0.2568-1.64 0.6128-0.544 0.9616-0.576 5.1376-0.576 6.6464v7.0048c0 0.964 0.032 1.7016 0.16 2.0872h0.064c0.672-0.7064 2.856-3.3408 3.728-4.336l7.448-8.484c2.8-3.1784 3.728-4.304 4.12-4.8504 0.352 0 0.544 0.1624 0.608 0.3536-0.096 0.8352-0.096 4.66-0.096 5.6248v7.6784c0 1.4776-0.064 5.4608 0.48 6.6184 0.128 0.25616 0.768 0.51416 1.8 0.6752l0.448 0.0609c0.192 0.19304 0.192 0.64528-0.064 0.80632-1.088-0.064-1.928-0.0954-3.312-0.0954-1.216 0-2.312 0.0314-3.792 0.0954-0.256-0.095-0.288-0.61328-0.056-0.80632l0.544-0.0609c1.28-0.16104 1.792-0.35376 1.992-0.644 0.608-0.964 0.64-5.1408 0.64-6.6496v-6.8752c0-0.6752 0-1.1896-0.128-1.3496h-0.064c-1.512 1.5424-3.088 3.34-5.304 5.8152l-3.12 3.5016c-1.056 1.1872-4.848 5.4288-5.488 7.0688-0.416-0.064-0.96-0.0954-1.48-0.0954-0.576 0-2.28 3.2e-4 -3.632 0.0954zm103.34 0c-2.672 0-4.664-0.0329-6.368-0.25784-0.256-0.12904-0.288-0.61168-0.064-0.80472l1.16-0.12808c1.44-0.15904 1.504-0.70536 1.504-3.4374v-11.855c0-3.3728-0.064-3.7592-1.928-4.0152l-0.672-0.0968c-0.192-0.192-0.128-0.7064 0.072-0.8032 1.408 0.0656 2.568 0.0968 3.912 0.0968 1.288 0 2.344-0.0312 4.176-0.0968 0.192 0.0968 0.256 0.644 0.064 0.8032l-0.872 0.0968c-2.048 0.2248-2.112 0.6424-2.112 4.0152v14.329c0 1.0306 0.032 1.1575 1.736 1.1575 3.336 0 5.168-2.0239 5.168-5.1407 0-2.796-1.256-4.756-4.72-5.4-0.192-0.0632-0.192-0.5432 0.032-0.6408 1.32 0 3.016 0.2896 4.432 0.964 1.384 0.6752 3.216 2.152 3.216 5.108 0 2.2168-1.096 3.8864-2.576 4.8204-1.504 0.932-3.504 1.286-6.16 1.286zm31.592 0c-0.192-0.096-0.264-0.67576-0.064-0.80472l0.8-0.0641c1.896-0.16 1.96-0.7056 1.96-4.1128v-11.436c0-3.4064-0.064-3.8576-1.96-4.0824l-0.8-0.0952c-0.2-0.192-0.128-0.7064 0.064-0.8032 1.608 0.0648 2.696 0.0968 4.048 0.0968 1.288 0 2.376-0.032 3.984-0.0968 0.192 0.0968 0.256 0.6752 0.064 0.8032l-0.8 0.0952c-1.896 0.2248-1.968 0.676-1.968 4.0824v11.436c0 3.4072 0.072 3.9528 1.968 4.1128l0.8 0.0641c0.192 0.12896 0.128 0.70872-0.064 0.80472-1.608-0.064-2.696-0.0969-3.984-0.0969-1.352 0-2.44 0.0329-4.048 0.0969zm9.96 0c-0.256-0.13-0.256-0.61328-0.064-0.80632l0.544-0.0609c0.776-0.098 1.544-0.32344 1.992-0.7736 0.68-0.7368 0.704-1.4136 0.704-2.312v-9.2864c0-1.5416 0.04-5.4608-0.416-6.6168-0.16-0.356-0.672-0.5464-1.408-0.6424l-0.872-0.0968c-0.192-0.192-0.16-0.6432 0.064-0.8032 1.128 0.064 1.992 0.0968 3.344 0.0968 1.184 0 2.312-0.0328 3.76-0.0968 0.224 0.16 0.256 0.5448 0.064 0.8032l-1 0.0968c-0.8 0.064-1.44 0.2568-1.64 0.6128-0.544 0.9616-0.576 5.1376-0.576 6.6464v7.0048c0 0.964 0.032 1.7016 0.168 2.0872h0.056c0.672-0.7064 2.864-3.3408 3.728-4.336l7.456-8.484c2.792-3.1784 3.728-4.304 4.112-4.8504 0.352 0 0.544 0.1624 0.608 0.3536-0.096 0.8352-0.096 4.66-0.096 5.6248v7.6784c0 1.4776-0.064 5.4608 0.48 6.6184 0.128 0.25616 0.776 0.51416 1.8 0.6752l0.456 0.0609c0.192 0.19304 0.192 0.64528-0.064 0.80632-1.096-0.064-1.928-0.0954-3.312-0.0954-1.224 0-2.312 0.0314-3.792 0.0954-0.256-0.095-0.288-0.61328-0.064-0.80632l0.544-0.0609c1.288-0.16104 1.8-0.35376 1.992-0.644 0.608-0.964 0.648-5.1408 0.648-6.6496v-6.8752c0-0.6752 0-1.1896-0.136-1.3496h-0.064c-1.504 1.5424-3.08 3.34-5.296 5.8152l-3.12 3.5016c-1.056 1.1872-4.848 5.4288-5.496 7.0688-0.416-0.064-0.96-0.0954-1.472-0.0954-0.584 0-2.28 3.2e-4 -3.632 0.0954zm-31.984-2e-3c-0.192-0.094-0.256-0.67312-0.064-0.80312l0.808-0.0641c1.864-0.16 1.928-0.6736 1.928-4.0472v-11.569c0-3.372-0.064-3.7576-1.768-4.0136l-0.648-0.0984c-0.192-0.2248-0.12-0.704 0.072-0.8032 1.312 0.0672 2.408 0.0984 3.72 0.0984 1.256 0 2.352-0.0312 3.92-0.0984 0.2 0.0992 0.256 0.6752 0.064 0.8032l-0.864 0.0984c-1.8 0.1936-1.864 0.6416-1.864 4.0136v4.1456c0 1.1248 0.064 1.5424 0.544 1.5424 0.776 0 1.288-0.6416 3.12-2.6968l2.568-2.892c1.224-1.3832 2.056-2.2496 2.664-3.0208 0.224-0.2896 0.456-0.5464 0.456-0.7408 0-0.1584-0.32-0.2544-0.776-0.3184l-0.736-0.1312c-0.192-0.192-0.096-0.736 0.128-0.8032 1.48 0.0672 2.6 0.0984 3.92 0.0984 1.512 0 2.76-0.0312 3.6-0.0984 0.224 0.0992 0.288 0.644 0.064 0.8032l-0.864 0.0984c-1.096 0.128-1.8 0.5464-2.576 1.3168-2.504 2.6336-4.976 5.5272-8.032 9.0288-0.416 0.5128-0.608 0.7712-0.608 0.9952 0 0.2568 0.288 0.5456 0.736 0.9968l2.888 2.7296c1.8 1.704 3.6 3.2136 4.504 3.7264 0.896 0.51504 2.152 0.83608 2.984 0.90008 0.192 0.19296 0.16 0.64312-0.064 0.80312-0.96-0.064-2.056-0.0938-3.176-0.0938-1.128 0-2.408 0.0298-3.536 0.0938-0.256-0.16-0.288-0.57816-0.064-0.80312l0.864-0.19216c0.424-0.098 0.552-0.19392 0.552-0.32192s-0.064-0.2892-0.232-0.5124c-0.32-0.452-1.896-2.0896-2.504-2.6688l-3.464-3.436c-0.36-0.3208-1.192-1.1584-1.64-1.5424-0.224-0.1616-0.616-0.356-0.904-0.356-0.352 0-0.416 0.612-0.416 1.2216v3.6968c0 3.3736 0.064 3.8542 1.928 4.0472l0.608 0.0641c0.2 0.13 0.128 0.70912-0.064 0.80312-1.376-0.064-2.472-0.0938-3.728-0.0938-1.44 0-2.472 0.0298-4.048 0.0938zm-149.45-0.57968c6.136 0 8.488-5.7171 8.488-11.017 0-6.3312-3.664-9.2216-7.52-9.2216-6.3296 0-8.6424 6.1696-8.6424 10.922 0 7.036 4.3352 9.3168 7.6744 9.3168zm121.24 0c6.136 0 8.48-5.7171 8.48-11.017 0-6.3312-3.656-9.2216-7.512-9.2216-6.328 0-8.648 6.1696-8.648 10.922 0 7.036 4.344 9.3168 7.68 9.3168zm32.701-30.617c-0.064-2e-3 -0.136-0.0152-0.16-0.0312-0.112-0.6624-0.36-1.7256-0.632-2.4736 0.072-0.1296 0.304-0.2144 0.432-0.1152 0.184 0.416 0.352 0.7816 0.744 1.1464 0.416 0.3808 1.328 0.4144 2.048 0.4144h0.912c0.496 0 0.496-0.0136 0.496-0.5296v-7.4176c0-1.7392-0.088-1.9912-1.032-2.072l-0.592-0.0512c-0.136-0.08-0.104-0.364 0-0.4128 1.064 0.0312 1.64 0.0488 2.304 0.0488s1.232-0.0176 2.176-0.0488c0.096 0.0488 0.128 0.348 0.032 0.4128l-0.536 0.0512c-0.96 0.0808-0.992 0.3328-0.992 2.072v7.3832c0 0.5488-0.016 0.564 0.48 0.564h1.176c0.912 0 1.544-0.132 1.928-0.4144 0.248-0.1832 0.368-0.7976 0.416-1.2112 0.08-0.0984 0.368-0.0984 0.432 0.0312-0.056 0.5008 0.064 1.8432 0.248 2.5224-0.032 0.0656-0.216 0.0816-0.304 0.0496-0.24-0.4304-0.392-0.4624-1.288-0.4624h-6.72c-0.768 0-1.312-0.0184-1.408 0.5128-0.024 0.0248-0.096 0.0336-0.16 0.0312zm-27.08-0.28c-2.16 0-3.392-1.2784-3.392-2.8544 0-1.36 0.968-2.3032 1.8-2.8528l1.576-1.0304c1.208-0.7768 1.36-1.5904 1.36-2.3216 0-0.9968-0.68-1.9064-2.072-1.9064-1.928 0-2.608 1.6248-2.856 2.4704-0.064 0.1-0.32 0.0696-0.4-0.048 0.032-0.7792 0.248-1.956 0.448-2.3224 0.312-0.184 1.192-0.6136 2.592-0.6136 2.152 0 3.528 1.2432 3.528 3.0688 0 1.576-1.024 2.5368-2.072 3.184l-1.328 0.8328c-0.616 0.3808-1.408 1.0744-1.408 2.0392 0 0.7632 0.352 1.8424 1.976 1.8424 1.592 0 2.04-1.08 2.256-1.8768 0.08-0.0992 0.344-0.0504 0.408 0.0496 0 0.6984-0.144 1.6272-0.296 2.0272-0.136 0-0.368 0.0304-0.576 0.0984-0.44 0.1144-1.032 0.2136-1.544 0.2136zm-115.84-0.2136c-0.096-0.0504-0.136-0.332-0.032-0.4l0.416-0.0312c0.96-0.0832 0.992-0.3656 0.992-2.0912v-3.9168c0-1.9744 0.416-3.184 1.296-3.9144 0.816-0.696 1.96-0.9136 3.104-0.9136 1.224 0 2.456 0.432 3.168 1.2136 0.928 0.9936 1.16 2.5192 1.16 3.9608v1.8784c0 0.9312 0 2.8368 0.232 3.3832 0.096 0.2168 0.416 0.3656 0.832 0.4l0.4 0.0312c0.08 0.1016 0.096 0.316-0.04 0.4-0.592-0.0344-1.04-0.0504-1.744-0.0504-0.64 0-1.256 0.016-1.888 0.0504-0.096-0.068-0.128-0.2832-0.032-0.4l0.416-0.0312c0.416-0.0344 0.712-0.1496 0.832-0.3504 0.28-0.4968 0.312-2.4048 0.312-3.4328v-1.9096c0-2.5224-0.912-4.4104-3.32-4.4104-2.536 0-3.368 1.7576-3.368 4.4264v3.5856c0 1.7256 0.032 2.008 0.992 2.0912l0.408 0.0312c0.096 0.068 0.064 0.3496-0.04 0.4-0.808-0.0344-1.36-0.0504-2.04-0.0504-0.664 0-1.224 0.016-2.056 0.0504zm20.504 0c-0.136-0.068-0.136-0.316-0.032-0.416l0.28-0.0344c0.392-0.0488 0.792-0.164 1.024-0.3968 0.352-0.3816 0.368-0.7304 0.368-1.1952v-4.792c0-0.7984 0.016-2.8256-0.216-3.4176-0.08-0.1824-0.352-0.2824-0.728-0.3328l-0.448-0.0512c-0.104-0.1-0.088-0.3296 0.032-0.4128 0.584 0.0312 1.032 0.0488 1.72 0.0488 0.616 0 1.2-0.0176 1.944-0.0488 0.12 0.0832 0.136 0.2816 0.032 0.4128l-0.512 0.0512c-0.416 0.032-0.744 0.1312-0.848 0.3144-0.28 0.4968-0.296 2.6536-0.296 3.436v3.6168c0 0.4944 0.016 0.8776 0.08 1.0768h0.032c0.352-0.3664 1.48-1.7256 1.928-2.2408l3.848-4.3792c1.44-1.6424 1.928-2.2232 2.12-2.5048 0.184 0 0.288 0.0824 0.32 0.1824-0.048 0.4312-0.048 2.4048-0.048 2.9016v3.9656c0 0.764-0.032 2.82 0.248 3.4192 0.064 0.1328 0.4 0.2656 0.928 0.3464l0.232 0.0344c0.096 0.1 0.096 0.332-0.032 0.416-0.568-0.0344-1-0.0504-1.712-0.0504-0.632 0-1.192 0.016-1.952 0.0504-0.136-0.0504-0.152-0.316-0.032-0.416l0.28-0.0344c0.664-0.0808 0.928-0.1792 1.024-0.3312 0.32-0.496 0.336-2.6552 0.336-3.4344v-3.5496c0-0.348 0-0.6144-0.064-0.6968h-0.04c-0.776 0.7968-1.592 1.7264-2.736 3.0032l-1.608 1.8088c-0.544 0.612-2.504 2.8032-2.84 3.6504-0.216-0.0344-0.496-0.0504-0.76-0.0504-0.296 0-1.176 0-1.872 0.0504zm21.56 0c-0.096-0.0504-0.136-0.348-0.032-0.416l0.416-0.0344c0.976-0.0808 1.008-0.3616 1.008-2.1216v-5.9064c0-1.7568-0.032-1.9896-1.008-2.1048l-0.416-0.0528c-0.104-0.1-0.064-0.364 0.032-0.4144 0.832 0.032 1.392 0.0504 2.088 0.0504 0.664 0 1.232-0.0184 2.056-0.0504 0.104 0.0504 0.136 0.348 0.032 0.4144l-0.408 0.0528c-0.984 0.1152-1.016 0.348-1.016 2.1048v5.9064c0 1.76 0.032 2.0408 1.016 2.1216l0.408 0.0344c0.104 0.068 0.072 0.3656-0.032 0.416-0.824-0.0344-1.392-0.0504-2.056-0.0504-0.696 0-1.256 0.016-2.088 0.0504zm13.224 0c-0.136-0.0832-0.152-0.3168-0.04-0.416l0.304-0.0344c0.712-0.0808 0.96-0.4312 1.336-1.3592l2.928-7.2c0.28-0.6976 0.576-1.508 0.76-2.2064 0.08-0.032 0.168-0.0496 0.248-0.0496 0.064 0 0.136 0.0176 0.184 0.0496 0.28 0.8808 1.056 2.8024 1.72 4.3312l0.896 2.0392c0.752 1.6888 1.392 3.0368 1.864 3.816 0.216 0.348 0.464 0.548 0.864 0.5792l0.496 0.0344c0.08 0.0832 0.08 0.348-0.04 0.416-0.544-0.0344-1.056-0.0488-1.608-0.0488-0.624 0-1.256 0.0144-1.72 0.0488-0.12-0.068-0.152-0.3168-0.032-0.416l0.296-0.0344c0.584-0.0648 0.744-0.1976 0.744-0.312 0-0.1184-0.016-0.3024-0.152-0.6504-0.28-0.7128-1.056-2.5872-1.536-3.7136-0.384-0.8816-1.08-2.5888-1.592-3.6848-0.832 1.8928-1.592 3.7992-2.36 5.7232-0.512 1.2616-0.792 2.1576-0.824 2.3256 0.016 0.1328 0.144 0.2312 0.776 0.312l0.248 0.0344c0.12 0.0992 0.088 0.348-0.032 0.416-0.696-0.0344-1.28-0.0488-2.008-0.0488-0.712 0-1.248 0.0144-1.72 0.0488zm20.336 0c-0.104-0.0504-0.136-0.348-0.04-0.416l0.264-0.036c0.984-0.1128 1.016-0.3608 1.016-2.0888v-5.9736c0-1.7376-0.08-1.988-1.032-2.0688l-0.544-0.0528c-0.096-0.0992-0.072-0.364 0.032-0.4144 0.976 0.032 1.544 0.0504 2.256 0.0504h1.496c1.472 0 2.952-0.0184 4.44-0.0504 0.216 0.4472 0.632 1.724 0.752 2.3048-0.064 0.1512-0.304 0.2016-0.416 0.1176-0.432-0.8624-0.88-1.4432-1.176-1.608-0.368-0.1832-0.848-0.2488-2.128-0.2488-1.456 0-1.808 0.184-2.008 0.3832-0.256 0.28-0.312 0.8424-0.312 1.7216v2.3376c0 0.4336 0.048 0.4496 0.544 0.4496h0.968c0.64 0 1.04-0.016 1.28-0.084 0.328-0.0832 0.44-0.332 0.504-0.6312l0.16-0.644c0.072-0.0984 0.36-0.0992 0.424 0.0192 0 0.36-0.064 0.9928-0.064 1.5888 0 0.6304 0.064 1.2784 0.064 1.6784-0.064 0.1144-0.352 0.1152-0.424 0.0152l-0.136-0.6792c-0.088-0.416-0.2-0.5152-0.4-0.5832-0.2-0.0656-0.72-0.1-1.408-0.1h-0.968c-0.496 0-0.544 0-0.544 0.4656v3.3192c0 0.6296 0 0.664 0.496 0.664h1.192c0.736 0 1.264-0.016 1.608-0.1 0.872-0.2176 1.016-0.7976 1.264-1.5768 0.088-0.1 0.352-0.068 0.416 0.0312-0.064 0.732-0.168 1.9256-0.264 2.2096-0.2-0.0504-1.176-0.0504-2.24-0.0504h-3.12c-0.68 0-1.24 0.0152-1.952 0.0504zm21.672 0c-1.624 0-2.768-0.0488-3.696-0.1328-0.136-0.0656-0.136-0.3328-0.024-0.4176l0.536-0.064c0.68-0.084 0.728-0.3656 0.728-1.944v-5.956c0-1.7376-0.032-1.9536-0.992-2.0688l-0.416-0.0528c-0.104-0.1152-0.064-0.364 0.032-0.4144 0.776 0.032 1.376 0.0504 2.072 0.0504 0.664 0 1.232-0.0184 1.976-0.0504 0.104 0.0504 0.136 0.3336 0.032 0.4144l-0.344 0.0528c-0.968 0.1304-1 0.3312-1 2.0688v2.0888c0 0.3512 0.032 0.3672 0.784 0.3672 0.664 0 0.928-0.1648 1.176-0.5312 0.512-0.7448 1.192-1.8904 1.624-2.504 1.176-1.6736 2.024-2.0896 3.44-2.0896 0.312 0 0.576 0.0344 0.728 0.0848 0.08 0.0648 0.064 0.1984-0.016 0.2328-0.448 0.032-0.864 0.2144-1.144 0.4624-1.128 0.944-2.008 2.272-3.336 4.4104-0.08 0.1336-0.168 0.3016-0.088 0.4 0.832 0.332 2.08 1.1928 2.08 2.7688 0 1.1632-0.584 1.9104-1.384 2.324-0.76 0.416-1.736 0.5-2.768 0.5zm31.016 0c-0.104-0.0504-0.136-0.348-0.032-0.416l0.416-0.0344c0.976-0.0808 1.008-0.3616 1.008-2.1216v-5.9064c0-1.7568-0.032-1.9896-1.008-2.1048l-0.416-0.0528c-0.104-0.1-0.072-0.364 0.032-0.4144 0.832 0.032 1.392 0.0504 2.088 0.0504 0.664 0 1.232-0.0184 2.056-0.0504 0.104 0.0504 0.136 0.348 0.032 0.4144l-0.416 0.0528c-0.976 0.1152-1.008 0.348-1.008 2.1048v5.9064c0 1.76 0.032 2.0408 1.008 2.1216l0.416 0.0344c0.104 0.068 0.072 0.3656-0.032 0.416-0.824-0.0344-1.392-0.0504-2.056-0.0504-0.696 0-1.256 0.016-2.088 0.0504zm33.128 0c-0.12-0.068-0.136-0.2976-0.04-0.416l0.464-0.0824c0.504-0.0816 0.752-0.1656 1.32-1.26l1.952-3.8184c0.48-0.928 0.528-1.1416 0.528-2.0544v-0.8488c0-1.7728-0.032-2.0048-0.992-2.1048l-0.512-0.0512c-0.104-0.1-0.072-0.3624 0.032-0.4128 0.88 0.0328 1.472 0.0504 2.176 0.0504 0.656 0 1.224-0.0176 2.256-0.0504 0.096 0.0504 0.136 0.3128 0.032 0.4128l-0.632 0.0512c-0.896 0.0664-1 0.332-1 2.1048v0.864c0 1.2752 0.056 1.4248 0.784 2.688l1.048 1.8056c0.824 1.428 1.328 2.4744 2.184 2.624l0.472 0.0824c0.112 0.1 0.096 0.332-0.04 0.416-0.56-0.0344-1.024-0.0504-1.544-0.0504-0.504 0-0.992 0.016-1.592 0.0504-0.128-0.068-0.144-0.2976-0.032-0.416l0.296-0.0344c0.408-0.0488 0.704-0.164 0.704-0.264 0-0.1976-0.616-1.3272-1.08-2.1904-0.496-0.9624-1.048-1.924-1.56-2.8048-0.648 1.148-1.264 2.4568-1.872 3.6832-0.088 0.1664-0.52 1.1136-0.52 1.2776 0 0.1344 0.12 0.2176 0.696 0.2984l0.216 0.0344c0.104 0.1 0.104 0.3656-0.048 0.416-0.416-0.0344-1.008-0.0504-1.768-0.0504-0.8 0-1.4 0.016-1.928 0.0504zm-64.16-0.516c1.84 0 2.656-1.2432 2.656-2.556 0-1.1272-0.384-1.7064-0.832-2.0544-0.48-0.3664-1.104-0.432-1.704-0.432-0.848 0-1.096 0.032-1.152 0.0816-0.048 0.068-0.048 0.2504-0.048 0.5488v3.8824c0 0.4648 0.048 0.5296 1.08 0.5296z" style="fill:#002d72;stroke-width:1.3976"/><g transform="translate(163.09 38.783)" style="fill:#002d72;stroke-width:1.4582"><path d="m396.94 328.09c-0.841 0.324-1.702 0.58-2.576 0.77-0.187-0.605-0.435-1.191-0.736-1.753 0.699-0.145 1.391-0.341 2.067-0.594 0.485 0.463 0.904 0.993 1.245 1.577m-11.227-1.577c0.671 0.25 1.358 0.448 2.058 0.591-0.304 0.565-0.553 1.151-0.738 1.753-0.872-0.188-1.727-0.445-2.565-0.767 0.341-0.584 0.761-1.114 1.245-1.577m-1.245 8.871c0.838-0.323 1.693-0.579 2.565-0.768 0.185 0.602 0.434 1.187 0.736 1.75-0.698 0.146-1.385 0.341-2.056 0.593-0.484-0.464-0.904-0.994-1.245-1.575m11.227 1.575c-0.676-0.252-1.364-0.45-2.067-0.596 0.304-0.563 0.549-1.146 0.736-1.748 0.874 0.187 1.735 0.444 2.576 0.769-0.341 0.581-0.76 1.111-1.245 1.575m2.222-4.882c-0.044 0.96-0.273 1.872-0.66 2.7-0.883-0.347-1.79-0.62-2.709-0.82 0.144-0.614 0.228-1.244 0.25-1.88zm-3.369-2.562c0.919-0.199 1.826-0.473 2.709-0.818 0.387 0.827 0.616 1.738 0.66 2.699h-3.119c-0.022-0.635-0.106-1.268-0.25-1.881m-0.668 0.133c0.134 0.572 0.217 1.156 0.238 1.748h-3.074v-1.471c0.958-0.019 1.905-0.109 2.836-0.277m-0.956-2.412c0.317 0.561 0.573 1.15 0.768 1.755-0.871 0.15-1.753 0.235-2.648 0.252v-1.841c0.628-0.015 1.258-0.07 1.88-0.166m-1.184-2.65c1.253 0.183 2.398 0.683 3.358 1.419-0.597 0.204-1.211 0.365-1.828 0.482-0.429-0.679-0.939-1.316-1.53-1.901m0.789 2.021c-0.491 0.066-0.988 0.101-1.485 0.116v-1.859c0.569 0.533 1.067 1.116 1.485 1.743m-4.402-0.122c-0.615-0.117-1.222-0.277-1.817-0.48 0.954-0.733 2.097-1.234 3.345-1.416-0.589 0.583-1.099 1.219-1.528 1.896m0.739 0.119c0.422-0.628 0.922-1.216 1.496-1.751v1.87c-0.498-0.015-1-0.054-1.496-0.119m-1.157 2.385c0.192-0.606 0.448-1.194 0.766-1.754 0.626 0.097 1.256 0.152 1.887 0.167v1.841c-0.896-0.017-1.782-0.104-2.653-0.254m-0.19 0.659c0.934 0.168 1.883 0.258 2.843 0.277v1.471h-3.084c0.025-0.592 0.102-1.178 0.241-1.748m-4.028 1.748c0.043-0.962 0.272-1.872 0.658-2.699 0.882 0.345 1.782 0.618 2.701 0.817-0.145 0.614-0.23 1.246-0.251 1.882zm3.359 2.561c-0.919 0.201-1.819 0.474-2.701 0.82-0.386-0.828-0.615-1.74-0.658-2.7h3.108c0.021 0.636 0.106 1.267 0.251 1.88m0.667-0.131c-0.137-0.573-0.217-1.158-0.239-1.749h3.084v1.472c-0.96 0.017-1.91 0.11-2.845 0.277m0.956 2.41c-0.319-0.559-0.572-1.146-0.767-1.751 0.874-0.151 1.76-0.238 2.656-0.256v1.838c-0.635 0.016-1.268 0.071-1.889 0.169m1.182 2.648c-1.248-0.181-2.391-0.682-3.345-1.415 0.595-0.204 1.202-0.365 1.817-0.48 0.429 0.675 0.939 1.314 1.528 1.895m-0.789-2.015c0.496-0.067 0.998-0.106 1.496-0.117v1.866c-0.574-0.532-1.074-1.121-1.496-1.749m4.404 0.118c0.617 0.117 1.231 0.278 1.828 0.482-0.96 0.736-2.105 1.236-3.358 1.416 0.591-0.58 1.101-1.221 1.53-1.898m-0.74-0.119c-0.419 0.623-0.917 1.21-1.486 1.74v-1.856c0.497 0.011 0.994 0.048 1.486 0.116m1.162-2.385c-0.192 0.606-0.448 1.193-0.765 1.752-0.62-0.097-1.251-0.152-1.883-0.168v-1.838c0.895 0.018 1.777 0.105 2.648 0.254m-2.648-2.406h3.074c-0.021 0.591-0.103 1.175-0.238 1.746-0.931-0.164-1.878-0.257-2.836-0.274zm-0.341 7.573c-4.363 0-7.913-3.55-7.913-7.913 0-4.365 3.55-7.915 7.913-7.915 4.364 0 7.914 3.55 7.914 7.915 0 4.363-3.55 7.913-7.914 7.913m9.278 3.991c-7.292-0.068-14.573-0.85-21.671-2.358 3.129-19.824 15.516-29.477 21.671-32.876z" style="fill-rule:evenodd;stroke-width:1.747"/><path d="m415.04 320.06c3e-3 3e-3 5e-3 4e-3 8e-3 7e-3l-8e-3 5e-3z" style="stroke-width:1.747"/><path d="m419.37 327.25c3e-3 8e-3 7e-3 0.017 0.012 0.024l-0.012 7e-3z" style="stroke-width:1.747"/><path d="m401.01 358.49c-7.7192 0-15.246-0.82296-22.505-2.375l-0.0279-9e-3c-0.50904-0.128-0.89216-0.5896-0.89216-1.1406l2e-3 -4.0673c0-2.6752 0.16215-5.1952 0.45311-7.584 15.068 3.1824 30.902 3.1816 45.946 4e-3 0.288 2.3872 0.4512 4.9072 0.4512 7.58l2e-3 4.0673c0 0.56496-0.4024 1.04-0.9344 1.15l-0.0152 6e-3c-7.248 1.549-14.768 2.3687-22.478 2.3687zm-7.5712-2.166c2.5464-0.0395 5.3536-0.45408 7.564-1.2672h0.01c3.5352 1.301 8.6024 1.5835 11.678 0.93752l1.3416-1.0406 0.3616-0.0562c0.12-0.016 0.216-0.10056 0.256-0.17656l3.744-8.2728c0.1208-0.2304-0.0688-0.4248-0.2832-0.3832-5.6976 1.0832-11.742 1.416-17.1 1.416h-5e-3c-5.36 0-11.402-0.3328-17.098-1.416-0.21592-0.0416-0.40376 0.1528-0.28272 0.3832l3.7419 8.2728c0.0416 0.0763 0.1352 0.16088 0.2584 0.17688l0.3576 0.0562 1.3424 1.0406c1.1536 0.24224 2.5864 0.35336 4.1136 0.32968zm-4.5168-1.3938-1.236-0.93592-2.564-6.6778c3.4216 0.5544 11.15 1.1808 14.978 1.128 0.156 0.0696 0.348 0.1688 0.6224 0.1688-4.6112 1.5104-9.8992 1.7392-13.661 1.028zm24.117 0 1.8672-5.2889c-3.7632 0.7112-9.0576 0.4824-13.669-1.028 0.2768 0 0.4688-0.0992 0.6224-0.1688 3.8304 0.0528 11.56-0.5736 14.981-1.128l-2.5656 6.6778zm-11.009-11.286v-4.8224l4.3392-2.8824v7.5752c-1.444 0.068-2.8928 0.116-4.3392 0.1296zm8.6768-0.4208v-10.17l4.3344-2.8888v12.58c-1.4408 0.1824-2.8856 0.3512-4.3344 0.4792zm8.6688-1.1152v-14.826l-4.3328 2.8824v-10.098l8e-3 -5e-3c1.548 2.1 3.0224 4.492 4.3264 7.188v0.0296l0.0112-6e-3c1.916 3.972 3.4616 8.612 4.3152 14.017-1.4368 0.3056-2.8768 0.576-4.328 0.8192zm-13.006-6.172v-10.095l-4.3376 2.884v-20.312c1.2376 0.68 2.724 1.6208 4.3376 2.8368v14.59l4.336-2.888v10.1zm4.3376-12.983v-7.9344c1.4584 1.4472 2.9288 3.1264 4.3344 5.036v0.0112z" style="stroke-width:1.3976"/></g></g></svg>
