<svg width="200" height="75" version="1.2" viewBox="0 0 200 75" xml:space="preserve" xmlns="http://www.w3.org/2000/svg"><g id="ctr_small" transform="translate(-367.65 -338.65)" display="none" style="display:none"><g display="inline" style="display:inline"><path d="m386.46 394.77c0 0.871 0.736 1.537 1.644 1.537 0.862 0 1.716-0.639 1.716-1.537v-3.422l0.449-0.459h-1.383l0.458 0.459v3.422c0 0.611-0.485 1.098-1.096 1.098-0.62 0-1.168-0.477-1.168-1.098v-3.422l0.458-0.459h-1.536l0.458 0.459zm5.965 0.962v-3.971l2.844 4.428h0.184v-4.842l0.458-0.459h-1.384l0.458 0.459v3.369l-2.389-3.828h-1.096l0.449 0.459v4.385l-0.449 0.457h1.384zm4.932-4.843 0.422 0.424v4.455l-0.422 0.422h1.428l-0.422-0.422v-4.455l0.422-0.424zm4.115 0h-1.5l0.431 0.424 1.492 4.877h0.27l1.535-4.877 0.432-0.424h-1.275l0.413 0.414-1.122 3.666-1.088-3.666zm6.872 5.301v-0.971l-0.565 0.576h-1.609v-2.228h1.195l0.422 0.422v-1.238l-0.422 0.42h-1.195v-1.887h1.609l0.565 0.568v-0.963h-3.17l0.412 0.424v4.455l-0.412 0.422zm2.381-0.422v-2.049h0.801l1.283 2.471h0.881l-0.413-0.422-1.186-2.174c0.594-0.182 0.998-0.736 0.998-1.24 0-0.898-0.836-1.465-1.717-1.465h-1.643l0.413 0.424v4.455l-0.413 0.422h1.419zm0-4.485h0.646c0.566 0 1.016 0.486 1.016 1.061 0 0.549-0.459 0.98-1.016 0.98h-0.646zm6.81 3.434c0-0.521-0.243-0.844-0.494-1.018l-1.078-0.779c-0.387-0.279-0.584-0.637-0.584-0.908 0-0.557 0.475-0.754 0.764-0.754 0.152 0 0.26 0.063 0.341 0.063l0.468 0.504 0.493-0.736-1.051-0.199c-0.071-0.018-0.116-0.025-0.251-0.025-0.926 0-1.348 0.789-1.348 1.303 0 0.404 0.206 0.861 0.682 1.211l1.088 0.783c0.297 0.205 0.377 0.51 0.377 0.772 0 0.449-0.279 0.935-0.881 0.935-0.143 0-0.27-0.027-0.367-0.072l-0.504-0.594-0.458 0.826 1.015 0.197s0.172 0.037 0.315 0.037c0.637-1e-3 1.473-0.54 1.473-1.546m1.535-3.828 0.422 0.424v4.455l-0.422 0.422h1.43l-0.424-0.422v-4.455l0.424-0.424zm4.807 4.879v-4.484h1.006l0.566 0.568v-0.963h-3.729v0.963l0.575-0.568h0.997v4.484l-0.414 0.422h1.42zm2.793-4.455 1.34 2.416v2.039l-0.422 0.422h1.428l-0.422-0.422v-2.039l1.365-2.408 0.439-0.432h-1.311l0.413 0.414-1.114 1.984-1.061-1.984 0.414-0.414h-1.501zm8.648 1.521c-0.193 0-0.498 0.09-0.805 0.268-0.516 0.307-1.076 1-1.076 2.045 0 0.523 0.246 1.105 0.942 1.105 0.328 0 0.799-0.217 1.111-0.502 0.493-0.445 0.785-1.215 0.785-1.879 0-0.619-0.33-1.037-0.957-1.037m-1.275 2.135c0-1.105 0.559-1.703 0.791-1.799 0.066-0.031 0.172-0.061 0.246-0.061 0.373 0 0.59 0.283 0.59 0.859 0.015 0.969-0.492 1.85-0.807 1.955-0.059 0.022-0.156 0.051-0.23 0.051-0.418 1e-3 -0.59-0.447-0.59-1.005m3.357-1.957-0.201 0.195 0.022 0.074h0.62c-0.098 0.672-0.188 1.254-0.328 2.193-0.201 1.396-0.373 1.889-0.516 2.008-0.045 0.045-0.119 0.068-0.186 0.068-0.091 0-0.232-0.068-0.33-0.113-0.089-0.043-0.162 8e-3 -0.207 0.053-0.06 0.068-0.128 0.172-0.128 0.254 0 0.15 0.194 0.225 0.321 0.225 0.142 0 0.5-0.119 0.82-0.516 0.254-0.313 0.598-1.037 0.889-2.725 0.052-0.313 0.111-0.627 0.238-1.447l0.762-0.074 0.164-0.195h-0.881c0.225-1.381 0.41-1.797 0.73-1.797 0.225 0 0.412 0.088 0.576 0.246 0.052 0.051 0.135 0.051 0.209-8e-3 0.059-0.053 0.148-0.174 0.148-0.277 8e-3 -0.148-0.193-0.313-0.447-0.313-0.434 0-0.889 0.254-1.201 0.627-0.292 0.352-0.486 0.918-0.59 1.521h-0.484zm7.856 3.178 1.213-3.836 1.178 3.836h0.27l1.535-4.877 0.432-0.424h-1.275l0.412 0.414-1.123 3.666-1.086-3.666 0.414-0.414h-1.502l0.424 0.424 0.108 0.35-1.016 3.307-1.088-3.666 0.414-0.414h-1.5l0.432 0.424 1.49 4.877h0.268zm5.637-0.413 0.385-1.123h1.754l0.367 1.123-0.412 0.412h1.5l-0.422-0.432-1.654-4.869h-0.27l-1.68 4.869-0.432 0.432h1.275zm1.275-3.71 0.729 2.191h-1.484zm5.93 2.65c0-0.521-0.242-0.844-0.494-1.018l-1.078-0.779c-0.387-0.279-0.584-0.637-0.584-0.908 0-0.557 0.477-0.754 0.764-0.754 0.152 0 0.26 0.063 0.342 0.063l0.467 0.504 0.494-0.736-1.051-0.199c-0.072-0.018-0.117-0.025-0.252-0.025-0.926 0-1.348 0.789-1.348 1.303 0 0.404 0.207 0.861 0.684 1.211l1.086 0.783c0.297 0.205 0.379 0.51 0.379 0.772 0 0.449-0.279 0.935-0.881 0.935-0.145 0-0.27-0.027-0.369-0.072l-0.504-0.594-0.457 0.826 1.016 0.197s0.17 0.037 0.314 0.037c0.636-1e-3 1.472-0.54 1.472-1.546m2.39-1.188h2.227v2.238l-0.422 0.422h1.428l-0.422-0.422v-4.455l0.422-0.424h-1.428l0.422 0.424v1.822h-2.227v-1.822l0.422-0.424h-1.42l0.414 0.424v4.455l-0.414 0.422h1.42l-0.422-0.422zm4.707-2.64 0.422 0.424v4.455l-0.422 0.422h1.428l-0.422-0.422v-4.455l0.422-0.424zm3.799 4.843v-3.971l2.789 4.43 0.24-2e-3v-4.842l0.457-0.459h-1.383l0.457 0.459v3.369l-2.389-3.828h-1.098l0.449 0.459v4.385l-0.449 0.457h1.385zm7.86-1.949v1.705c-0.125 0.127-0.377 0.379-0.871 0.379-1.178 0-1.77-1.185-1.77-2.328 0-1.148 0.746-2.326 1.77-2.326 0.27 0 0.467 0.063 0.647 0.252l0.584 0.574v-0.918c-0.314-0.16-0.629-0.305-1.23-0.305-1.447 0-2.461 1.295-2.461 2.723 0 1.402 1.014 2.723 2.461 2.723 0.818 0 1.168-0.197 1.455-0.387v-2.092l0.414-0.424h-1.42zm3.923 1.985v-4.484h1.006l0.566 0.568v-0.963h-3.729v0.963l0.576-0.568h0.996v4.484l-0.412 0.422h1.418zm2.399-2.229c0 1.348 0.762 2.768 2.119 2.768 1.367 0 2.129-1.42 2.129-2.768s-0.762-2.766-2.129-2.766c-1.358 1e-3 -2.119 1.419-2.119 2.766m2.119 2.363c-1.061 0-1.428-1.268-1.428-2.363s0.367-2.363 1.428-2.363c1.068 0 1.438 1.268 1.438 2.363s-0.37 2.363-1.438 2.363m4.096-0.17v-3.971l2.756 4.428h0.271v-4.842l0.459-0.459h-1.385l0.457 0.459v3.369l-2.389-3.828h-1.096l0.449 0.459v4.385l-0.449 0.457h1.383z" style="fill:#fff"/><polygon points="438.11 385.66 439.42 380.72 440.68 385.66 443.43 385.66 445.51 377.77 446.57 377.77 446.57 376 442.78 376 442.78 377.77 444.03 377.77 442.67 382.91 440.98 376 439.23 376 437.37 382.96 436.04 377.77 437.4 377.77 437.4 376 432.27 376 432.27 377.77 433.39 377.77 435.35 385.66" style="fill:#fff"/></g></g><g id="ctr_large" transform="translate(-367.65 -338.65)" display="none" style="display:none"><g display="inline" style="display:inline"><path d="m314.08 406.36c0 2.063 1.744 3.637 3.892 3.637 2.042 0 4.061-1.51 4.061-3.637v-8.102l1.064-1.084h-3.275l1.084 1.084v8.102c0 1.447-1.148 2.596-2.594 2.596-1.467 0-2.765-1.129-2.765-2.596v-8.102l1.084-1.084h-3.636l1.085 1.084zm14.121 2.276v-9.398l6.731 10.484h0.436v-11.463l1.084-1.084h-3.275l1.084 1.084v7.975l-5.656-9.059h-2.595l1.064 1.084v10.377l-1.064 1.086h3.275zm11.675-11.461 1 1v10.547l-1 1h3.381l-1-1v-10.547l1-1zm9.739 0h-3.551l1.021 1 3.53 11.547h0.638l3.636-11.547 1.021-1h-3.02l0.978 0.979-2.658 8.676-2.573-8.676zm16.269 12.547v-2.297l-1.339 1.361h-3.807v-5.273h2.828l1 0.998v-2.934l-1 0.998h-2.828v-4.465h3.807l1.339 1.34v-2.275h-7.507l0.979 1v10.547l-0.979 1zm5.635-1v-4.848h1.893l3.041 5.848h2.084l-0.978-1-2.808-5.147c1.404-0.426 2.361-1.744 2.361-2.935 0-2.125-1.978-3.465-4.063-3.465h-3.891l0.978 1v10.547l-0.978 1h3.359zm0-10.612h1.53c1.341 0 2.404 1.148 2.404 2.508 0 1.299-1.086 2.318-2.404 2.318h-1.53zm16.12 8.123c0-1.234-0.575-1.998-1.169-2.404l-2.552-1.85c-0.916-0.658-1.383-1.508-1.383-2.148 0-1.316 1.127-1.785 1.808-1.785 0.361 0 0.617 0.148 0.808 0.148l1.105 1.191 1.17-1.744-2.488-0.467c-0.171-0.043-0.276-0.064-0.596-0.064-2.191 0-3.19 1.871-3.19 3.084 0 0.957 0.489 2.041 1.616 2.869l2.574 1.852c0.701 0.488 0.893 1.211 0.893 1.83 0 1.063-0.659 2.211-2.084 2.211-0.34 0-0.638-0.065-0.872-0.17l-1.191-1.404-1.085 1.957 2.403 0.469s0.404 0.084 0.744 0.084c1.511 0 3.489-1.276 3.489-3.659m3.636-9.058 0.999 1v10.547l-0.999 1h3.382l-1-1v-10.547l1-1zm11.378 11.547v-10.611h2.381l1.34 1.34v-2.275h-8.825v2.275l1.361-1.34h2.359v10.611l-0.978 1h3.359zm6.612-10.547 3.169 5.719v4.828l-0.999 1h3.382l-1-1v-4.828l3.233-5.699 1.041-1.02h-3.104l0.979 0.979-2.638 4.699-2.51-4.699 0.979-0.979h-3.552zm20.474 3.601c-0.461 0-1.184 0.211-1.908 0.637-1.219 0.725-2.544 2.367-2.544 4.84 0 1.236 0.581 2.615 2.226 2.615 0.777 0 1.891-0.514 2.633-1.184 1.166-1.06 1.854-2.881 1.854-4.453 0-1.466-0.778-2.455-2.261-2.455m-3.021 5.053c0-2.615 1.325-4.029 1.873-4.258 0.157-0.07 0.406-0.143 0.583-0.143 0.883 0 1.396 0.672 1.396 2.033 0.035 2.297-1.166 4.381-1.907 4.629-0.144 0.053-0.372 0.123-0.548 0.123-0.991 1e-3 -1.397-1.06-1.397-2.384m7.95-4.629-0.476 0.459 0.051 0.178h1.468c-0.229 1.59-0.442 2.967-0.778 5.193-0.477 3.303-0.883 4.471-1.218 4.752-0.106 0.105-0.283 0.158-0.442 0.158-0.213 0-0.548-0.158-0.777-0.264-0.213-0.105-0.389 0.018-0.495 0.125-0.142 0.158-0.3 0.404-0.3 0.6 0 0.354 0.459 0.529 0.76 0.529 0.336 0 1.184-0.281 1.943-1.219 0.601-0.742 1.414-2.455 2.102-6.447 0.123-0.744 0.265-1.484 0.566-3.428l1.802-0.178 0.389-0.459h-2.085c0.53-3.27 0.973-4.258 1.73-4.258 0.531 0 0.973 0.211 1.361 0.582 0.123 0.125 0.318 0.125 0.495-0.018 0.142-0.123 0.354-0.406 0.354-0.652 0.017-0.353-0.459-0.742-1.061-0.742-1.024 0-2.102 0.602-2.845 1.484-0.69 0.83-1.148 2.172-1.395 3.603h-1.149zm18.595 7.522 2.871-9.082 2.786 9.082h0.638l3.638-11.547 1.02-1h-3.018l0.976 0.979-2.658 8.676-2.573-8.676 0.978-0.979h-3.551l1 1 0.254 0.828-2.403 7.826-2.573-8.676 0.978-0.979h-3.551l1.02 1 3.53 11.547h0.638zm13.34-0.979 0.914-2.658h4.148l0.871 2.658-0.978 0.979h3.551l-0.998-1.022-3.913-11.525h-0.64l-3.978 11.525-1.02 1.022h3.02zm3.021-8.783 1.723 5.189h-3.51zm14.038 6.273c0-1.234-0.575-1.998-1.169-2.404l-2.553-1.85c-0.914-0.658-1.383-1.508-1.383-2.148 0-1.316 1.127-1.785 1.809-1.785 0.36 0 0.615 0.148 0.807 0.148l1.108 1.191 1.17-1.744-2.489-0.467c-0.17-0.043-0.276-0.064-0.595-0.064-2.191 0-3.19 1.871-3.19 3.084 0 0.957 0.488 2.041 1.615 2.869l2.574 1.852c0.701 0.488 0.893 1.211 0.893 1.83 0 1.063-0.659 2.211-2.083 2.211-0.341 0-0.639-0.065-0.874-0.17l-1.191-1.404-1.084 1.957 2.402 0.469s0.405 0.084 0.746 0.084c1.508 0 3.487-1.276 3.487-3.659m5.657-2.806h5.272v5.295l-0.999 1h3.381l-0.999-1v-10.547l0.999-1h-3.381l0.999 1v4.316h-5.272v-4.316l0.998-1h-3.36l0.979 1v10.547l-0.979 1h3.36l-0.998-1zm11.143-6.252 0.999 1v10.547l-0.999 1h3.38l-0.998-1v-10.547l0.998-1zm8.995 11.461v-9.398l6.602 10.488 0.565-4e-3v-11.463l1.085-1.084h-3.275l1.084 1.084v7.975l-5.656-9.059h-2.596l1.064 1.084v10.377l-1.064 1.086h3.276zm18.603-4.614v4.039c-0.298 0.299-0.893 0.895-2.063 0.895-2.786 0-4.189-2.807-4.189-5.508 0-2.723 1.767-5.508 4.189-5.508 0.638 0 1.106 0.148 1.532 0.596l1.382 1.359v-2.168c-0.745-0.383-1.489-0.725-2.914-0.725-3.423 0-5.827 3.063-5.827 6.445 0 3.316 2.404 6.443 5.827 6.443 1.936 0 2.765-0.469 3.446-0.914v-4.955l0.977-1h-3.359zm9.29 4.7v-10.611h2.381l1.341 1.34v-2.275h-8.826v2.275l1.361-1.34h2.36v10.611l-0.978 1h3.358zm5.674-5.274c0 3.189 1.807 6.549 5.019 6.549 3.233 0 5.04-3.359 5.04-6.549 0-3.191-1.807-6.551-5.04-6.551-3.212 0-5.019 3.36-5.019 6.551m5.019 5.592c-2.509 0-3.381-2.998-3.381-5.592 0-2.596 0.872-5.594 3.381-5.594 2.531 0 3.403 2.998 3.403 5.594 0 2.594-0.872 5.592-3.403 5.592m9.694-0.404v-9.398l6.524 10.484h0.642v-11.463l1.085-1.084h-3.276l1.085 1.084v7.975l-5.656-9.059h-2.596l1.063 1.084v10.377l-1.063 1.086h3.277z" style="fill:#fff"/><polygon points="436.45 384.79 439.54 373.14 442.51 384.79 449.01 384.79 453.9 366.17 456.41 366.17 456.41 362 447.46 362 447.46 366.17 450.42 366.17 447.21 378.29 443.21 362 439.09 362 434.72 378.42 431.56 366.17 434.78 366.17 434.78 362 422.67 362 422.67 366.17 425.31 366.17 429.95 384.79" style="fill:#fff"/></g></g><g id="left_small" transform="translate(-367.65 -338.65)" display="none" style="display:none"><g display="inline" style="display:inline"><polygon points="381.89 391.74 383.21 386.76 384.47 391.74 387.25 391.74 389.34 383.78 390.41 383.78 390.41 382 386.59 382 386.59 383.78 387.85 383.78 386.48 388.96 384.77 382 383.01 382 381.14 389.01 379.8 383.78 381.17 383.78 381.17 382 376 382 376 383.78 377.13 383.78 379.11 391.74" style="fill:#fff"/><path d="m394.27 388.75c0 0.867 0.736 1.531 1.643 1.531 0.862 0 1.714-0.637 1.714-1.531v-3.415l0.449-0.456h-1.382l0.458 0.456v3.415c0 0.608-0.484 1.092-1.095 1.092-0.619 0-1.167-0.475-1.167-1.092v-3.415l0.458-0.456h-1.534l0.457 0.456v3.415zm5.958 0.957v-3.96l2.841 4.417h0.185v-4.829l0.457-0.456h-1.382l0.458 0.456v3.36l-2.387-3.816h-1.096l0.449 0.456v4.372l-0.449 0.457h1.383zm4.927-4.828 0.421 0.421v4.444l-0.421 0.42h1.427l-0.423-0.42v-4.444l0.423-0.421zm4.11 0h-1.498l0.43 0.421 1.49 4.864h0.27l1.534-4.864 0.431-0.421h-1.274l0.413 0.412-1.122 3.654-1.086-3.654zm6.864 5.285v-0.967l-0.566 0.572h-1.605v-2.222h1.193l0.422 0.421v-1.235l-0.422 0.421h-1.193v-1.882h1.605l0.566 0.564v-0.958h-3.167l0.412 0.421v4.444l-0.412 0.42h3.167zm2.378-0.42v-2.044h0.799l1.283 2.464h0.879l-0.412-0.42-1.185-2.169c0.593-0.18 0.996-0.735 0.996-1.236 0-0.896-0.835-1.46-1.714-1.46h-1.642l0.412 0.421v4.444l-0.412 0.42h1.417zm0-4.471h0.647c0.565 0 1.014 0.483 1.014 1.057 0 0.547-0.457 0.977-1.014 0.977h-0.647zm6.803 3.422c0-0.52-0.242-0.843-0.494-1.013l-1.076-0.779c-0.387-0.277-0.584-0.636-0.584-0.905 0-0.555 0.476-0.753 0.763-0.753 0.153 0 0.26 0.063 0.341 0.063l0.467 0.502 0.494-0.734-1.051-0.197c-0.071-0.019-0.116-0.027-0.251-0.027-0.925 0-1.346 0.788-1.346 1.299 0 0.403 0.206 0.86 0.683 1.21l1.084 0.778c0.297 0.207 0.378 0.512 0.378 0.771 0 0.447-0.278 0.932-0.879 0.932-0.144 0-0.27-0.027-0.368-0.072l-0.503-0.59-0.458 0.822 1.013 0.199s0.172 0.035 0.315 0.035c0.637 0 1.472-0.537 1.472-1.541m1.534-3.816 0.421 0.421v4.444l-0.421 0.42h1.427l-0.422-0.42v-4.444l0.422-0.421zm4.801 4.865v-4.472h1.005l0.565 0.564v-0.958h-3.724v0.958l0.574-0.564h0.996v4.472l-0.414 0.42h1.418zm2.791-4.444 1.336 2.41v2.034l-0.421 0.42h1.426l-0.421-0.42v-2.034l1.364-2.401 0.439-0.43h-1.311l0.413 0.412-1.112 1.98-1.059-1.98 0.412-0.412h-1.498zm8.945 1.517c-0.194 0-0.5 0.089-0.806 0.268-0.514 0.305-1.073 0.997-1.073 2.04 0 0.522 0.246 1.102 0.939 1.102 0.328 0 0.798-0.217 1.11-0.498 0.492-0.447 0.783-1.215 0.783-1.877 1e-3 -0.619-0.327-1.035-0.953-1.035m-1.276 2.128c0-1.102 0.56-1.696 0.791-1.793 0.066-0.03 0.17-0.06 0.246-0.06 0.372 0 0.588 0.282 0.588 0.856 0.015 0.967-0.491 1.846-0.805 1.949-0.06 0.021-0.156 0.053-0.232 0.053-0.416 1e-3 -0.588-0.446-0.588-1.005m3.355-1.949-0.201 0.193 0.022 0.074h0.619c-0.098 0.67-0.187 1.25-0.328 2.189-0.201 1.391-0.372 1.883-0.515 2-0.045 0.045-0.119 0.068-0.186 0.068-0.09 0-0.232-0.068-0.329-0.113-0.089-0.043-0.163 8e-3 -0.208 0.053-0.06 0.068-0.127 0.172-0.127 0.254 0 0.148 0.193 0.223 0.32 0.223 0.143 0 0.499-0.119 0.821-0.514 0.253-0.313 0.596-1.033 0.887-2.717 0.052-0.313 0.111-0.625 0.238-1.443l0.76-0.074 0.164-0.193h-0.88c0.225-1.377 0.41-1.794 0.732-1.794 0.224 0 0.409 0.09 0.573 0.246 0.053 0.052 0.135 0.052 0.209-8e-3 0.06-0.052 0.149-0.172 0.149-0.275 8e-3 -0.148-0.194-0.313-0.447-0.313-0.433 0-0.888 0.253-1.2 0.625-0.291 0.35-0.485 0.915-0.589 1.518h-0.484zm8.46 3.168 1.212-3.825 1.176 3.825h0.268l1.535-4.864 0.431-0.421h-1.275l0.412 0.412-1.121 3.654-1.086-3.654 0.413-0.412h-1.499l0.422 0.421 0.107 0.35-1.014 3.296-1.085-3.654 0.411-0.412h-1.498l0.431 0.421 1.489 4.864h0.271zm5.63-0.412 0.386-1.119h1.749l0.369 1.119-0.413 0.412h1.498l-0.421-0.43-1.651-4.855h-0.27l-1.678 4.855-0.431 0.43h1.274zm1.274-3.7 0.727 2.186h-1.48zm5.924 2.643c0-0.52-0.243-0.843-0.494-1.013l-1.077-0.779c-0.386-0.277-0.583-0.636-0.583-0.905 0-0.555 0.476-0.753 0.763-0.753 0.153 0 0.261 0.063 0.341 0.063l0.466 0.502 0.494-0.734-1.05-0.197c-0.071-0.019-0.116-0.027-0.251-0.027-0.925 0-1.346 0.788-1.346 1.299 0 0.403 0.206 0.86 0.682 1.21l1.087 0.778c0.296 0.207 0.376 0.512 0.376 0.771 0 0.447-0.278 0.932-0.879 0.932-0.143 0-0.27-0.027-0.369-0.072l-0.502-0.59-0.458 0.822 1.014 0.199s0.171 0.035 0.314 0.035c0.637 0 1.472-0.537 1.472-1.541m2.386-1.183h2.225v2.232l-0.421 0.42h1.427l-0.422-0.42v-4.444l0.422-0.421h-1.427l0.421 0.421v1.818h-2.225v-1.818l0.422-0.421h-1.418l0.413 0.421v4.444l-0.413 0.42h1.418l-0.422-0.42zm4.703-2.633 0.421 0.421v4.444l-0.421 0.42h1.426l-0.421-0.42v-4.444l0.421-0.421zm3.795 4.828v-3.96l2.785 4.419 0.238-2e-3v-4.829l0.459-0.456h-1.382l0.458 0.456v3.36l-2.389-3.816h-1.094l0.448 0.456v4.372l-0.448 0.457h1.381zm7.85-1.943v1.703c-0.125 0.125-0.376 0.375-0.87 0.375-1.176 0-1.768-1.182-1.768-2.32 0-1.147 0.743-2.32 1.768-2.32 0.269 0 0.466 0.063 0.645 0.251l0.584 0.573v-0.914c-0.313-0.161-0.628-0.305-1.229-0.305-1.445 0-2.459 1.29-2.459 2.715 0 1.398 1.014 2.715 2.459 2.715 0.816 0 1.166-0.197 1.454-0.385v-2.088l0.411-0.421h-1.418zm4.227 1.98v-4.472h1.005l0.565 0.564v-0.958h-3.724v0.958l0.574-0.564h0.996v4.472l-0.413 0.42h1.418zm2.701-2.222c0 1.344 0.762 2.76 2.118 2.76 1.363 0 2.126-1.416 2.126-2.76 0-1.345-0.763-2.759-2.126-2.759-1.356 0-2.118 1.414-2.118 2.759m2.118 2.355c-1.06 0-1.428-1.264-1.428-2.355 0-1.093 0.368-2.356 1.428-2.356 1.067 0 1.435 1.264 1.435 2.356 0 1.091-0.367 2.355-1.435 2.355m4.397-0.17v-3.96l2.753 4.417h0.271v-4.829l0.458-0.456h-1.381l0.457 0.456v3.36l-2.388-3.816h-1.095l0.449 0.456v4.372l-0.449 0.457h1.382z" style="fill:#fff"/></g></g><g id="left_large" transform="translate(-367.65 -338.65)" display="none" style="display:none"><g display="inline" style="display:inline"><path d="m336.41 390.31c0 1.973 1.671 3.479 3.73 3.479 1.957 0 3.893-1.445 3.893-3.479v-7.753l1.019-1.037h-3.138l1.039 1.037v7.753c0 1.383-1.101 2.482-2.486 2.482-1.406 0-2.65-1.079-2.65-2.482v-7.753l1.04-1.037h-3.485l1.039 1.037v7.753zm13.533 2.176v-8.994l6.452 10.03h0.417v-10.966l1.04-1.037h-3.139l1.04 1.037v7.63l-5.421-8.667h-2.487l1.02 1.037v9.93l-1.02 1.037h3.14zm11.19-10.966 0.958 0.957v10.091l-0.958 0.956h3.242l-0.958-0.956v-10.091l0.958-0.957zm9.335 0h-3.403l0.978 0.957 3.383 11.047h0.612l3.486-11.047 0.978-0.957h-2.895l0.938 0.936-2.548 8.301-2.467-8.301zm15.593 12.004v-2.197l-1.284 1.303h-3.649v-5.046h2.711l0.958 0.955v-2.807l-0.958 0.956h-2.711v-4.273h3.649l1.284 1.281v-2.176h-7.194l0.937 0.957v10.091l-0.937 0.956zm5.401-0.956v-4.639h1.814l2.914 5.595h1.998l-0.938-0.956-2.691-4.924c1.346-0.407 2.263-1.669 2.263-2.809 0-2.034-1.895-3.315-3.893-3.315h-3.728l0.936 0.957v10.091l-0.936 0.956h3.219zm0-10.154h1.467c1.285 0 2.304 1.099 2.304 2.4 0 1.242-1.04 2.218-2.304 2.218h-1.467zm15.451 7.773c0-1.18-0.552-1.912-1.123-2.299l-2.444-1.77c-0.876-0.63-1.325-1.444-1.325-2.055 0-1.262 1.08-1.71 1.73-1.71 0.349 0 0.592 0.143 0.776 0.143l1.058 1.141 1.123-1.669-2.386-0.447c-0.163-0.042-0.264-0.061-0.571-0.061-2.098 0-3.056 1.79-3.056 2.95 0 0.915 0.468 1.954 1.55 2.747l2.465 1.77c0.672 0.468 0.856 1.16 0.856 1.751 0 1.017-0.631 2.115-1.996 2.115-0.327 0-0.612-0.061-0.837-0.162l-1.143-1.343-1.037 1.871 2.302 0.449s0.388 0.08 0.715 0.08c1.447-1e-3 3.343-1.222 3.343-3.501m3.484-8.667 0.958 0.957v10.091l-0.958 0.956h3.241l-0.959-0.956v-10.091l0.959-0.957zm10.906 11.048v-10.153h2.282l1.283 1.281v-2.176h-8.459v2.176l1.305-1.281h2.263v10.153l-0.939 0.956h3.222zm6.339-10.091 3.035 5.473v4.618l-0.957 0.956h3.238l-0.955-0.956v-4.618l3.098-5.454 0.999-0.976h-2.978l0.939 0.936-2.528 4.497-2.404-4.497 0.938-0.936h-3.405zm20.316 3.445c-0.439 0-1.135 0.203-1.829 0.609-1.167 0.692-2.438 2.265-2.438 4.631 0 1.184 0.558 2.502 2.133 2.502 0.746 0 1.813-0.49 2.525-1.132 1.117-1.015 1.777-2.756 1.777-4.261 0-1.403-0.745-2.349-2.168-2.349m-2.897 4.834c0-2.501 1.272-3.853 1.797-4.073 0.152-0.067 0.387-0.135 0.56-0.135 0.846 0 1.336 0.642 1.336 1.943 0.032 2.197-1.117 4.192-1.828 4.429-0.136 0.051-0.355 0.119-0.525 0.119-0.95 0-1.34-1.014-1.34-2.283m7.622-4.428-0.457 0.439 0.051 0.169h1.406c-0.222 1.522-0.424 2.84-0.745 4.97-0.457 3.161-0.847 4.277-1.17 4.547-0.101 0.102-0.271 0.152-0.422 0.152-0.204 0-0.526-0.152-0.746-0.255-0.202-0.101-0.371 0.018-0.474 0.12-0.137 0.151-0.288 0.388-0.288 0.573 0 0.339 0.44 0.508 0.729 0.508 0.322 0 1.133-0.27 1.864-1.166 0.574-0.71 1.352-2.35 2.014-6.17 0.118-0.71 0.253-1.42 0.542-3.279l1.727-0.169 0.373-0.439h-1.999c0.509-3.128 0.932-4.073 1.659-4.073 0.509 0 0.932 0.202 1.305 0.558 0.119 0.117 0.306 0.117 0.475-0.018 0.134-0.118 0.338-0.39 0.338-0.626 0.019-0.337-0.44-0.709-1.016-0.709-0.983 0-2.017 0.574-2.728 1.42-0.658 0.794-1.1 2.078-1.338 3.448zm19.215 7.196 2.751-8.689 2.671 8.689h0.611l3.485-11.047 0.979-0.957h-2.893l0.936 0.936-2.547 8.301-2.467-8.301 0.937-0.936h-3.405l0.958 0.957 0.246 0.793-2.303 7.486-2.465-8.301 0.935-0.936h-3.402l0.978 0.957 3.382 11.047h0.613zm12.787-0.937 0.876-2.543h3.974l0.837 2.543-0.936 0.936h3.403l-0.957-0.978-3.75-11.026h-0.612l-3.813 11.026-0.977 0.978h2.893zm2.893-8.402 1.652 4.965h-3.363zm13.455 6.002c0-1.18-0.55-1.912-1.122-2.299l-2.444-1.77c-0.877-0.63-1.325-1.444-1.325-2.055 0-1.262 1.081-1.71 1.732-1.71 0.348 0 0.592 0.143 0.775 0.143l1.057 1.141 1.122-1.669-2.383-0.447c-0.164-0.042-0.265-0.061-0.571-0.061-2.1 0-3.057 1.79-3.057 2.95 0 0.915 0.468 1.954 1.548 2.747l2.468 1.77c0.673 0.468 0.855 1.16 0.855 1.751 0 1.017-0.632 2.115-1.997 2.115-0.327 0-0.613-0.061-0.837-0.162l-1.141-1.343-1.039 1.871 2.304 0.449s0.386 0.08 0.713 0.08c1.447-1e-3 3.342-1.222 3.342-3.501m5.421-2.686h5.056v5.067l-0.957 0.956h3.24l-0.957-0.956v-10.091l0.957-0.957h-3.24l0.957 0.957v4.13h-5.056v-4.13l0.958-0.957h-3.22l0.939 0.957v10.091l-0.939 0.956h3.22l-0.958-0.956zm10.682-5.981 0.957 0.957v10.091l-0.957 0.956h3.238l-0.956-0.956v-10.091l0.956-0.957zm8.621 10.966v-8.994l6.326 10.036 0.541-6e-3v-10.966l1.041-1.037h-3.139l1.039 1.037v7.63l-5.422-8.667h-2.487l1.021 1.037v9.93l-1.021 1.037h3.14zm17.83-4.415v3.866c-0.284 0.284-0.854 0.854-1.975 0.854-2.671 0-4.015-2.686-4.015-5.27 0-2.605 1.688-5.27 4.015-5.27 0.61 0 1.058 0.143 1.465 0.569l1.327 1.303v-2.076c-0.713-0.367-1.428-0.691-2.792-0.691-3.283 0-5.585 2.93-5.585 6.165 0 3.174 2.302 6.165 5.585 6.165 1.854 0 2.649-0.448 3.3-0.875v-4.74l0.938-0.956h-3.221zm9.6 4.497v-10.153h2.283l1.283 1.281v-2.176h-8.458v2.176l1.305-1.281h2.261v10.153l-0.937 0.956h3.221zm6.135-5.046c0 3.052 1.732 6.267 4.81 6.267 3.098 0 4.83-3.216 4.83-6.267 0-3.053-1.732-6.267-4.83-6.267-3.077 0-4.81 3.214-4.81 6.267m4.811 5.351c-2.405 0-3.24-2.87-3.24-5.352 0-2.483 0.835-5.352 3.24-5.352 2.426 0 3.261 2.869 3.261 5.352 0 2.482-0.835 5.352-3.261 5.352m9.986-0.387v-8.994l6.255 10.03h0.613v-10.966l1.041-1.037h-3.139l1.039 1.037v7.63l-5.422-8.667h-2.486l1.019 1.037v9.93l-1.019 1.037h3.138z" style="fill:#fff"/><polygon points="308.29 396.98 311.27 385.74 314.12 396.98 320.4 396.98 325.11 379.02 327.54 379.02 327.54 375 318.9 375 318.9 379.02 321.76 379.02 318.66 390.71 314.81 375 310.83 375 306.61 390.83 303.57 379.02 306.67 379.02 306.67 375 295 375 295 379.02 297.55 379.02 302.02 396.98" style="fill:#fff"/></g></g><g id="stacked_small" transform="translate(-367.65 -338.65)" display="none" style="display:none"><g display="inline" style="display:inline"><path d="m411 390.43c0 0.963 0.814 1.697 1.816 1.697 0.952 0 1.895-0.705 1.895-1.697v-3.781l0.496-0.506h-1.528l0.507 0.506v3.781c0 0.676-0.536 1.211-1.211 1.211-0.685 0-1.29-0.525-1.29-1.211v-3.781l0.506-0.506h-1.697l0.506 0.506zm6.838 1.062v-4.387l3.155 4.904h0.189v-5.361l0.505-0.506h-1.527l0.505 0.506v3.721l-2.639-4.227h-1.211l0.496 0.506v4.844l-0.496 0.506h1.529zm5.696-5.349 0.466 0.467v4.922l-0.466 0.467h1.577l-0.466-0.467v-4.922l0.466-0.467zm4.793 0h-1.658l0.477 0.467 1.648 5.389h0.297l1.697-5.389 0.477-0.467h-1.409l0.456 0.457-1.24 4.049-1.201-4.049zm7.84 5.855v-1.072l-0.626 0.637h-1.776v-2.463h1.32l0.467 0.467v-1.369l-0.467 0.467h-1.32v-2.084h1.776l0.626 0.625v-1.063h-3.504l0.457 0.467v4.922l-0.457 0.467h3.504zm2.877-0.467v-2.264h0.884l1.419 2.73h0.973l-0.457-0.467-1.31-2.402c0.655-0.197 1.102-0.813 1.102-1.369 0-0.992-0.923-1.617-1.896-1.617h-1.816l0.457 0.467v4.922l-0.457 0.467h1.568zm0-4.951h0.715c0.625 0 1.121 0.535 1.121 1.17 0 0.605-0.506 1.082-1.121 1.082h-0.715zm7.77 3.789c0-0.574-0.268-0.932-0.546-1.121l-1.19-0.863c-0.427-0.307-0.646-0.705-0.646-1.002 0-0.615 0.526-0.833 0.844-0.833 0.169 0 0.288 0.069 0.377 0.069l0.516 0.556 0.546-0.814-1.16-0.219c-0.08-0.02-0.129-0.029-0.278-0.029-1.022 0-1.489 0.873-1.489 1.439 0 0.445 0.228 0.951 0.755 1.34l1.2 0.861c0.328 0.23 0.417 0.568 0.417 0.855 0 0.496-0.308 1.031-0.973 1.031-0.158 0-0.297-0.031-0.406-0.078l-0.556-0.656-0.507 0.912 1.122 0.219s0.188 0.039 0.347 0.039c0.705 1e-3 1.627-0.595 1.627-1.706m1.946-4.226 0.466 0.467v4.922l-0.466 0.467h1.577l-0.466-0.467v-4.922l0.466-0.467zm5.556 5.388v-4.951h1.111l0.625 0.625v-1.063h-4.118v1.063l0.636-0.625h1.101v4.951l-0.456 0.467h1.568zm3.334-4.922 1.479 2.67v2.252l-0.467 0.467h1.578l-0.467-0.467v-2.252l1.508-2.66 0.486-0.477h-1.448l0.456 0.457-1.23 2.193-1.171-2.193 0.457-0.457h-1.657zm8.887 1.692c-0.214 0-0.551 0.1-0.888 0.297-0.568 0.338-1.184 1.103-1.184 2.254 0 0.576 0.271 1.217 1.036 1.217 0.361 0 0.88-0.238 1.226-0.551 0.543-0.492 0.863-1.34 0.863-2.072 0-0.682-0.362-1.145-1.053-1.145m-1.406 2.353c0-1.217 0.617-1.875 0.871-1.982 0.074-0.033 0.19-0.066 0.272-0.066 0.411 0 0.65 0.313 0.65 0.947 0.017 1.068-0.543 2.039-0.889 2.154-0.065 0.025-0.173 0.057-0.255 0.057-0.46 0-0.649-0.492-0.649-1.11m3.696-2.156-0.223 0.215 0.024 0.084h0.683c-0.106 0.738-0.205 1.381-0.361 2.416-0.222 1.539-0.412 2.082-0.567 2.213-0.05 0.051-0.132 0.074-0.206 0.074-0.099 0-0.255-0.074-0.362-0.123-0.099-0.049-0.181 8e-3 -0.229 0.057-0.066 0.076-0.141 0.189-0.141 0.279 0 0.166 0.214 0.248 0.354 0.248 0.155 0 0.551-0.131 0.904-0.568 0.279-0.346 0.658-1.143 0.979-3 0.058-0.346 0.124-0.691 0.264-1.596l0.839-0.084 0.181-0.215h-0.971c0.247-1.52 0.452-1.98 0.807-1.98 0.246 0 0.451 0.099 0.633 0.271 0.058 0.057 0.148 0.057 0.23-9e-3 0.065-0.058 0.165-0.189 0.165-0.304 8e-3 -0.165-0.214-0.346-0.494-0.346-0.477 0-0.979 0.279-1.324 0.69-0.321 0.387-0.535 1.013-0.649 1.677h-0.536z" style="fill:#fff"/><path d="m407.25 404.21 1.801-5.695 1.747 5.695h0.399l2.282-7.242 0.64-0.627h-1.893l0.612 0.615-1.666 5.441-1.614-5.441 0.613-0.615h-2.228l0.628 0.627 0.159 0.52-1.507 4.91-1.613-5.441 0.612-0.615h-2.226l0.64 0.627 2.214 7.242h0.4zm7.823-0.613 0.574-1.666h2.601l0.547 1.666-0.613 0.613h2.228l-0.628-0.641-2.453-7.229h-0.4l-2.494 7.229-0.641 0.641h1.895zm1.895-5.508 1.08 3.254h-2.2zm8.604 3.934c0-0.774-0.361-1.254-0.733-1.508l-1.602-1.158c-0.573-0.414-0.866-0.949-0.866-1.348 0-0.828 0.706-1.121 1.134-1.121 0.227 0 0.387 0.094 0.507 0.094l0.693 0.746 0.733-1.092-1.561-0.295c-0.105-0.027-0.172-0.039-0.372-0.039-1.374 0-2.001 1.172-2.001 1.934 0 0.6 0.307 1.279 1.014 1.799l1.613 1.162c0.44 0.307 0.56 0.76 0.56 1.146 0 0.668-0.414 1.389-1.307 1.389-0.214 0-0.4-0.041-0.547-0.109l-0.748-0.879-0.68 1.228 1.508 0.293s0.253 0.053 0.467 0.053c0.947-1e-3 2.188-0.799 2.188-2.295m3.347-1.76h3.308v3.32l-0.626 0.627h2.121l-0.628-0.627v-6.615l0.628-0.627h-2.121l0.626 0.627v2.709h-3.308v-2.709l0.627-0.627h-2.106l0.613 0.627v6.615l-0.613 0.627h2.106l-0.627-0.627zm12.575 3.267v-5.895l4.186 6.57 0.31 4e-3v-7.188l0.681-0.682h-2.054l0.68 0.682v5l-3.548-5.682h-1.628l0.667 0.682v6.508l-0.667 0.68h2.055zm11.235-2.894v2.533c-0.186 0.188-0.56 0.563-1.293 0.563-1.747 0-2.628-1.762-2.628-3.455 0-1.709 1.107-3.455 2.628-3.455 0.4 0 0.693 0.094 0.96 0.373l0.867 0.853v-1.359c-0.467-0.24-0.934-0.453-1.827-0.453-2.147 0-3.655 1.92-3.655 4.041 0 2.08 1.508 4.041 3.655 4.041 1.214 0 1.733-0.295 2.16-0.574v-3.107l0.614-0.627h-2.107zm5.739 2.947v-6.656h1.494l0.841 0.842v-1.428h-5.536v1.428l0.855-0.842h1.48v6.656l-0.614 0.627h2.107zm3.127-3.307c0 2 1.134 4.107 3.147 4.107 2.027 0 3.161-2.107 3.161-4.107 0-2.002-1.134-4.107-3.161-4.107-2.014 0-3.147 2.105-3.147 4.107m3.147 3.508c-1.573 0-2.121-1.883-2.121-3.508 0-1.629 0.548-3.508 2.121-3.508 1.587 0 2.134 1.879 2.134 3.508 0 1.625-0.547 3.508-2.134 3.508m5.991-0.254v-5.895l4.164 6.578h0.331v-7.191l0.68-0.682h-2.054l0.68 0.682v5l-3.547-5.682h-1.628l0.667 0.682v6.508l-0.667 0.68h2.055z" style="fill:#fff"/><polygon points="437.97 404.21 437.34 403.58 437.34 396.97 437.97 396.34 435.85 396.34 436.48 396.97 436.48 403.58 435.85 404.21" style="fill:#fff"/><polygon points="437.83 379.85 439.3 374.3 440.71 379.85 443.81 379.85 446.14 370.98 447.33 370.98 447.33 369 443.07 369 443.07 370.98 444.48 370.98 442.95 376.75 441.05 369 439.09 369 437.01 376.81 435.51 370.98 437.04 370.98 437.04 369 431.28 369 431.28 370.98 432.54 370.98 434.74 379.85" style="fill:#fff"/></g></g><g id="bothell_stacked_large" transform="matrix(.85049 0 0 .85049 -315.47 -276.75)" style="stroke-width:1.1758"><g style="stroke-width:1.1758"><g style="stroke-width:1.1758"><path d="m560.36 374.46-0.555 0.532 0.063 0.205h1.699c-0.267 1.843-0.513 3.439-0.901 6.018-0.552 3.829-1.024 5.181-1.412 5.508-0.123 0.123-0.328 0.184-0.512 0.184-0.246 0-0.634-0.184-0.901-0.307-0.246-0.122-0.451 0.021-0.573 0.143-0.163 0.186-0.349 0.472-0.349 0.697 0 0.409 0.533 0.614 0.881 0.614 0.389 0 1.371-0.328 2.252-1.412 0.696-0.861 1.639-2.847 2.437-7.474 0.144-0.86 0.308-1.72 0.655-3.972l2.088-0.205 0.45-0.532h-2.416c0.614-3.787 1.126-4.934 2.007-4.934 0.614 0 1.125 0.245 1.576 0.676 0.144 0.142 0.369 0.142 0.573-0.022 0.164-0.143 0.41-0.471 0.41-0.757 0.019-0.409-0.532-0.86-1.229-0.86-1.188 0-2.436 0.697-3.297 1.721-0.799 0.962-1.331 2.518-1.616 4.176h-1.33zm-9.201 5.363c0-3.028 1.536-4.667 2.17-4.934 0.185-0.081 0.473-0.163 0.677-0.163 1.023 0 1.617 0.777 1.617 2.354 0.041 2.66-1.351 5.077-2.211 5.363-0.164 0.063-0.431 0.144-0.635 0.144-1.145 1e-3 -1.618-1.227-1.618-2.764m3.502-5.854c-0.532 0-1.372 0.245-2.211 0.737-1.413 0.84-2.948 2.743-2.948 5.609 0 1.433 0.676 3.03 2.579 3.03 0.9 0 2.191-0.594 3.051-1.371 1.352-1.23 2.149-3.338 2.149-5.16 0-1.699-0.9-2.845-2.62-2.845m-22.12-4.214 3.681 6.645v5.607l-1.16 1.16h3.927l-1.161-1.16v-5.607l3.754-6.62 1.211-1.186h-3.607l1.137 1.136-3.063 5.46-2.915-5.46 1.138-1.136h-4.126zm-8.3 12.253v-12.326h2.767l1.557 1.556v-2.643h-10.251v2.643l1.582-1.556h2.74v12.326l-1.137 1.16h3.903zm-13.832-13.413 1.16 1.16v12.253l-1.16 1.16h3.927l-1.16-1.16v-12.253l1.16-1.16zm-4.841 10.522c0-1.433-0.667-2.322-1.359-2.791l-2.964-2.149c-1.063-0.765-1.605-1.754-1.605-2.495 0-1.531 1.31-2.074 2.1-2.074 0.42 0 0.717 0.173 0.938 0.173l1.285 1.384 1.359-2.026-2.89-0.543c-0.198-0.05-0.321-0.074-0.692-0.074-2.545 0-3.705 2.174-3.705 3.582 0 1.11 0.568 2.371 1.877 3.334l2.988 2.149c0.815 0.568 1.038 1.408 1.038 2.124 0 1.235-0.766 2.569-2.421 2.569-0.395 0-0.74-0.075-1.013-0.198l-1.384-1.63-1.26 2.272 2.793 0.543s0.469 0.1 0.863 0.1c1.754-1e-3 4.052-1.483 4.052-4.25m-19.341-9.435h1.777c1.558 0 2.792 1.334 2.792 2.914 0 1.507-1.26 2.692-2.792 2.692h-1.777zm0 12.326v-5.633h2.197l3.533 6.793h2.421l-1.137-1.16-3.26-5.979c1.63-0.494 2.742-2.025 2.742-3.408 0-2.471-2.298-4.026-4.72-4.026h-4.52l1.136 1.16v12.253l-1.136 1.16h3.902zm-7.164 1.16v-2.668l-1.556 1.581h-4.422v-6.126h3.285l1.161 1.161v-3.408l-1.161 1.161h-3.285v-5.187h4.422l1.556 1.556v-2.643h-8.719l1.136 1.16v12.253l-1.136 1.16zm-19.513-14.573h-4.125l1.186 1.16 4.102 13.413h0.74l4.225-13.413 1.186-1.16h-3.508l1.137 1.136-3.088 10.078-2.989-10.078zm-11.93 0 1.16 1.16v12.253l-1.16 1.16h3.926l-1.16-1.16v-12.253l1.16-1.16zm-14.179 13.313v-10.918l7.854 12.204h0.47v-13.341l1.259-1.259h-3.803l1.259 1.259v9.264l-6.569-10.522h-3.014l1.234 1.259v12.055l-1.234 1.26h3.805zm-17.019-2.642c0 2.396 2.026 4.224 4.521 4.224 2.371 0 4.719-1.753 4.719-4.224v-9.412l1.234-1.259h-3.804l1.259 1.259v9.412c0 1.68-1.334 3.014-3.014 3.014-1.703 0-3.21-1.309-3.21-3.014v-9.412l1.259-1.259h-4.224l1.26 1.259z" style="fill:#332a86;stroke-width:1.1758"/><path d="m565.12 411.88v-14.674l10.365 16.378h0.823v-17.905l1.694-1.694h-5.113l1.693 1.693v12.45l-8.83-14.143h-4.052l1.661 1.693v16.201l-1.661 1.693h5.114zm-14.913 0.631c-3.916 0-5.278-4.682-5.278-8.73 0-4.052 1.362-8.733 5.278-8.733 3.951 0 5.313 4.682 5.313 8.733 0 4.048-1.362 8.73-5.313 8.73m-7.835-8.731c0 4.979 2.822 10.225 7.835 10.225 5.046 0 7.869-5.246 7.869-10.225 0-4.981-2.823-10.227-7.869-10.227-5.013 1e-3 -7.835 5.246-7.835 10.227m-7.781 8.233v-16.566h3.719l2.092 2.092v-3.553h-13.78v3.553l2.126-2.092h3.685v16.566l-1.527 1.561h5.246zm-14.283-7.337v6.309c-0.463 0.465-1.394 1.395-3.219 1.395-4.35 0-6.541-4.383-6.541-8.599 0-4.25 2.755-8.6 6.541-8.6 0.995 0 1.725 0.232 2.389 0.93l2.159 2.124v-3.386c-1.162-0.598-2.324-1.129-4.548-1.129-5.346 0-9.099 4.781-9.099 10.061 0 5.179 3.753 10.059 9.099 10.059 3.02 0 4.314-0.73 5.377-1.428v-7.735l1.527-1.56h-5.245zm-27.967 7.204v-14.674l10.418 16.359 0.771 5e-3 1e-3 -17.892 1.692-1.693h-5.112l1.692 1.693v12.45l-8.831-14.143h-4.051l1.659 1.693v16.201l-1.659 1.693h5.113zm-31.301-8.134h8.233v8.267l-1.56 1.561h5.278l-1.56-1.561v-16.467l1.56-1.56h-5.278l1.56 1.56v6.74h-8.233v-6.74l1.561-1.56h-5.245l1.527 1.56v16.467l-1.527 1.561h5.245l-1.561-1.561zm-8.332 4.383c0-1.926-0.897-3.121-1.826-3.753l-3.984-2.888c-1.427-1.028-2.158-2.357-2.158-3.352 0-2.059 1.76-2.79 2.822-2.79 0.564 0 0.963 0.233 1.262 0.233l1.726 1.859 1.826-2.723-3.885-0.73c-0.265-0.066-0.43-0.1-0.929-0.1-3.42 0-4.98 2.922-4.98 4.813 0 1.494 0.763 3.188 2.522 4.483l4.018 2.889c1.096 0.763 1.395 1.893 1.395 2.855 0 1.659-1.029 3.453-3.254 3.453-0.531 0-0.995-0.101-1.361-0.267l-1.859-2.19-1.692 3.054 3.752 0.73s0.63 0.133 1.161 0.133c2.355 1e-3 5.444-1.99 5.444-5.709m-21.418-9.795 2.69 8.101h-5.478zm-4.714 13.712 1.428-4.149h6.474l1.361 4.149-1.528 1.527h5.546l-1.561-1.594-6.108-17.994h-0.997l-6.208 17.994-1.594 1.594h4.715zm-19.472 1.527 4.481-14.176 4.349 14.176h0.996l5.678-18.027 1.594-1.56h-4.715l1.527 1.527-4.15 13.546-4.018-13.546 1.527-1.527h-5.545l1.561 1.56 0.398 1.294-3.752 12.219-4.017-13.546 1.527-1.527h-5.543l1.594 1.56 5.511 18.027z" style="fill:#332a86;stroke-width:1.1758"/></g><polygon points="481.99 412.01 481.99 395.54 483.55 393.98 478.27 393.98 479.84 395.54 479.84 412.01 478.27 413.57 483.55 413.57" style="fill:#332a86;stroke-width:1.1758"/></g><polygon points="496.42 325.82 496.42 330.79 499.95 330.79 496.11 345.24 491.35 325.82 486.44 325.82 481.22 345.4 477.45 330.79 481.29 330.79 481.29 325.82 466.86 325.82 466.86 330.79 470.01 330.79 475.53 353 483.29 353 486.97 339.1 490.51 353 498.26 353 504.1 330.79 507.09 330.79 507.09 325.82" style="fill:#332a86;stroke-width:1.1745"/></g></svg>
