<svg width="200" height="75" version="1.1" viewBox="0 0 200 75" xmlns="http://www.w3.org/2000/svg"><defs><linearGradient id="linearGradient4147" x1="376.04" x2="645.83" y1="300.26" y2="81.515" gradientTransform="matrix(.16354 0 0 .16354 35.191 .00013212)" gradientUnits="userSpaceOnUse"><stop style="stop-color:#250000" offset="0"/><stop style="stop-color:#934513" offset=".5"/><stop style="stop-color:#ccb334" offset="1"/></linearGradient></defs><path d="m84.897 74.898c-1.2783-0.33477-2.2169-1.2714-2.4859-2.4808-0.11155-0.50144-0.07629-1.3291 0.07606-1.7854 0.27462-0.82244 0.94331-1.6084 1.7034-2.0022 0.64586-0.33457 1.0285-0.41672 1.952-0.419 0.78731-2e-3 1.2679 0.059 1.9529 0.24751 0.23686 0.0652 0.32831 0.0686 0.54361 0.0205 0.44073-0.0986 0.42671-0.13077 0.41149 0.94454l-0.01325 0.93881h-0.43327l-0.21288-0.42287c-0.26373-0.52383-0.58766-0.86339-1.0326-1.0824-0.32322-0.15912-0.34529-0.16282-0.96959-0.16282-0.61757 0-0.64993 5e-3 -0.97186 0.15774-0.59828 0.28339-1.0612 0.83008-1.279 1.5104-0.18946 0.59191-0.19234 1.5455-0.0067 2.2524 0.19082 0.72692 0.702 1.3631 1.3348 1.6613 0.30013 0.14141 0.38632 0.15853 0.87271 0.1734 0.42298 0.0129 0.60334-3e-3 0.83406-0.0747l0.29438-0.0912 0.01276-0.78303c0.01096-0.66713 4.9e-5 -0.80846-0.07359-0.95476-0.117-0.23248-0.35433-0.34327-0.73556-0.34336-0.28168 0-0.30803-9e-3 -0.33523-0.11775-0.01619-0.0647-0.02219-0.16958-0.01325-0.23304l0.01635-0.11538 1.6896-0.0129c0.97873-7e-3 1.7085 6e-3 1.7346 0.0321 0.06744 0.0675-0.01 0.44692-0.09117 0.44692-0.03757 0-0.1579 0.0358-0.26742 0.0797-0.32578 0.13035-0.36185 0.2489-0.38295 1.2585l-0.01822 0.87208-0.13015 0.0667c-0.23867 0.12231-1.0808 0.3709-1.5099 0.44572-0.6376 0.11119-1.9963 0.0967-2.4662-0.0264zm38.962 0.0259c-0.37001-0.0804-0.75558-0.28214-0.93953-0.49165-0.14958-0.17035-0.38851-0.55152-0.96192-1.5345-0.20958-0.35928-0.41366-0.68585-0.45353-0.72571-0.0535-0.0535-0.16421-0.0687-0.42264-0.0582l-0.35016 0.0143-0.0134 0.86974c-0.0181 1.175 0.0448 1.315 0.62869 1.399l0.26783 0.0385v0.44021l-3.7011 0.0126c-2.3995 8e-3 -3.7117-4e-3 -3.7311-0.0359-0.0165-0.0267-0.0179-0.15377-3e-3 -0.28242l0.0269-0.23393 0.40295-0.03c0.24453-0.0182 0.45098-0.0614 0.52513-0.11001 0.13356-0.0875 0.20646-0.3416 0.15216-0.53037-0.0652-0.22684-0.57971-1.5388-0.62694-1.5988-0.0365-0.0463-0.36609-0.0613-1.345-0.0613h-1.2966l-0.0659 0.15945c-0.0363 0.0877-0.18387 0.50793-0.328 0.93384-0.24824 0.73356-0.25812 0.78142-0.18735 0.90766 0.10347 0.1846 0.30097 0.26653 0.70619 0.29299 0.38532 0.0251 0.46933 0.084 0.4681 0.32802-2e-3 0.28417 0.0569 0.27519-1.6952 0.26115l-1.6157-0.013v-0.53968l0.30244-0.0334c0.38092-0.042 0.57349-0.14102 0.7251-0.37277 0.0657-0.10043 0.6384-1.5875 1.2727-3.3046 0.86852-2.3514 1.1569-3.187 1.1682-3.3853l0.0151-0.2633 0.869-0.0134c0.85716-0.0132 0.86994-0.0119 0.93988 0.0981 0.039 0.0613 0.62746 1.5576 1.3077 3.3251 0.68027 1.7675 1.2793 3.2838 1.3311 3.3696 0.1642 0.27162 0.40526 0.44401 0.71301 0.50987 0.15685 0.0336 0.30617 0.0796 0.33181 0.10233 0.16542 0.14658 0.71087-0.0595 0.81571-0.30818 0.10022-0.23765 0.10344-4.698 4e-3 -4.9346-0.0867-0.20551-0.24039-0.30101-0.55782-0.3467l-0.259-0.0373v-0.43749l0.22078-0.0415c0.12143-0.0229 1.0929-0.0455 2.1588-0.0504 1.8792-9e-3 1.9499-6e-3 2.3305 0.10223 0.77651 0.21982 1.2049 0.52112 1.4464 1.0173 0.10154 0.20862 0.11973 0.31871 0.1215 0.73594 2e-3 0.40066-0.0172 0.53221-0.10279 0.71741-0.19833 0.42892-0.60126 0.77677-1.0726 0.92602-0.39428 0.12484-0.39126 0.10893-0.098 0.51773 0.14581 0.20324 0.3803 0.5839 0.52106 0.8459 0.49666 0.92445 0.80714 1.2808 1.1865 1.3619 0.22201 0.0474 0.27928 0.1088 0.27928 0.2992 0 0.13404-0.0248 0.17635-0.12586 0.21478-0.1781 0.0677-0.9214 0.0523-1.2846-0.0266zm-1.5453-3.5278c0.48853-0.26977 0.67391-0.6595 0.64102-1.3476-0.0174-0.36411-0.043-0.46922-0.16941-0.69556-0.28432-0.50912-0.79717-0.72461-1.5816-0.66457-0.22585 0.0173-0.43007 0.0435-0.45383 0.0581-0.0719 0.0445-0.0546 2.6881 0.0182 2.7625 0.0452 0.0462 0.22278 0.0584 0.67461 0.0461 0.5688-0.0154 0.63198-0.027 0.87107-0.15899zm-8.0059-0.19231c0.032-0.0834-0.92009-2.6081-0.98352-2.6081-0.0259 0-0.26394 0.58326-0.52901 1.2961-0.36918 0.99281-0.46717 1.3055-0.4188 1.3362 0.0347 0.022 0.47782 0.0404 0.98462 0.0408 0.72572 6.6e-4 0.92682-0.0132 0.94671-0.065zm-17.887 3.3652c-0.2087-0.20913-1.3019-1.3359-2.4293-2.5039-1.1274-1.168-2.0742-2.1155-2.1039-2.1056-0.08785 0.0293-0.07454 3.8864 0.01406 4.0966 0.08166 0.1936 0.26831 0.29942 0.59673 0.33831l0.24268 0.0287v0.47696h-2.6003v-0.49062h0.18585c0.28816 0 0.61191-0.18626 0.68225-0.3925 0.04213-0.12353 0.05933-0.85633 0.06133-2.6113l0.0028-2.4396-0.14984-0.0775c-0.08239-0.0426-0.25902-0.0904-0.3925-0.10622l-0.24266-0.0288v-0.47883l2.1776 0.0264 2.0219 2.0852c1.1121 1.1468 2.0516 2.0852 2.088 2.0852 0.1 0 0.0965-3.117-4e-3 -3.3547-0.0818-0.19401-0.36841-0.34674-0.65381-0.34841l-0.18394-1e-3v-0.49223l2.6248 0.0262v0.44022l-0.26984 0.0381c-0.29289 0.0414-0.48071 0.15097-0.57576 0.33593-0.046 0.0895-0.0608 0.79309-0.0613 2.9169 0 2.1108-0.0152 2.8135-0.0596 2.8579-0.0324 0.0324-0.17882 0.0589-0.32543 0.0589h-0.26656l-0.37943-0.38024zm-57.669 0.28033c-1.1153-0.17587-2.1032-0.71325-2.7259-1.4828-0.52664-0.65087-0.83531-1.4836-0.83531-2.2537 0-1.6138 1.1237-3.1172 2.777-3.7154 0.67386-0.24382 1.1663-0.31381 1.9821-0.28174 0.71149 0.028 0.85784 0.0537 1.7023 0.29939 0.40187 0.11691 0.47314 0.12469 0.65165 0.0712 0.13424-0.0402 0.21673-0.0438 0.24973-0.0108 0.04547 0.0455 0.1387 1.2698 0.14228 1.8684l0.0016 0.25758h-0.49187l-0.12195-0.27577c-0.31189-0.70524-0.87604-1.2528-1.4883-1.4445-0.42048-0.13165-1.0951-0.1422-1.5065-0.0236-0.89546 0.25822-1.662 1.1223-1.9179 2.1622-0.11605 0.47141-0.11816 1.4115-0.0041 1.8385 0.50196 1.8794 2.371 2.9001 3.9027 2.1314 0.37562-0.18848 0.81789-0.6125 1.1486-1.1011 0.21085-0.31157 0.22126-0.31926 0.45255-0.33414 0.13021-8e-3 0.2573 5e-3 0.28242 0.0304 0.02818 0.0282-0.07866 0.43645-0.27907 1.0663-0.17862 0.56138-0.33603 1.039-0.34983 1.0613-0.01374 0.0223-0.23902 0.0274-0.5005 0.0113-0.33152-0.0205-0.63137-5e-3 -0.99059 0.0516-0.62712 0.0985-1.6863 0.13617-2.081 0.0739zm4.4203 0.0188c-0.05906-0.059-0.03621-0.41166 0.02798-0.43189 0.03372-0.0106 0.17039-0.034 0.30368-0.0519 0.18358-0.0247 0.28175-0.072 0.40477-0.195l0.16241-0.16241v-4.8768l-0.16241-0.16246c-0.12302-0.12303-0.22119-0.17032-0.40477-0.195-0.37165-0.05-0.37235-0.0505-0.35559-0.28241l0.01505-0.20896h3.3853v0.44021l-0.26984 0.0381c-0.14841 0.021-0.32504 0.0786-0.3925 0.12806-0.22937 0.16818-0.24582 0.25875-0.23288 1.2825l0.0121 0.95672h3.2381l0.01341-0.94485c0.01721-1.2203-0.03413-1.3365-0.62864-1.422l-0.26782-0.0385v-0.44021h3.3363v0.43884l-0.22078 0.0375c-0.3368 0.0572-0.48717 0.136-0.57881 0.3033-0.07215 0.13176-0.08578 0.34967-0.09996 1.5999-9e-3 0.79604-0.0016 1.8772 0.01802 2.4025l0.03444 0.95512 0.15666 0.15665c0.11562 0.11562 0.22013 0.16585 0.39901 0.19177 0.13329 0.0193 0.26994 0.0571 0.30368 0.084 0.08192 0.0653 0.07819 0.30523-0.0059 0.37496-0.04789 0.0398-0.53715 0.052-1.7049 0.0428l-1.6378-0.0129v-0.44022l0.26984-0.0381c0.29289-0.0414 0.48071-0.15097 0.57576-0.33592 0.04242-0.0826 0.06082-0.43072 0.06133-1.1605v-1.0426h-3.2872v1.0426c0 0.72979 0.01891 1.078 0.06133 1.1605 0.09505 0.18495 0.28288 0.29453 0.57576 0.33592l0.26984 0.0381v0.44022l-1.6716 0.0129c-0.91938 7e-3 -1.6866-2e-3 -1.7049-0.0204zm8.3271-0.0361c-0.01472-0.0383-0.01966-0.14174-0.01096-0.2298 0.01521-0.15465 0.02643-0.16229 0.3298-0.22389 0.32808-0.0666 0.49882-0.18193 0.62314-0.42088 0.03811-0.0733 0.49833-1.2905 1.0227-2.7049 0.64653-1.7439 0.95831-2.6486 0.96861-2.8106l0.01521-0.23885 0.71258-0.0135c0.52037-0.01 0.73434 3e-3 0.79318 0.0491 0.04432 0.0344 0.54618 1.2726 1.1152 2.7516 1.0931 2.841 1.1326 2.936 1.2975 3.1172 0.21507 0.23646 0.59832 0.34037 0.95759 0.25965 0.27827-0.0625 0.428-0.21139 0.4931-0.4902 0.06331-0.2712 0.34663-3.9302 0.34663-4.4766 0-0.34615-0.01096-0.38926-0.12096-0.47578-0.06651-0.0523-0.23187-0.10985-0.36743-0.12784-0.20829-0.0276-0.2512-0.0515-0.27688-0.15373-0.01671-0.0666-0.01652-0.17623 0-0.24369l0.03078-0.12266h1.1215c0.8375 0 1.1343 0.0155 1.1721 0.0613 0.02783 0.0337 0.46312 0.99965 0.9673 2.1465 0.5042 1.1468 0.93325 2.1026 0.95347 2.124 0.02021 0.0214 0.0592 0.0103 0.08663-0.0245 0.02743-0.0349 0.46448-0.99069 0.97121-2.124 0.50672-1.1333 0.94341-2.0886 0.97041-2.1229 0.03758-0.0477 0.30317-0.0592 1.134-0.0491l1.0849 0.0132v0.21894c0 0.20919-0.0077 0.2209-0.17172 0.26268-0.35909 0.0915-0.43656 0.13957-0.49118 0.30507-0.04095 0.12408-0.02371 0.70279 0.07183 2.4113 0.06916 1.2364 0.13854 2.3307 0.15417 2.4318 0.0436 0.28173 0.15067 0.3769 0.49823 0.4428l0.30664 0.0581v0.4695l-3.2627-0.0258v-0.22011c0-0.15858 0.02057-0.22285 0.07359-0.22993 0.04048-5e-3 0.18206-0.0241 0.31462-0.0417 0.17211-0.0227 0.28082-0.0717 0.38024-0.17106 0.13185-0.13185 0.13921-0.16212 0.13935-0.57228 0-0.53561-0.15003-3.7126-0.17687-3.7407-0.01079-0.0112-0.03161-8e-3 -0.04638 6e-3 -0.01472 0.0148-0.51455 1.1168-1.1106 2.449s-1.1065 2.4509-1.1342 2.486c-0.02775 0.0351-0.11665 0.0572-0.19756 0.0491-0.14406-0.0144-0.16976-0.0647-1.2349-2.4161-0.59825-1.3207-1.1102-2.4088-1.1377-2.418-0.0559-0.0186-0.05894 0.0119-0.21625 2.17-0.06097 0.83652-0.09521 1.6022-0.0761 1.7014 0.05441 0.28248 0.17327 0.39059 0.50155 0.45614l0.29055 0.058v0.4338l-5.7137 0.0254-0.03088-0.12306c-0.01699-0.0677-0.01784-0.17504-2e-3 -0.23858 0.02605-0.10379 0.06504-0.11888 0.3838-0.1485 0.41769-0.0388 0.5791-0.14995 0.5791-0.3987 0-0.15249-0.44675-1.3595-0.54862-1.4822-0.03941-0.0475-0.30527-0.0627-1.0887-0.0621-0.57012 4.9e-4 -1.0628 0.0174-1.0949 0.0378-0.07137 0.0454-0.49717 1.1899-0.53825 1.4467-0.02206 0.13797-0.0077 0.20944 0.05593 0.27982 0.08256 0.0912 0.40467 0.17923 0.76145 0.20802 0.16876 0.0136 0.17172 0.0177 0.17172 0.23464v0.22078l-1.3873 0.013c-1.1619 0.0109-1.3916 2e-3 -1.414-0.0567zm4.2486-3.0925c0-0.0771-0.75764-2.078-0.80463-2.125-0.01619-0.0162-0.04209-0.0168-0.05755-1e-3 -0.05798 0.058-0.79905 2.1185-0.7756 2.1564 0.01341 0.0218 0.38748 0.0396 0.83114 0.0396 0.66439 0 0.80664-0.0123 0.80664-0.0697zm13.365 3.0917c-0.01456-0.0379-0.01936-0.1426-0.01079-0.23264 0.01521-0.15816 0.02479-0.16501 0.28353-0.20199 0.32986-0.0471 0.48008-0.14124 0.57035-0.35729 0.10248-0.24526 0.10248-4.6565 0-4.9018-0.09028-0.21604-0.24047-0.31013-0.57035-0.35728l-0.26782-0.0383-0.0157-0.19004c-0.0087-0.10451 0.0047-0.21036 0.02958-0.23522 0.06255-0.0625 1.6367-0.14074 2.9053-0.1443 1.2195-3e-3 1.6369 0.0578 2.192 0.32136 0.61623 0.29264 0.97996 0.76184 1.1014 1.4207 0.11127 0.60387-0.07659 1.1897-0.52108 1.6249-0.58489 0.57269-1.392 0.77957-2.5968 0.66564-0.4691-0.0444-0.59351-0.0429-0.62821 7e-3 -0.06877 0.0999-0.01521 1.7067 0.06234 1.8695 0.08236 0.17293 0.27532 0.27524 0.58922 0.31242l0.24268 0.0287v0.47696h-1.6697c-1.3886 0-1.6741-0.0116-1.6961-0.0689zm3.8153-3.2445c0.28103-0.0961 0.56024-0.35929 0.6971-0.65721 0.08383-0.18251 0.10298-0.32001 0.10298-0.73936 0-0.58776-0.08179-0.83618-0.37028-1.1247-0.2968-0.2968-0.53362-0.37198-1.1645-0.36965-0.43114 2e-3 -0.56512 0.018-0.60026 0.0736-0.07289 0.11524-0.05941 2.7101 0.01456 2.8069 0.11428 0.1495 0.89542 0.15567 1.3204 0.0104zm1.7287 3.2445c-0.01455-0.0379-0.01936-0.14098-0.01063-0.22904 0.01521-0.15465 0.02643-0.16229 0.3298-0.22389 0.32384-0.0658 0.49911-0.18222 0.61748-0.41034 0.03501-0.0675 0.49529-1.2858 1.0228-2.7075 0.64413-1.7358 0.96413-2.6625 0.97427-2.8211l0.01505-0.23621 0.71258-0.0135c0.52108-0.01 0.73376 3e-3 0.79136 0.0491 0.04332 0.0344 0.55858 1.31 1.145 2.8346 0.58641 1.5246 1.1215 2.8457 1.1891 2.9357 0.15554 0.20716 0.35933 0.33154 0.60839 0.37137l0.19528 0.0312-0.02976 0.46408h-3.4344l-0.01635-0.11538c-0.03963-0.28002 0.01488-0.3341 0.37075-0.36733 0.39276-0.0367 0.57094-0.14579 0.59274-0.36299 0.01472-0.14611-0.36602-1.2413-0.51182-1.4725-0.06867-0.10887-0.08399-0.11038-1.1111-0.10964-0.5728 4.9e-4 -1.0693 0.0184-1.1033 0.04-0.08275 0.0525-0.5514 1.3465-0.5514 1.5225 0 0.0763 0.03896 0.17396 0.08658 0.21706 0.10076 0.0912 0.4466 0.17924 0.71069 0.18096l0.18398 1e-3v0.49062h-1.3753c-1.1358 0-1.3799-0.012-1.4018-0.0689zm4.2489-3.0834c0-0.0691-0.76506-2.0938-0.80706-2.1358-0.01488-0.0148-0.04039-0.0136-0.05675 3e-3 -0.06275 0.0628-0.8015 2.1102-0.77617 2.1512 0.01472 0.0238 0.38969 0.0432 0.83334 0.0432 0.61304 0 0.80664-0.0147 0.80664-0.0614zm20.067 2.9142v-0.23886l0.24268-0.0287c0.13347-0.0158 0.30698-0.062 0.38558-0.10264 0.27511-0.14227 0.2794-0.18368 0.2794-2.7034s-4e-3 -2.5611-0.2794-2.7034c-0.0786-0.0406-0.25212-0.0868-0.38558-0.10264l-0.24268-0.0288v-0.47695h5.6834l0.0275 0.30664c0.0151 0.16865 0.0335 0.51638 0.0407 0.77273l0.0132 0.4661h-0.19507c-0.17427 0-0.19975-0.0157-0.23903-0.14719-0.15012-0.50269-0.19049-0.57394-0.36913-0.65145-0.23898-0.10369-2.3695-0.15492-2.4842-0.0597-0.0608 0.0504-0.0733 0.23574-0.0733 1.0812 0 0.56115 0.0134 1.0552 0.0298 1.0979 0.0257 0.0669 0.15471 0.0776 0.93376 0.0776 1.1724 0 1.2885-0.0433 1.4116-0.52581 0.0587-0.23027 0.0635-0.23466 0.2529-0.23466h0.19304l0.0265 2.189-0.20472-0.0151c-0.20106-0.0149-0.20629-0.0199-0.29179-0.28305-0.14411-0.4435-0.28424-0.4919-1.4251-0.49228-0.66699 0-0.82697 0.0132-0.87711 0.0736-0.0462 0.0557-0.056 0.31599-0.0398 1.0565 0.0287 1.3079-0.0859 1.2006 1.2803 1.1982 1.4145-3e-3 1.6241-0.0757 1.8217-0.63597 0.13463-0.38155 0.14449-0.3925 0.35314-0.3925h0.1909l-0.0137 0.53969c-8e-3 0.29683-0.0297 0.6832-0.0491 0.8586l-0.0353 0.3189-5.9611 0.0253v-0.23887zm26.759 0.16918c-0.0146-0.0379-0.0194-0.1426-0.0108-0.23264 0.0152-0.15816 0.0248-0.16501 0.28355-0.20199 0.32986-0.0471 0.48008-0.14124 0.57034-0.35729 0.10246-0.2452 0.10246-4.6075 0-4.8527-0.0907-0.21711-0.26209-0.32444-0.58005-0.36324l-0.2581-0.0315-0.0149-0.23145c-0.0134-0.20748-3e-3 -0.23402 0.0981-0.25621 0.24922-0.0546 1.9218-0.12562 2.9586-0.12562 2.1228 0 3.0845 0.2615 3.8765 1.0541 0.59012 0.59058 0.87233 1.3051 0.87233 2.2086 0 0.94853-0.27717 1.6215-0.94171 2.2864-0.65204 0.65237-1.263 0.9499-2.2616 1.1013-0.67193 0.10188-4.5534 0.10385-4.5924 2e-3zm4.2754-0.49685c0.45051-0.11578 0.80044-0.31342 1.1368-0.64209 0.56479-0.55182 0.83307-1.3584 0.78139-2.3492-0.066-1.2656-0.67433-2.0876-1.8221-2.4619-0.33506-0.10928-0.50557-0.13143-1.1652-0.15133l-0.77274-0.0233v2.5865c0 2.2894 9e-3 2.6059 0.08 2.7551 0.1318 0.27775 0.33778 0.35123 1.0014 0.35721 0.27446 2e-3 0.589-0.0269 0.76047-0.0709zm4.1144 0.49723c-0.0146-0.0381-0.0195-0.14316-0.011-0.23343 0.015-0.15777 0.0254-0.1653 0.26453-0.19449 0.31506-0.0385 0.44359-0.10782 0.56317-0.30393 0.0909-0.1491 0.0953-0.26529 0.0948-2.5113 0-1.7718-0.0155-2.3842-0.0611-2.4729-0.0969-0.18854-0.29702-0.30575-0.58128-0.34044l-0.26433-0.0323v-0.44156l5.6198-0.0254 0.0417 0.11079c0.0229 0.0609 0.05 0.40885 0.0603 0.77314l0.0186 0.66234-0.1379 0.0158c-0.17488 0.0201-0.27884-0.0654-0.28021-0.23033 0-0.0709-0.0419-0.21892-0.0919-0.32891-0.14535-0.32004-0.23792-0.3397-1.5997-0.3397h-1.1775l-0.0132 1.1395-0.0132 1.1396 0.12516 0.0314c0.0688 0.0173 0.4832 0.0217 0.92082 0.01 1.0858-0.0295 1.1708-0.0708 1.3432-0.65216 0.0376-0.12694 0.0671-0.14718 0.21415-0.14718h0.17054v2.1588l-0.13789 0.0158c-0.17792 0.0204-0.27914-0.0662-0.27914-0.23883 0-0.18561-0.21216-0.42579-0.43291-0.49009-0.10758-0.0313-0.52688-0.0465-1.039-0.0377l-0.8586 0.0148-0.0132 1.036c-0.0178 1.3942-0.1422 1.27 1.2723 1.27 1.4748 0 1.6263-0.0592 1.8512-0.72273 0.0859-0.25368 0.0915-0.25882 0.29853-0.27395l0.21093-0.0154-0.0372 0.60417c-0.0205 0.3323-0.0511 0.71456-0.0681 0.84949l-0.031 0.24531-2.9574 0.0126c-2.5106 0.0108-2.9614 2e-3 -2.984-0.0567zm6.918 4.9e-4c-0.0147-0.0384-0.0197-0.1436-0.0111-0.23387 0.0152-0.15918 0.0237-0.1651 0.28007-0.19639 0.28642-0.035 0.48786-0.1536 0.57746-0.34012 0.0402-0.0837 0.06-0.82854 0.0677-2.5468 6e-3 -1.3357 8e-3 -2.4637 5e-3 -2.5066-8e-3 -0.10229-0.21671-0.19593-0.52157-0.23445l-0.24531-0.031v-0.44157l1.0452-0.0132 1.0452-0.0133 0.2399 0.23403c0.13193 0.12872 1.0595 1.084 2.0612 2.1229s1.853 1.896 1.8917 1.9048c0.11028 0.0248 0.10419-3.2672-6e-3 -3.4811-0.0863-0.16686-0.32787-0.28808-0.5741-0.28808-0.19772 0-0.28124-0.074-0.28124-0.24912 0-0.2363 0.0465-0.2442 1.3553-0.23011l1.2205 0.0131 0.0157 0.19125c0.0182 0.22195-0.0359 0.27301-0.29052 0.27409-0.23563 9.8e-4 -0.49507 0.18119-0.56872 0.39495-0.0425 0.12354-0.0593 0.9312-0.0613 2.9543l-3e-3 2.7842h-0.62499l-0.53136-0.55195c-2.6072-2.7082-4.3204-4.4524-4.3733-4.4524-0.088 0-0.0874 3.8654 0 4.1167 0.0796 0.22709 0.2637 0.35086 0.57923 0.38937l0.26434 0.0323v0.44156l-1.2646 0.0131c-1.0565 0.0109-1.269 2e-3 -1.2913-0.0566zm8.9294 2e-5c-0.0147-0.0384-0.0197-0.14362-0.0111-0.23389 0.0152-0.15855 0.0242-0.16498 0.26392-0.18914 0.13651-0.0138 0.30947-0.0652 0.38434-0.1142 0.27272-0.17869 0.27513-0.2039 0.27513-2.8773v-2.4554l-0.15946-0.0972c-0.0877-0.0535-0.2294-0.0973-0.3149-0.0974-0.25813-4.9e-4 -0.31065-0.0418-0.31065-0.2455 0-0.20904 0.0383-0.23554 0.31891-0.22047 0.10794 6e-3 0.56054 0.0138 1.0058 0.0179l0.80954 7e-3 2.0595 2.1337c1.1327 1.1736 2.0876 2.1337 2.122 2.1337 0.0948 0 0.0899-3.2246-5e-3 -3.4522-0.098-0.23466-0.28905-0.3631-0.59722-0.4016l-0.26731-0.0334v-0.38119h2.5512v0.37883l-0.25153 0.0298c-0.28435 0.0337-0.44362 0.12135-0.56958 0.31352-0.0798 0.12169-0.0876 0.3561-0.10033 2.9921l-0.0137 2.8601-0.28061-8.2e-4c-0.15431-4.9e-4 -0.30435-0.017-0.33338-0.0368-0.029-0.0198-1.1309-1.151-2.4485-2.5137s-2.4199-2.4777-2.4494-2.4777c-0.038 0-0.0537 0.60252-0.0537 2.0629 0 1.882 8e-3 2.0743 0.0859 2.1938 0.11502 0.17544 0.25814 0.24811 0.55096 0.27974 0.21292 0.023 0.2505 0.0441 0.29248 0.16391 0.0327 0.0932 0.0313 0.16434-4e-3 0.22078-0.0467 0.0741-0.18804 0.0847-1.2872 0.0964-1.0308 0.0109-1.2392 2e-3 -1.2615-0.0567zm8.8114-0.16601v-0.18503l0.29999-0.057c0.34535-0.0656 0.51126-0.19439 0.58294-0.45242 0.029-0.10433 0.0488-1.0895 0.0489-2.4322 0-2.052-8e-3 -2.2721-0.0856-2.4251-0.11945-0.23426-0.28957-0.34372-0.58937-0.37923l-0.25688-0.0304v-0.37884h5.5913l0.0225 0.11039c0.0124 0.0607 0.036 0.39338 0.0526 0.73924l0.03 0.62885-0.15859-0.0156c-0.14666-0.0144-0.16277-0.034-0.21422-0.26087-0.13909-0.61334-0.18663-0.63194-1.671-0.65371-0.99124-0.0146-1.1897-6e-3 -1.2398 0.0545-0.0438 0.0528-0.0561 0.3689-0.0464 1.1941l0.0132 1.1223 0.94351 0.0133c1.0372 0.0147 1.2092-0.0179 1.367-0.25876 0.0472-0.072 0.0988-0.21187 0.11477-0.31074 0.0256-0.15912 0.047-0.18151 0.18615-0.19501 0.21029-0.0204 0.21595 0.0121 0.19904 1.1437l-0.0139 0.93218h-0.17016c-0.16041 0-0.17249-0.0117-0.21047-0.20377-0.0484-0.24482-0.22964-0.43947-0.47175-0.50672-0.0979-0.0272-0.55607-0.0496-1.0183-0.0497-0.67191 0-0.85207 0.0139-0.89897 0.0704-0.0426 0.0513-0.0543 0.35383-0.0428 1.1026 0.021 1.3692-0.0953 1.2553 1.2806 1.2553 1.1884 0 1.4237-0.0423 1.6843-0.30296 0.10238-0.10239 0.19302-0.26408 0.24152-0.43093 0.0817-0.28091 0.17697-0.35656 0.37149-0.29482 0.0925 0.0293 0.10027 0.059 0.0753 0.28541-0.0154 0.13897-0.0406 0.4293-0.056 0.64518-0.0155 0.21587-0.0393 0.46425-0.053 0.55195l-0.0248 0.15945h-5.8831v-0.18502zm-52.411-2.8117c-0.10941-0.0637-0.12383-0.59036-0.0186-0.67771 0.0477-0.0396 0.47334-0.0521 1.4596-0.0428l1.3923 0.013 0.0147 0.33905c0.0103 0.23806-4e-3 0.35109-0.0491 0.37949-0.0941 0.0597-2.6952 0.0494-2.799-0.0111zm-7.7765-7.9005c-0.41634-0.0694-0.77893-0.21835-1.1149-0.45809-0.36844-0.26292-0.56829-0.54688-1.4003-1.9897-0.30344-0.5262-0.64819-1.1065-0.7661-1.2896l-0.21439-0.33283-1.0547 0.0278v1.3492c0 1.265 6e-3 1.3599 0.0992 1.5209 0.12872 0.22272 0.43564 0.3763 0.8382 0.41941l0.31786 0.034-0.0288 0.65046-2.3305 0.0129c-2.1473 0.0119-2.3353 6e-3 -2.3918-0.0707-0.06645-0.0905-0.08223-0.44738-0.02378-0.53727 0.01982-0.0305 0.17366-0.0712 0.34187-0.0906 0.35044-0.0403 0.6779-0.19033 0.80906-0.3707 0.16997-0.23375 0.18989-0.67184 0.1751-3.8509l-0.01439-3.0899-0.11039-0.22401c-0.14063-0.28535-0.38604-0.42844-0.80432-0.46895-0.19493-0.0189-0.33485-0.0591-0.37319-0.1073-0.06905-0.0868-0.08143-0.4413-0.01887-0.53995 0.09093-0.1434 4.942-0.27068 5.8954-0.15468 1.4056 0.17102 2.4323 0.7069 2.8213 1.4726 0.1954 0.38463 0.26719 0.7004 0.26719 1.1752 0 0.71938-0.20448 1.2368-0.6696 1.6946-0.2941 0.28944-0.87322 0.60574-1.3048 0.71266-0.12863 0.0319-0.24551 0.0767-0.25972 0.0997-0.0142 0.023 0.0607 0.13619 0.16639 0.25154 0.26428 0.28836 0.59914 0.81549 1.0632 1.6736 0.63294 1.1705 1.0246 1.6102 1.5624 1.7541 0.42423 0.11355 0.42459 0.1139 0.42459 0.40989 0 0.2159-0.0188 0.27922-0.0949 0.31995-0.11366 0.0608-1.4355 0.0582-1.8064-4e-3zm-2.7106-4.8845c0.34704-0.0895 0.75575-0.33549 0.93805-0.56446 0.60998-0.76615 0.55138-2.1865-0.11875-2.8782-0.42954-0.44333-1.021-0.62475-1.8833-0.57769-0.30188 0.0165-0.60545 0.0515-0.67461 0.0778l-0.12575 0.0478v1.9407c0 1.6281 0.0111 1.945 0.0694 1.9674 0.31469 0.12076 1.3038 0.11342 1.795-0.0133zm33.731 4.8902c-0.13492-0.0233-0.47393-0.092-0.75334-0.1526-0.37188-0.0807-0.53017-0.0964-0.59065-0.0587-0.12835 0.0802-0.48114 0.12723-0.51714 0.069-0.0497-0.0804-0.32967-2.2209-0.30043-2.2971 0.0364-0.0948 0.46918-0.0658 0.52181 0.0349 0.0212 0.0405 0.12898 0.26694 0.23965 0.50325 0.38486 0.82187 1.0173 1.2934 1.8073 1.3476 0.86932 0.0596 1.4405-0.35256 1.5171-1.0947 0.0682-0.66094-0.53261-1.2641-2.1603-2.1688-1.4006-0.77845-1.8942-1.4183-1.8374-2.3817 0.0322-0.54652 0.17388-0.89461 0.51326-1.2612 0.70738-0.76407 1.8408-0.96059 3.3755-0.58525 0.45842 0.11213 0.61852 0.11897 0.84736 0.0362 0.14501-0.0524 0.17556-0.0495 0.22785 0.022 0.0688 0.0942 0.25534 1.8511 0.20922 1.9712-0.0208 0.0542-0.0914 0.0789-0.2257 0.0789h-0.19545l-0.20276-0.41502c-0.45713-0.93568-1.343-1.4374-2.2174-1.2558-0.5348 0.11102-0.82317 0.42011-0.82183 0.88083 2e-3 0.53879 0.32556 0.85785 1.5494 1.526 1.9648 1.0726 2.571 1.7535 2.571 2.888 0 0.76991-0.32519 1.3977-0.95775 1.8491-0.5367 0.38297-0.85527 0.47717-1.6671 0.49292-0.37778 7e-3 -0.79727-6e-3 -0.93219-0.029zm-62.469-0.10444c-0.07819-0.08-0.07991-0.44645-0.0025-0.52391 0.03238-0.0324 0.15932-0.0589 0.28211-0.0589 0.28348 0 0.5338-0.12538 0.67608-0.33835l0.11137-0.16671v-2.8759c0-2.6916-0.0057-2.8866-0.08965-3.0431-0.11268-0.21009-0.3358-0.33142-0.68949-0.37491-0.31235-0.0384-0.34749-0.071-0.34854-0.32375-0.0016-0.34551-0.10074-0.329 2.6367-0.43835 2.7844-0.11122 4.2529 0.12203 5.3381 0.84786 1.4698 0.98309 2.0085 3.0868 1.2247 4.7832-0.59439 1.2865-1.7695 2.1428-3.3618 2.4497-0.5637 0.10864-5.678 0.16465-5.7771 0.0633zm5.0902-0.6349c0.14842-0.031 0.45548-0.14253 0.68236-0.24788 0.75061-0.3485 1.3556-1.0976 1.6001-1.9814 0.12789-0.46217 0.15468-1.6366 0.04829-2.1174-0.21054-0.95159-0.76511-1.6797-1.6043-2.1064-0.12661-0.0644-0.42467-0.1756-0.66234-0.24715-0.39396-0.11861-0.51009-0.13057-1.3152-0.13552l-0.88312-5e-3v3.1645c0 3.0945 0.0021 3.1683 0.09986 3.3345 0.19466 0.33134 0.57663 0.45215 1.323 0.41842 0.24286-0.011 0.56299-0.0453 0.71141-0.0763zm5.724 0.65722c-0.01799-0.018-0.03271-0.14809-0.03271-0.28912 0-0.28899 0.03066-0.31594 0.35971-0.31606 0.27246 0 0.52227-0.13322 0.6444-0.34336 0.09726-0.16735 0.09979-0.24471 0.09979-3.0419 0-3.1259 0.0028-3.0931-0.27748-3.2926-0.09129-0.065-0.25954-0.11265-0.47188-0.13365l-0.33001-0.0326v-0.58875l3.4158-0.0126c2.703-0.01 3.4265 4.9e-4 3.4672 0.0493 0.03034 0.0366 0.05804 0.4338 0.06761 0.96931l0.01619 0.90739h-0.44156l-0.08215-0.33903c-0.09204-0.37988-0.20255-0.55834-0.41289-0.66675-0.19921-0.10269-3.0059-0.13888-3.0689-0.0396-0.02237 0.0352-0.041 0.64094-0.04141 1.346 0 1.0746 0.01096 1.2917 0.07212 1.3424 0.05453 0.0452 0.34185 0.0555 1.1407 0.0407 0.95646-0.0177 1.0917-0.0306 1.2967-0.12345 0.25434-0.11518 0.32533-0.21635 0.40565-0.57804l0.05467-0.24624h0.48834l0.02616 2.6226-0.11754 0.0295c-0.06463 0.0162-0.1805 0.0222-0.25748 0.0134-0.12537-0.0144-0.14593-0.043-0.1971-0.27452-0.13677-0.61875-0.252-0.66611-1.6764-0.68897-0.80417-0.0129-1.1128-2e-3 -1.1652 0.0416-0.0585 0.0485-0.07109 0.25412-0.07013 1.1448 0.0016 1.1784 0.03385 1.431 0.20227 1.5674 0.10166 0.0824 0.21442 0.088 1.462 0.0736 1.2555-0.0145 1.3676-0.0231 1.5727-0.11938 0.31276-0.14694 0.43914-0.30684 0.58648-0.742l0.12895-0.38084 0.22305-0.0146c0.14032-9e-3 0.24139 9e-3 0.27243 0.0491 0.05366 0.0693-0.0831 1.9326-0.14976 2.0405-0.0281 0.0455-0.86934 0.0593-3.6071 0.0593-1.9638 0-3.5852-0.0147-3.6032-0.0327zm23.292-0.0349c-0.0142-0.0372-0.0191-0.17515-0.0108-0.30664l0.0152-0.23908 0.29437-0.026c0.36017-0.0319 0.58386-0.14561 0.69831-0.35502 0.0801-0.14657 0.0867-0.37845 0.0867-3.0533s-7e-3 -2.9067-0.0867-3.0533c-0.11244-0.20574-0.33256-0.31684-0.69831-0.35243l-0.29437-0.0286v-0.58875h6.8647l0.033 0.16137c0.0181 0.0888 0.0411 0.51928 0.0511 0.95672l0.0181 0.79535-0.20536 0.0149c-0.23812 0.0173-0.26163-0.0122-0.35453-0.4448-0.0335-0.15591-0.11484-0.34702-0.18143-0.42616-0.18835-0.22385-0.45012-0.25575-1.9571-0.2385l-1.3247 0.0152v2.7475h1.1039c1.4867 0 1.6247-0.0519 1.7753-0.66791 0.063-0.25767 0.0693-0.26467 0.25198-0.27971 0.33102-0.0273 0.32775-0.0407 0.32775 1.3401s3e-3 1.3674-0.32775 1.3401c-0.17535-0.0144-0.19-0.0281-0.22785-0.21168-0.0682-0.33084-0.19094-0.52488-0.40112-0.63403-0.1824-0.0947-0.27766-0.10191-1.3492-0.10191h-1.153l-0.0132 1.1689c-8e-3 0.68896 7e-3 1.2456 0.0371 1.3557 0.0792 0.2942 0.1467 0.30595 1.6523 0.28784 1.3041-0.0157 1.3224-0.0174 1.563-0.14121 0.28731-0.14797 0.48626-0.41177 0.57151-0.75779 0.0332-0.13492 0.0808-0.27291 0.10565-0.30664 0.0689-0.0935 0.47094-0.0793 0.50826 0.0179 0.0523 0.13635-0.12298 1.9946-0.19232 2.0387-0.0341 0.0216-1.6578 0.0397-3.6083 0.0401-2.9668 6.6e-4 -3.5505-0.0103-3.5722-0.0668zm8.6973 0.0354c-0.0183-0.0183-0.0333-0.14864-0.0333-0.28967 0-0.2874 0.0316-0.31598 0.34941-0.31598 0.27958 0 0.55125-0.15507 0.66189-0.37779 0.0868-0.17477 0.0935-0.35483 0.10686-2.8798 0.01-1.7938-3e-3 -2.7786-0.0388-2.9487-0.0827-0.39846-0.36406-0.6134-0.80292-0.6134-0.11428 0-0.23427-0.0265-0.26666-0.0589-0.0763-0.0763-0.0763-0.44381 0-0.52006 0.0438-0.0438 0.55187-0.0589 1.983-0.0589 1.0583 0 1.9591 0.0134 2.0018 0.0298 0.0572 0.022 0.0776 0.0979 0.0776 0.28913 0 0.29235-0.03 0.3189-0.36048 0.3189-0.26438 0-0.52126 0.13892-0.6453 0.34899-0.0951 0.16111-0.0981 0.25427-0.0981 3.0609s3e-3 2.8998 0.0981 3.0609c0.12624 0.21379 0.38161 0.34879 0.66158 0.34974 0.31735 1e-3 0.3524 0.0374 0.33477 0.34733l-0.0151 0.2652-1.9906 0.0128c-1.0948 7e-3 -2.0055-2e-3 -2.0238-0.0204zm5.3666-0.0378c-0.0795-0.0957-0.0462-0.4743 0.0461-0.52358 0.0405-0.0216 0.17986-0.053 0.30975-0.0698 0.32584-0.042 0.50235-0.21296 0.59448-0.57559 0.0395-0.15522 0.16465-1.5057 0.27825-3.001 0.22306-2.936 0.22307-2.9339-0.0308-3.1003-0.0599-0.0393-0.22763-0.0847-0.37271-0.10107-0.14508-0.0163-0.29138-0.0514-0.3251-0.078-0.0783-0.0617-0.08-0.43954-3e-3 -0.51712 0.0428-0.0428 0.41103-0.0589 1.3492-0.0589 1.1667 0 1.2986 8e-3 1.3762 0.0864 0.0472 0.0475 0.59089 1.2342 1.2081 2.6371s1.1515 2.5819 1.1872 2.62c0.0553 0.059 0.0726 0.0518 0.11716-0.0491 0.0287-0.0651 0.56841-1.2664 1.1993-2.6696l1.147-2.5513h2.6846l0.0147 0.25489 0.0147 0.2549-0.18645 0.0313c-0.54005 0.0908-0.66259 0.19754-0.69038 0.60142-0.0301 0.43749 0.27784 5.6293 0.34596 5.8326 0.0793 0.23662 0.25416 0.35792 0.57976 0.4021 0.35691 0.0484 0.38774 0.0744 0.38774 0.32674 0 0.1635-0.0231 0.22854-0.0949 0.26695-0.0606 0.0325-0.76708 0.0508-1.9565 0.0508-2.0821 0-1.989 0.0167-1.9625-0.35208l0.0152-0.21214 0.26984-0.0397c0.14841-0.0218 0.33912-0.05 0.4238-0.0625 0.20238-0.03 0.39939-0.23273 0.4423-0.45522 0.0334-0.17318-0.16652-5.0143-0.20884-5.0569-0.0116-0.0117-0.0413-6.5e-4 -0.066 0.0245-0.0247 0.0252-0.6516 1.403-1.3931 3.0617-0.99625 2.2285-1.3751 3.0279-1.4511 3.0618-0.24598 0.10977-0.26199 0.0808-1.6406-2.968-0.72456-1.6024-1.3463-2.9439-1.3815-2.981-0.0534-0.0562-0.0692-0.0232-0.094 0.19625-0.087 0.76876-0.32533 4.3169-0.302 4.4963 0.0572 0.4401 0.2841 0.64924 0.70436 0.64924 0.23978 0 0.30576 0.0688 0.30576 0.3189 0 0.11064-0.0265 0.22765-0.0589 0.26004-0.0934 0.0934-2.7056 0.083-2.7837-0.0111zm-51.985-12.278c-0.8504-0.0533-1.6996-0.27697-2.2082-0.58149-0.67651-0.40503-1.1772-1.0883-1.409-1.9226-0.10104-0.36369-0.10746-0.51161-0.13404-3.0805-0.02016-1.9502-0.04425-2.7324-0.08691-2.8211-0.15106-0.31408-0.34447-0.43185-0.83092-0.50598l-0.38439-0.0586v-0.63748l2.3249-0.0128c1.7191-9e-3 2.3429 2e-3 2.394 0.0446 0.04807 0.0399 0.06475 0.14103 0.05467 0.33166l-0.01439 0.27426-0.37394 0.0568c-0.62105 0.0944-0.82888 0.25933-0.92797 0.7366-0.07333 0.35327-0.03431 4.9811 0.04497 5.332 0.25632 1.1345 1.1814 1.7503 2.6263 1.7484 0.93274-1e-3 1.5087-0.20375 2.0192-0.70999 0.34874-0.34584 0.56654-0.75142 0.69307-1.2906 0.07927-0.33779 0.08875-0.63492 0.08875-2.7822 0-2.145-0.0087-2.4199-0.0812-2.5513-0.17113-0.31021-0.38786-0.42581-0.92458-0.49316-0.14841-0.0186-0.28607-0.0588-0.30589-0.0893-0.06296-0.0967-0.04154-0.50616 0.02957-0.56516 0.04797-0.0398 0.56908-0.052 1.8276-0.0428l1.7605 0.0129v0.63554l-0.24531 0.038c-0.13492 0.0209-0.31642 0.0499-0.40333 0.0644s-0.2279 0.0853-0.31331 0.15713c-0.31619 0.26607-0.31076 0.21735-0.34121 3.0545-0.0263 2.4488-0.03292 2.5948-0.13458 2.9623-0.45797 1.6555-1.6179 2.5131-3.6236 2.6793-0.31945 0.0265-0.64704 0.0445-0.72799 0.0401-0.08095-4e-3 -0.25758-0.015-0.3925-0.0235zm27.167-0.0773c-0.02738-0.0337-0.72492-1.5676-1.5501-3.4086s-1.5536-3.4306-1.6188-3.5325c-0.20951-0.3275-0.39806-0.46637-0.75478-0.55593l-0.33153-0.0832-0.01505-0.25899c-0.01014-0.17387 0.0061-0.27237 0.04906-0.29969 0.0838-0.0532 4.2148-0.0532 4.2986 0 0.04329 0.0274 0.05925 0.12695 0.04906 0.30589l-0.01505 0.2652-0.33011 0.0326c-0.65924 0.0652-0.85629 0.20949-0.81091 0.59387 0.03133 0.26526 1.9198 4.5251 2.0061 4.5251 0.03604 0 0.43345-0.86386 0.93191-2.0258 0.93196-2.1724 1.0241-2.4078 1.0241-2.6154 0-0.311-0.0974-0.37864-0.66086-0.45884l-0.39399-0.0561-0.01472-0.25229c-0.01194-0.20442 0.0021-0.25985 0.07359-0.29213 0.04857-0.0219 0.77274-0.0288 1.6093-0.0153l1.5209 0.0245v0.52683l-0.31904 0.0803c-0.40233 0.10128-0.57236 0.2233-0.77112 0.55335-0.0869 0.14428-0.80001 1.7517-1.5847 3.572-0.78472 1.8203-1.4504 3.3382-1.4794 3.373-0.07139 0.086-0.84286 0.0878-0.91242 2e-3zm26.458 0.0108c-0.18889-0.023-0.61068-0.10056-0.93729-0.17233-0.55872-0.12277-0.60285-0.12584-0.74577-0.0519-0.18104 0.0936-0.44583 0.10321-0.47519 0.0172-0.0114-0.0337-0.0867-0.54704-0.16704-1.1407-0.13419-0.99127-0.1396-1.0844-0.0663-1.1407 0.14243-0.10942 0.50265-0.0653 0.50265 0.0616 0 0.0349 0.0994 0.26194 0.2209 0.50464 0.27604 0.5514 0.6237 0.91808 1.0866 1.146 0.3147 0.15495 0.3637 0.16443 0.85019 0.16443 0.43443 0 0.54746-0.0167 0.71314-0.10546 0.43183-0.23129 0.65883-0.59278 0.66063-1.0521 2e-3 -0.6357-0.54427-1.1805-1.9985-1.9915-1.0881-0.60677-1.5602-1.011-1.8366-1.5724-0.15046-0.30564-0.16218-0.36428-0.15936-0.79704 2e-3 -0.35953 0.0277-0.52928 0.11003-0.73697 0.23625-0.59589 0.78018-1.0792 1.4466-1.2853 0.52848-0.16346 1.3254-0.15274 2.1619 0.0291 0.58597 0.12736 0.82677 0.14046 1.0865 0.0591 0.054-0.0169 0.12331-0.0139 0.15409 7e-3 0.06 0.0402 0.28198 1.954 0.23535 2.0294-0.0151 0.0243-0.12343 0.0441-0.24095 0.0441h-0.21368l-0.20217-0.41768c-0.44199-0.91314-1.2593-1.3932-2.1304-1.2515-0.6073 0.0988-0.95168 0.47449-0.90267 0.9846 0.0458 0.47666 0.37266 0.76721 1.6814 1.4946 1.6986 0.94408 2.292 1.5574 2.4415 2.5237 0.0634 0.40941-6e-3 0.88256-0.1859 1.2713-0.14318 0.30901-0.54648 0.74842-0.89032 0.97-0.54312 0.35001-1.3909 0.50775-2.1994 0.40924zm-5.3036-0.0714c-0.57992-0.12617-1.038-0.43758-1.3622-0.92603-0.0935-0.1408-0.37335-0.60838-0.622-1.0391-0.24863-0.4307-0.54867-0.93292-0.66674-1.116l-0.2147-0.33295-0.95639 0.028 2e-3 1.0794c2e-3 1.4412 0.0426 1.5319 0.74119 1.6608l0.33657 0.0621v0.53392h-4.0231l-0.0288-0.54184 0.34516-0.0543c0.39657-0.0624 0.55364-0.14916 0.6761-0.37326 0.0803-0.14705 0.0869-0.37644 0.0869-3.0537 0-2.7972-3e-3 -2.9001-0.097-3.0552-0.11505-0.19025-0.42791-0.35466-0.67489-0.35466-0.30031 0-0.33197-0.0308-0.33197-0.32322 0-0.23404 0.0124-0.26619 0.11039-0.28621 0.14948-0.0305 3.0094-0.12803 3.7307-0.12719 1.5622 2e-3 2.68 0.3062 3.2835 0.89407 0.75942 0.73971 0.75409 2.1397-0.011 2.8849-0.25006 0.24356-0.8033 0.54713-1.1152 0.61191-0.0874 0.0182-0.17108 0.0527-0.18598 0.0768s0.0928 0.20118 0.2393 0.39348c0.1465 0.19231 0.40413 0.59588 0.57248 0.89684 0.58496 1.0457 0.702 1.2281 0.95091 1.4813 0.23661 0.24072 0.4596 0.35862 0.82678 0.43719 0.12688 0.0272 0.13492 0.0446 0.13492 0.29253 0 0.19516-0.0202 0.2714-0.0776 0.29344-0.14212 0.0545-1.3653 0.0229-1.6689-0.0431zm-2.0204-4.193c0.33848-0.12864 0.65724-0.4241 0.82319-0.76303 0.10699-0.21853 0.12025-0.31013 0.1214-0.83885 2e-3 -0.58261-2e-3 -0.59974-0.17043-0.93034-0.20192-0.39604-0.50274-0.65164-0.92715-0.78774-0.31148-0.0999-1.301-0.11542-1.5382-0.0241l-0.13492 0.0519v1.6388c0 1.254 0.0144 1.6508 0.0615 1.6899 0.0931 0.0773 0.34918 0.10019 0.94426 0.0845 0.40938-0.0108 0.60746-0.04 0.82038-0.12095zm-31.259 3.9821c-1.3502-1.4333-5.724-5.8969-5.765-5.8832-0.0847 0.0283-0.07404 4.76 0.01128 5.001 0.08942 0.25254 0.29186 0.38096 0.70007 0.44414l0.34332 0.0531-0.01439 0.27306-0.01439 0.27305-1.5151 0.013c-1.077 9e-3 -1.5345-3e-3 -1.5823-0.0428-0.07085-0.0588-0.09099-0.37453-0.02967-0.46481 0.01982-0.0292 0.18292-0.0769 0.36244-0.10612 0.38545-0.0627 0.54471-0.15533 0.65062-0.37853 0.06846-0.14425 0.07783-0.53049 0.07783-3.2095v-3.0455l-0.15139-0.0783c-0.08326-0.043-0.28749-0.0933-0.45383-0.11165l-0.30244-0.0334-0.01505-0.23686c-0.02466-0.38651-0.05946-0.37652 1.309-0.3757 0.86712 4.9e-4 1.2386 0.0178 1.3156 0.0613 0.05906 0.0333 1.2292 1.2187 2.6003 2.6342l2.493 2.5736 0.01276-2.053c0.01178-1.8855 0.0057-2.065-0.07359-2.2005-0.13585-0.23196-0.3088-0.33184-0.62898-0.36325-0.35991-0.0353-0.41414-0.0762-0.41414-0.31219 0-0.34524-0.01997-0.34102 1.6103-0.34018 0.80086 4.9e-4 1.485 0.0191 1.5203 0.0414 0.04329 0.0275 0.05925 0.12694 0.04906 0.30589l-0.01505 0.2652-0.31701 0.035c-0.35315 0.0389-0.51452 0.133-0.66424 0.3872-0.09495 0.16121-0.09891 0.27823-0.12266 3.6255l-0.02453 3.4589-0.72662 0.0292-0.22544-0.23933zm3.4008 0.11823c-0.01439-0.0377-0.01938-0.16449-0.01096-0.28179l0.01537-0.21326 0.31891-0.0532c0.43939-0.0733 0.60888-0.17273 0.70532-0.41375 0.07031-0.17572 0.07966-0.53209 0.0796-3.0315 0-2.5989-0.0072-2.8464-0.08586-3.0024-0.11399-0.22598-0.35109-0.35486-0.71731-0.38992l-0.30066-0.0288-0.01505-0.26521c-0.01014-0.17894 0.0057-0.27843 0.04906-0.30588 0.0838-0.0531 3.9205-0.0531 4.0043 0 0.04329 0.0275 0.05925 0.12694 0.04906 0.30588l-0.01505 0.26521-0.29438 0.0286c-0.36574 0.0356-0.58587 0.14668-0.69831 0.35242-0.0801 0.14658-0.08669 0.37846-0.08669 3.0533 0 3.1409-0.0061 3.0675 0.26984 3.2705 0.06746 0.0496 0.2772 0.11815 0.46609 0.15223l0.34344 0.062v0.53843l-2.0252 0.0128c-1.6969 0.0107-2.0294 2e-3 -2.0515-0.0557zm14.473-4.9e-4c-0.0144-0.0374-0.0192-0.16395-0.0108-0.28124l0.0154-0.21326 0.33367-0.0545c0.37746-0.0616 0.55982-0.17271 0.68429-0.41683 0.0787-0.15444 0.0858-0.40155 0.0858-3.0139 0-2.611-7e-3 -2.8598-0.0858-3.0174-0.10481-0.20983-0.43949-0.39218-0.72173-0.39325-0.2879-1e-3 -0.32919-0.0439-0.3115-0.3229l0.0152-0.24057 3.4316-0.0126c1.8874-7e-3 3.4485 4e-3 3.4691 0.0249 0.0206 0.0206 0.0439 0.44576 0.0518 0.94479l0.0144 0.90732-0.17592 0.0147c-0.21658 0.0182-0.25042-0.0233-0.36066-0.44234-0.10607-0.4032-0.24397-0.55332-0.57308-0.6239-0.13896-0.0298-0.8125-0.0524-1.5614-0.0524-1.1557 0-1.3207 0.01-1.3468 0.0776-0.0389 0.10126-0.0389 2.5401 0 2.6414 0.0259 0.0674 0.16676 0.0776 1.0705 0.0776 1.1857 0 1.4572-0.0483 1.6661-0.29663 0.0684-0.0813 0.13749-0.22997 0.15352-0.33036 0.016-0.1004 0.0467-0.21566 0.0683-0.25614 0.0455-0.0856 0.20953-0.1189 0.37757-0.0767l0.11767 0.0295v1.294c0 1.4157 0.0134 1.3535-0.29238 1.3535-0.1716 0-0.22716-0.0678-0.27037-0.32973-0.0188-0.11389-0.0802-0.26559-0.13644-0.33712-0.1988-0.25274-0.35564-0.28275-1.5923-0.30458l-1.1385-0.0201-0.0319 0.12725c-0.0176 0.07-0.0241 0.64473-0.0146 1.2772 0.0164 1.0787 0.0239 1.1585 0.12096 1.2884l0.10351 0.1385h1.4174c1.3862 0 1.4226-2e-3 1.6501-0.1146 0.28283-0.13929 0.42153-0.32425 0.55776-0.74385l0.1036-0.31905 0.23442-0.0152c0.12894-8e-3 0.25148 3e-3 0.27231 0.0245 0.0456 0.0478-0.10822 1.927-0.16487 2.0145-0.0619 0.0957-7.1895 0.0891-7.2262-7e-3zm25.453-0.23866c0.0134-0.23417 0.026-0.2587 0.13749-0.2699 0.57007-0.0573 0.83565-0.21532 0.93315-0.55527 0.0289-0.10089 0.0477-1.2722 0.047-2.9401-2e-3 -2.6147-6e-3 -2.784-0.094-2.977-0.12104-0.26658-0.27174-0.35945-0.69031-0.42535l-0.34303-0.054v-0.51906l4.0477 0.0256v0.48485l-0.34272 0.0632c-0.38988 0.072-0.55238 0.17113-0.67525 0.41211-0.0787 0.1544-0.0858 0.4009-0.0859 2.9984 0 1.8858 0.0174 2.8763 0.0522 2.9683 0.11741 0.30989 0.3335 0.44798 0.78173 0.49957l0.26984 0.031 0.0298 0.51516h-4.0824l0.0149-0.25758zm6.6961 0.22541c-0.0183-0.0183-0.0333-0.1285-0.0333-0.24492 0-0.2324-7e-3 -0.22794 0.44316-0.28586 0.29331-0.0377 0.5026-0.17083 0.60372-0.38391 0.0747-0.15753 0.0811-0.45628 0.0696-3.2562l-0.0126-3.0828-0.93219 2e-3c-1.3563 3e-3 -1.4286 0.0467-1.7129 1.0273-0.0695 0.23989-0.15417 0.45455-0.18804 0.47705-0.0646 0.0429-0.38216 6e-3 -0.43679-0.0509-0.0377-0.0392 0.17501-2.2286 0.22428-2.3084 0.0515-0.0833 0.2731-0.0642 0.51195 0.0442 0.20641 0.0937 0.32887 0.097 3.508 0.0953 2.7633-1e-3 3.3139-0.013 3.4168-0.0719 0.1-0.0572 0.53221-0.10601 0.54252-0.0613 0.0432 0.18708 0.21885 2.2812 0.19373 2.3091-0.0198 0.022-0.1319 0.033-0.24906 0.0245l-0.213-0.0154-0.12856-0.44156c-0.28751-0.98754-0.43097-1.0679-1.8644-1.0438l-0.80791 0.0135-0.0126 3.0107c-8e-3 1.9362 5e-3 3.0771 0.0375 3.1968 0.0709 0.26318 0.32808 0.47507 0.62318 0.51338 0.47826 0.0621 0.46282 0.0514 0.44626 0.30888l-0.0149 0.23145-1.9906 0.0128c-1.0948 7e-3 -2.0055-2e-3 -2.0238-0.0204zm6.5902-0.21221c0-0.26976-8e-3 -0.26386 0.43732-0.31321 0.23388-0.0259 0.40579-0.13063 0.56543-0.34443 0.0996-0.13333 0.10116-0.18241 0.10116-3.0966 0-2.9335-2e-3 -2.9624-0.10326-3.0996-0.14961-0.20073-0.36043-0.30738-0.68802-0.34807l-0.28809-0.0358-0.0154-0.21518c-8e-3 -0.11835 6e-3 -0.23698 0.033-0.26362 0.0316-0.0316 1.2215-0.0358 3.4328-0.0119l3.3844 0.0365 0.0352 0.66865c0.0194 0.36777 0.0381 0.76801 0.0415 0.88944l6e-3 0.22079h-0.38577l-0.079-0.32424c-0.0987-0.40499-0.2046-0.56909-0.43441-0.67338-0.15532-0.0705-0.38313-0.0818-1.652-0.0818h-1.4719l-0.0262 2.8188 0.11924 0.0299c0.0656 0.0165 0.59025 0.0225 1.166 0.0134 0.98192-0.0155 1.0612-0.0237 1.2811-0.13195 0.2559-0.12601 0.36421-0.28375 0.42026-0.61201 0.0341-0.20008 0.0394-0.20477 0.22984-0.20477h0.19489l0.0262 2.5816-0.20822-0.0151c-0.20539-0.0149-0.20875-0.0181-0.24566-0.23583-0.0673-0.39653-0.30502-0.61441-0.75005-0.68728-0.35688-0.0584-2.0837-0.0635-2.1738-6e-3 -0.0511 0.0324-0.0612 0.31078-0.0491 1.3528l0.0152 1.312 0.13766 0.11833 0.13765 0.11834h1.264c1.3409 0 1.6276-0.0377 1.9317-0.254 0.17149-0.122 0.35746-0.44028 0.43208-0.73952l0.0581-0.23305h0.23949c0.16057 0 0.2395 0.0205 0.2395 0.0621 0 0.19201-0.15609 1.8751-0.17704 1.909-0.0137 0.0223-1.6354 0.0405-3.6037 0.0405h-3.5787v-0.24438zm2.8774-8.6242c-0.0165-0.0267 0.39456-0.48077 0.91353-1.0089 0.80847-0.82276 0.9732-0.96786 1.1503-1.0133 0.16287-0.0418 0.24269-0.038 0.37629 0.0179 0.20209 0.0844 0.27559 0.20491 0.27559 0.45173 0 0.27103-0.21752 0.44145-1.3247 1.0378-0.92145 0.49635-1.3129 0.6412-1.391 0.51474zm-39.866-4.725c-9.9353-0.38583-19.45-3.2916-26.745-8.1675-5.8524-3.9117-9.9792-8.9663-11.715-14.349-0.31196-0.96731-0.72469-2.71-0.6648-2.8069 0.03165-0.0512 12.663-0.0504 12.695 8.2e-4 0.01341 0.0218 0.14598 0.42468 0.29452 0.89539 0.55385 1.755 1.1283 3.164 1.9993 4.9035 3.9326 7.8543 10.804 13.676 18.809 15.937 5.5754 1.5742 11.507 1.4088 17.049-0.4756 4.3045-1.4634 8.1228-3.8572 11.433-7.1677 1.5157-1.5157 2.7556-3.0294 3.8999-4.7608 1.7289-2.6161 3.1597-5.7587 3.9481-8.6718l0.16266-0.60102 3.1447 7e-3c1.7296 4e-3 4.5714 0.0204 6.3153 0.0368l3.1706 0.0297-0.13867 0.68882c-0.5034 2.5006-1.6487 5.1776-3.2343 7.5597-3.6506 5.4846-9.8203 10.112-17.587 13.191-6.9603 2.7594-14.878 4.0598-22.837 3.7507zm1.0751-3.8237c-4.9103-0.22608-9.7327-1.83-13.935-4.6348-1.722-1.1493-2.8224-2.0583-4.393-3.6288-2.4074-2.4074-3.9962-4.6045-5.4839-7.5835-1.6239-3.2517-2.5818-6.6069-2.8997-10.156-0.06066-0.67739-0.09497-1.3884-0.07989-1.656 0.0028-0.0491 1.2646-0.059 6.2221-0.0491l6.2187 0.0125 0.01178 0.41703c0.01639 0.58122 0.14276 2.1593 0.28559 3.5666 0.80872 7.9671 2.574 13.537 5.3599 16.911 1.1311 1.37 2.6253 2.5227 4.1609 3.2097 2.851 1.2756 6.7192 1.4778 10.01 0.52313 5.6085-1.6272 8.9509-6.5923 10.468-15.551 0.41607-2.4561 0.73067-5.4937 0.8626-8.3284l0.0337-0.72367 2.3361 3e-5c1.2849 2e-5 4.0416 0.0147 6.126 0.0326l3.7899 0.0326-0.0274 0.64201c-0.22232 5.2159-1.747 9.9822-4.5616 14.26-1.0931 1.6613-2.3049 3.1175-3.8558 4.6336-5.5429 5.4182-13.206 8.4134-20.649 8.0707zm0.3925-3.6127c-4.9699-0.36727-8.4125-3.1707-10.535-8.5792-1.7901-4.5608-2.6576-10.624-2.7924-19.518l-0.03313-2.1859 0.11832-0.0278c0.06507-0.0153 2.7015-0.0111 5.8586 9e-3l5.7403 0.0371 0.0253 12.977c0.0229 11.72 0.0329 13.001 0.10388 13.227 0.3351 1.0651 1.0754 1.6805 2.129 1.7697 1.0498 0.0889 2.1322-0.48256 2.5763-1.36 0.33135-0.65468 0.30329 0.49019 0.33619-13.71l0.0299-12.903h11.481l-8e-3 2.1097c-0.0155 3.9534-0.2601 7.9158-0.6828 11.064-1.2683 9.4444-4.3508 14.783-9.529 16.503-0.72925 0.24219-1.6289 0.43907-2.3644 0.51741-0.53418 0.0569-2.0526 0.10124-2.4531 0.0716z" style="fill:url(#linearGradient4147)"/></svg>
