<svg width="200" height="75" version="1.1" viewBox="0 0 200 75" xml:space="preserve" xmlns="http://www.w3.org/2000/svg"><path d="m128.36 14.858c-2.7151 0-4.7871 0.50555-6.1574 1.5015-1.4172 1.0309-2.1349 2.6812-2.1349 4.9068 0 1.298 0.36633 2.4137 1.0904 3.3135 0.68752 0.85603 1.558 1.6057 2.5857 2.228 0.9991 0.60407 2.0912 1.1485 3.25 1.6183 1.1191 0.45464 2.1752 0.93094 3.137 1.4157 0.92995 0.46895 1.7133 0.99572 2.3285 1.5648 0.55001 0.50868 0.81717 1.1258 0.81717 1.8864 0 0.57068-0.0984 1.0384-0.2931 1.3897-0.18917 0.34336-0.46472 0.61992-0.81842 0.82339-0.38311 0.22096-0.85439 0.38329-1.3996 0.48186-0.57148 0.10332-1.2218 0.15531-1.9324 0.15531-0.77973 0-1.5852-0.17327-2.392-0.51664-0.82742-0.35211-1.6073-0.83019-2.3187-1.4208-0.71773-0.59452-1.3519-1.2777-1.8852-2.028-0.52856-0.74158-0.91375-1.502-1.145-2.2603l-0.11176-0.36388h-1.7747l1.5896 8.7927 0.63833-0.31419c0.0342-0.01749 0.11779-0.05231 0.28067-0.09681 0.1542-0.04292 0.31484-0.08536 0.47937-0.12924 0.16374-0.04212 0.31441-0.07996 0.45827-0.11175 0.14307-0.03258 0.21212-0.03481 0.23598-0.03481 0.52934 0 1.0665 0.04611 1.5959 0.13909 0.55796 0.09776 1.1132 0.20775 1.6505 0.32539 0.57545 0.12559 1.1456 0.23791 1.6939 0.33408 0.59214 0.10412 1.1916 0.15643 1.7821 0.15643 1.2622 0 2.4277-0.1569 3.465-0.46696 1.0476-0.31396 1.9579-0.76456 2.7049-1.34 0.75747-0.58419 1.3516-1.304 1.7672-2.1385 0.4157-0.83536 0.62718-1.7756 0.62718-2.7931 0-1.4395-0.35586-2.6684-1.0569-3.6524-0.67399-0.94584-1.5323-1.7704-2.5496-2.4516-0.99274-0.66447-2.0752-1.2409-3.2166-1.7137-1.1143-0.461-2.1589-0.91787-3.1047-1.3573-0.91882-0.42762-1.6905-0.9066-2.2939-1.4232-0.53571-0.45782-0.78614-0.9739-0.78614-1.6256 0-0.86954 0.28058-1.4957 0.85445-1.9137 0.6144-0.4467 1.3793-0.67312 2.2727-0.67312 0.73998 0 1.4807 0.14339 2.2031 0.42474 0.7368 0.28773 1.4233 0.6824 2.0417 1.1736 0.62553 0.49598 1.1844 1.0832 1.6604 1.7437 0.46894 0.65176 0.81259 1.3627 1.0208 2.1137l0.10565 0.37628h1.6555l-0.15022-7.0504h-1.7473c-0.39026 0-0.82145-0.04641-1.2817-0.13783-0.48724-0.09776-1.0166-0.21323-1.5697-0.34278-0.57069-0.13353-1.1855-0.25175-1.8293-0.3527-0.65335-0.10253-1.3411-0.15531-2.0429-0.15531zm-127.52 0.44214v1.8417h0.61972c0.74236 0 1.4079 0.31655 1.864 0.81967 0.0048 0.0048 0.01273 0.01107 0.01733 0.01622 0.03577 0.03895 0.06629 0.08171 0.09808 0.12288 8e-3 0.0096 0.01589 0.01653 0.02242 0.02606 0.02623 0.03417 0.04943 0.07027 0.07328 0.10683 0.22652 0.33383 0.37272 0.7247 0.40611 1.1475 0.0063 0.06756 0.01113 0.13241 0.01113 0.19125-8e-3 0.72647 0 1.5909 0 2.2888-7.94e-4 0.69786 9.7e-5 7.269 0.0032 8.2736 0.0015 0.91246 0.05533 3.5196-0.02735 4.3565l-0.0032 0.02861c-8e-3 0.06996-0.01652 0.12796-0.02607 0.16767l-0.0012 0.0012c-0.02226 0.11048-0.05628 0.21833-0.09681 0.32167-0.17646 0.48803-0.58544 0.8759-0.99478 1.073-0.0922 0.0445-0.21429 0.08028-0.35021 0.11048-0.0048 0.0016-8e-3 0.0048-0.01273 0.0048-0.17884 0.05325-0.45176 0.08394-0.7228 0.10062-0.16691 0.01267-0.30587 0.01987-0.38376 0.01987h-0.18256c-0.18599 0.0032-0.31421 0-0.31421 0v1.7921l11.832-0.0012v-1.7871c-0.08823-0.0063-0.18996-0.0143-0.29805-0.02352l-0.19621-0.01107c-0.31078-0.01669-0.52736-0.04118-0.7054-0.07455h-0.0032c-0.36244-0.04611-0.79775-0.17268-1.1562-0.40239-0.14465-0.08345-0.26289-0.17734-0.35271-0.28067-0.04053-0.0469-0.0771-0.09697-0.11048-0.15023-0.0016-0.0032-0.0032-0.0048-0.0048-0.0063 0-7.9e-4 -0.0012-0.0016-0.0012-0.0032-0.0048-0.0063-8e-3 -0.01267-0.0112-0.0186-0.02463-0.03815-0.04641-0.08155-0.06708-0.12924-0.06676-0.13989-0.11668-0.29494-0.14529-0.4682-0.03497-0.21063-0.06074-0.44431-0.07567-0.69547-0.03815-0.55002-0.01987-1.042-0.01987-1.042v-4.7044l0.04228 0.0162 1.6069-1.2444c0.6446 0.83378 1.4433 1.9257 2.2255 3.0265 0.24004 0.33462 0.48295 0.67814 0.72776 1.0271 0.48326 0.6907 0.93144 1.3424 1.3289 1.9361 0.36244 0.5389 0.66507 1.0183 0.90907 1.4332 0.20904 0.33383 0.62563 0.90918 0.28067 1.309-0.37198 0.4308-1.9283 0.58867-2.2764 0.58867h-0.01605v1.704h11.77v-1.4928c-1.8869-0.24163-2.8316-1.5227-3.8188-2.8676-0.18996-0.24163-0.38311-0.49692-0.57624-0.76875l-1.8604-2.6043c-0.0032-0.0048-0.0063-8e-3 -0.0063-8e-3l-4.6348-6.4827 0.01431-0.01107c0.18043-0.14307 0.3598-0.28932 0.54023-0.43715 0.58022-0.48167 1.1274-0.97446 1.6567-1.4505 0.50631-0.45543 0.98384-0.88608 1.4171-1.2382 0.04531-0.03736 0.09904-0.08076 0.1602-0.13163 0.41648-0.34575 1.1925-0.98855 2.5793-1.8828l0.19499-0.12543c0.72011-0.46656 1.2882-0.83536 2.0701-1.0929 0.05483-0.01908 0.11319-0.03688 0.18877-0.05596l0.06216-0.0186c0.02783-8e-3 0.05723-0.01813 0.08823-0.02607 0.09697-0.02623 0.30868-0.06581 0.76252-0.10318l-0.02115-0.24464v-1.7685h-10.418v2.0293h0.14164c0.06836 0 0.2832 0.03004 0.55264 0.09681 0.01987 0.0032 0.0402 0.0096 0.06088 0.0143l0.13528 0.03608c0.04292 0.01107 0.08584 0.0229 0.13035 0.0372 0.01431 0.0048 0.02878 0.01107 0.04228 0.01622 0.01908 8e-3 0.03815 0.01685 0.05961 0.0248 0.06201 0.02306 0.12193 0.04611 0.17758 0.07073l0.03354 0.0143c0.08982 0.04134 0.16755 0.08376 0.24464 0.13544 0.0048 0.0032 0.0096 8e-3 0.0143 0.01106l0.03101 0.02115c0.06121 0.04848 0.24967 0.19803 0.02242 0.71784-0.04053 0.10651-0.13386 0.29428-0.34524 0.5812-0.1836 0.24719-0.40844 0.52643-0.67312 0.83084-0.52856 0.61679-1.1126 1.228-1.6045 1.6779l-0.1776 0.16144c-0.1693 0.15976-0.34143 0.32085-0.51787 0.48062-0.66924 0.60646-1.2687 1.1426-1.8331 1.6392-0.5079 0.44748-0.98384 0.85836-1.4171 1.2208-0.02783 0.02384-0.05231 0.04721-0.07693 0.06708v-5.1403c0-0.48008 0.01267-1.4528 0.6694-2.1721 0.65574-0.72011 1.7228-0.78736 2.2292-0.78736h0.31669v-1.7859h-11.899zm36.708 6.0394-4.004 1.1513 0.57004 1.4816-4.3156 9.8174c-0.0016 0.0063-0.26428 0.71231-0.62592 1.3648-8e-3 0.01267-0.01431 0.02877-0.02113 0.04228-0.06597 0.12399-0.13608 0.24011-0.21236 0.34899-0.08743 0.15023-0.19325 0.28982-0.32043 0.40983-0.093 0.09857-0.18732 0.17755-0.28191 0.22603-0.01589 8e-3 -0.0318 0.01589-0.04848 0.02354-0.1852 0.11128-0.39255 0.19135-0.61351 0.23347-0.09379 0.02146-0.18433 0.03608-0.267 0.03608h-0.22107v1.6343h6.1288v-1.612s-0.73411-0.02226-1.3835-0.41728c-0.48962-0.29886-0.15467-1.0316-0.10063-1.1413 0.0064-0.01589 0.01267-0.03083 0.01987-0.04594l0.84574-2.2428h4.6584l0.575 1.5859 0.02113 0.05341c0.03259 0.07551 0.14911 0.35613 0.25087 0.66691 0.01589 0.0437 0.02878 0.08664 0.04228 0.13035 0.0016 8e-3 0.0032 0.0143 0.0064 0.02241 0.01908 0.06437 0.04005 0.12892 0.05596 0.19249 0.05404 0.21301 0.06582 0.33124 0.06582 0.39244 0 0.06358-0.0096 0.1232-0.03482 0.17884-0.01589 0.03181-0.03672 0.06168-0.06454 0.09188-0.12081 0.14863-0.31903 0.2535-0.54396 0.32663-0.03736 0.01267-0.08235 0.02654-0.13163 0.03846-0.5516 0.14545-1.1848 0.12908-1.1848 0.12908v1.6467h8.4587v-1.6878h-0.1342c-0.39662 0-0.79532-0.09204-1.1848-0.27569-0.34019-0.16055-0.5625-0.40229-0.6992-0.75757l-5.3054-14.045zm51.736 0-4.0027 1.1513 0.57003 1.4816-4.3168 9.8174c-0.0019 0.0063-0.26427 0.71231-0.62591 1.3648-0.0063 0.01267-0.01434 0.02877-0.02115 0.04228-0.06597 0.12399-0.13608 0.24011-0.21236 0.34899-0.08743 0.15023-0.192 0.28982-0.31918 0.40983-0.09299 0.09857-0.18856 0.17755-0.28315 0.22603-0.01592 8e-3 -0.03177 0.01589-0.04848 0.02354-0.1852 0.11128-0.39254 0.19135-0.6135 0.23347-0.09298 0.02146-0.18435 0.03608-0.26702 0.03608h-0.22107v1.6343h6.129v-1.612s-0.73491-0.02226-1.3835-0.41728c-0.48962-0.29886-0.15467-1.0316-0.10062-1.1413 0.0063-0.01589 0.01433-0.03083 0.01987-0.04594l0.84574-2.2428h4.6584l0.57502 1.5859 0.02114 0.05341c0.03263 0.07551 0.14911 0.35613 0.25087 0.66691 0.01592 0.0437 0.0288 0.08664 0.04228 0.13035 0.0019 8e-3 0.0031 0.0143 0.0063 0.02241 0.01908 0.06437 0.04002 0.12892 0.05595 0.19249 0.05407 0.21301 0.06582 0.33124 0.06582 0.39244 0 0.06358-0.0096 0.1232-0.03481 0.17884-0.01592 0.03181-0.03548 0.06168-0.06326 0.09188-0.12081 0.14863-0.32027 0.2535-0.5452 0.32663-0.03736 0.01267-0.08155 0.02654-0.13163 0.03846-0.55082 0.14545-1.1848 0.12908-1.1848 0.12908v1.6467h8.4587v-1.6877h-0.13416c-0.39661 0-0.79531-0.09204-1.1848-0.27569-0.34018-0.16055-0.5625-0.40228-0.69921-0.75758l-5.3054-14.045zm73.964 0.0032-4.0027 1.15 0.57006 1.4841-4.3168 9.816c-1e-3 0.0063-0.26428 0.71232-0.62592 1.3649-7e-3 0.0143-0.0143 0.02878-0.0212 0.04228-0.0659 0.124-0.13687 0.24043-0.21237 0.34774-0.0883 0.15101-0.19281 0.29184-0.31918 0.41107-0.0937 0.09857-0.18857 0.17879-0.28315 0.22727-0.0159 0.0096-0.0326 0.01431-0.0484 0.02242-0.18598 0.11128-0.39251 0.19136-0.6135 0.23349-0.0929 0.02067-0.18436 0.03592-0.26701 0.03592h-0.22105v1.6356l6.1288-0.0012v-1.612s-0.73367-0.02226-1.3823-0.41728c-0.4896-0.29886-0.15516-1.0316-0.10193-1.1413 7e-3 -0.01589 0.0143-0.03083 0.0198-0.04595l0.84574-2.2428h4.6584l0.57502 1.5859 0.0212 0.05341c0.0327 0.07551 0.14912 0.35615 0.25086 0.66692 0.0143 0.04373 0.0289 0.08791 0.0423 0.13163 1e-3 8e-3 2e-3 0.01431 7e-3 0.02241 0.019 0.06437 0.0404 0.12892 0.0571 0.1925 0.054 0.21301 0.0645 0.33125 0.0645 0.39245 0 0.06358-0.01 0.12145-0.0349 0.17636v0.0012c-0.0159 0.03181-0.0347 0.06168-0.0634 0.09188-0.12081 0.14863-0.32028 0.2535-0.54521 0.32663-0.0374 0.01267-0.0811 0.02654-0.1304 0.03847-0.55162 0.14545-1.186 0.12924-1.186 0.12924v1.6467h8.4587v-1.6864h-0.13416c-0.39662 0-0.79531-0.09331-1.1848-0.27695-0.34019-0.16056-0.5625-0.40104-0.69921-0.75632l-5.306-14.045zm-91.351 0.15404c-1.9385 0-3.4237 0.36622-4.4149 1.0879-1.0444 0.75906-1.5748 1.9647-1.5748 3.5829 0 0.9514 0.27188 1.7708 0.806 2.4353 0.49518 0.61519 1.1186 1.1537 1.8555 1.5995 0.7058 0.42761 1.478 0.81191 2.2949 1.1426 0.77416 0.31396 1.5036 0.64366 2.1696 0.97986 0.62951 0.31713 1.1586 0.67174 1.5735 1.0556 0.34336 0.31713 0.50422 0.68846 0.50422 1.1662 0 0.36244-0.06039 0.65475-0.17884 0.86935-0.11526 0.20904-0.27562 0.37028-0.4918 0.49427-0.2456 0.14148-0.55051 0.24565-0.90659 0.30923-0.38628 0.07073-0.82686 0.10555-1.3077 0.10555-0.51346 0-1.0457-0.11461-1.5823-0.34276-0.55718-0.23685-1.0835-0.55852-1.5636-0.95752-0.48484-0.40217-0.91379-0.86363-1.2754-1.3723-0.35608-0.49995-0.61455-1.0105-0.76875-1.5176l-0.12288-0.39989h-1.6529l1.2034 6.6418 0.70542-0.3465c0.01908-0.0096 0.06026-0.02591 0.15403-0.05213 0.10731-0.0294 0.21953-0.05994 0.3316-0.08934 0.11128-0.02861 0.21519-0.05358 0.31296-0.07583 0.08426-0.01908 0.11588-0.01987 0.11668-0.01987 0.35688 0 0.71816 0.03164 1.0742 0.09442 0.38549 0.06756 0.76935 0.14291 1.1413 0.22479 0.38867 0.08426 0.78916 0.16352 1.1898 0.23347 0.42443 0.07471 0.85348 0.11303 1.2779 0.11303 0.89815 0 1.7316-0.11239 2.4764-0.33408 0.7559-0.22652 1.4127-0.5522 1.9523-0.96868 0.5524-0.42603 0.98672-0.95146 1.2904-1.5611 0.30443-0.60963 0.45827-1.2947 0.45827-2.0356 0-1.046-0.26026-1.9425-0.77371-2.6627-0.48484-0.68038-1.0997-1.273-1.8293-1.7611-0.705-0.47054-1.4709-0.87952-2.2776-1.2134-0.77098-0.31872-1.4971-0.63582-2.1559-0.94262-0.62315-0.29011-1.1446-0.61266-1.5499-0.95999-0.32349-0.2766-0.47441-0.58714-0.47441-0.97739 0-0.54446 0.16228-0.91587 0.51041-1.1686 0.39027-0.28375 0.88008-0.42721 1.4555-0.42721 0.48723 0 0.97747 0.09475 1.4568 0.28067 0.49279 0.19235 0.9529 0.45628 1.3685 0.78614 0.42046 0.33383 0.79742 0.7293 1.1177 1.1736 0.31236 0.43318 0.54023 0.90635 0.67932 1.4071l0.11557 0.4148h1.5349l-0.11048-5.324h-1.4319c-0.25832 0-0.54427-0.02941-0.84948-0.09061-0.33939-0.06756-0.70436-0.14736-1.0867-0.2372-0.40536-0.09538-0.84092-0.17968-1.2916-0.24963-0.46656-0.07312-0.95559-0.11048-1.4555-0.11048zm31.741 0c-1.9385 0-3.4243 0.36576-4.4161 1.0867-1.0436 0.75906-1.5735 1.9651-1.5735 3.5841 0 0.9514 0.2719 1.7712 0.80602 2.434 0.49359 0.6144 1.117 1.1525 1.8555 1.6008 0.7066 0.42683 1.4788 0.81191 2.2951 1.1426 0.77257 0.31316 1.5015 0.64366 2.1684 0.97986 0.62951 0.31713 1.1598 0.67253 1.5748 1.0556 0.34336 0.31793 0.50297 0.68722 0.50297 1.1649 0 0.36323-0.0591 0.65599-0.17758 0.87059-0.11606 0.20904-0.27686 0.37107-0.49306 0.49427-0.2448 0.14148-0.54927 0.24611-0.90535 0.31049-0.38708 0.06996-0.82687 0.10429-1.3077 0.10429-0.51347 0-1.0457-0.11461-1.5821-0.34276-0.55717-0.23685-1.0843-0.55932-1.5636-0.95752-0.48564-0.40296-0.91506-0.8652-1.2767-1.3723-0.35531-0.50074-0.61332-1.0101-0.76751-1.5164l-0.12415-0.40113h-1.6529l1.2047 6.6418 0.70543-0.34649c0.01908-0.0096 0.06104-0.0259 0.15404-0.05213 0.10731-0.02941 0.21872-0.05993 0.33158-0.08934 0.11128-0.02861 0.21441-0.05438 0.31297-0.07583 0.08426-0.01987 0.11668-0.01987 0.11668-0.01987 0.35688 0 0.71861 0.03164 1.0755 0.09443 0.3855 0.06756 0.76811 0.14291 1.1401 0.22479 0.38787 0.08504 0.78871 0.16352 1.1885 0.23347 0.42444 0.07472 0.85394 0.11303 1.2792 0.11303 0.89815 0 1.7311-0.11239 2.4751-0.33408 0.75587-0.22652 1.4139-0.55299 1.9535-0.96868 0.5532-0.42683 0.98673-0.95146 1.2904-1.5611 0.30363-0.60963 0.45827-1.2952 0.45827-2.0367 0-1.046-0.26105-1.9405-0.77371-2.6613-0.48564-0.68043-1.1005-1.2731-1.8293-1.7611-0.7066-0.47134-1.4729-0.87952-2.2789-1.2134-0.77097-0.31872-1.4965-0.63582-2.1548-0.94262-0.62472-0.29011-1.1461-0.61266-1.5499-0.95999-0.32428-0.2766-0.4744-0.58714-0.4744-0.97739 0-0.54366 0.16228-0.91508 0.51041-1.1686 0.39026-0.28375 0.87883-0.42722 1.4543-0.42722 0.48722 0 0.97873 0.09396 1.458 0.28067 0.49199 0.19155 0.9529 0.45672 1.3685 0.78736 0.41887 0.33224 0.79583 0.72647 1.1177 1.1724 0.31237 0.43398 0.54101 0.90795 0.67932 1.4071l0.11429 0.4148h1.5349l-0.10936-5.3228h-1.4319c-0.25911 0-0.54427-0.03195-0.84947-0.09316-0.34019-0.06756-0.70515-0.14688-1.0867-0.23597-0.40536-0.09538-0.84012-0.17888-1.2916-0.24963-0.46656-0.07312-0.95636-0.11048-1.4555-0.11048zm81.23 0.31419v1.7611l0.55887 0.01431c0.47053 0.0143 0.84131 0.0685 1.1028 0.16144 0.21779 0.07789 0.38069 0.18342 0.48561 0.31298 0.11134 0.13829 0.18787 0.32319 0.22602 0.54892 0.05 0.2925 0.0746 0.64063 0.0746 1.0333v8.7232c0 0.42364-0.0246 0.78627-0.0746 1.078-0.0382 0.22255-0.11175 0.40031-0.21982 0.52907-0.0993 0.12001-0.25677 0.21346-0.4682 0.27943-0.275 0.08426-0.66053 0.14116-1.1438 0.16891l-0.54148 0.03101v1.6567l14.696-0.0096 1.2593-5.0435-1.3748-0.9215-0.0109 0.02242c-0.25833 0.67878-1.0215 2.3104-2.0803 2.9073-1.2566 0.70819-2.7605 1.2861-5.7364 0.9364v-5.2906h0.47938c1.5372 0 2.8044 1.1227 2.9904 2.5733h1.5337v-6.8044h-1.5424c-0.22575 1.1914-1.1838 2.1313-2.4031 2.3545-0.0555 0.0096-0.14465 0.03259-0.30924 0.05088-0.035 0.0032-0.0693 0.0063-0.10422 0.0096-0.0109 7.89e-4 -0.0203 0.0016-0.0323 0.0032-0.13432 0.01267-0.26893 0.02115-0.40484 0.02115h-0.20616v-5.1017l1.7561 0.0012c0.45781 0 2.0577-0.04786 3.1308 0.66195 1.2328 0.81708 1.6033 2.2973 1.7251 2.9284l1.5587-0.2757-0.23223-5.3155-14.692-0.0048zm-45.652 0.0032-0.29556 5.9264h1.7063l0.0906-0.45331c0.15976-0.79483 0.37213-1.4213 0.62963-1.8616 0.24085-0.41331 0.53706-0.72904 0.87803-0.93888 0.35211-0.21619 0.76701-0.35956 1.232-0.42473 0.36881-0.05088 0.60725-0.08426 1.0532-0.09935v10.401c0 0.4912-0.0215 0.89312-0.0645 1.196-0.0318 0.22176-0.0985 0.3927-0.1987 0.50795-0.0937 0.1081-0.26233 0.19667-0.48807 0.25708-0.30761 0.08186-0.74773 0.14577-1.3065 0.18878l-0.57748 0.03974v1.5512l9.4832 0.0012v-1.5524l-0.57875-0.03974c-0.55875-0.04292-0.99887-0.10699-1.3065-0.18877-0.22653-0.06041-0.39429-0.14895-0.48807-0.25708-0.10021-0.11525-0.16691-0.28574-0.1987-0.5067-0.043-0.30441-0.0645-0.70759-0.0645-1.1972v-10.401c0.44668 0.01589 0.6847 0.04848 1.0519 0.09935 0.46736 0.06518 0.88235 0.20855 1.2345 0.42473 0.34018 0.20824 0.63438 0.52398 0.8768 0.93888 0.25673 0.44033 0.46909 1.0668 0.62964 1.8616l0.0919 0.45331h1.6108l-0.29559-5.9264h-14.705zm30.077 0-0.29559 5.9264h1.7063l0.0906-0.45331c0.16056-0.79483 0.37256-1.4205 0.63088-1.8616 0.24084-0.41251 0.53582-0.72904 0.87681-0.93888 0.3521-0.21619 0.76745-0.35956 1.2332-0.42473 0.368-0.05088 0.60644-0.08426 1.0531-0.09935v10.401c0 0.48803-0.0215 0.89039-0.0645 1.1972-0.0318 0.22016-0.0989 0.391-0.19746 0.50546-0.0953 0.10889-0.26608 0.19871-0.49181 0.25832-0.30759 0.08186-0.74603 0.14577-1.304 0.18878l-0.57871 0.03974v1.5512l9.4832 0.0012v-1.5524l-0.57749-0.03974c-0.55955-0.04292-0.9989-0.10699-1.3065-0.18877-0.22574-0.06041-0.39551-0.14848-0.48932-0.25584-0.10011-0.11684-0.1669-0.28778-0.19871-0.50794-0.043-0.30203-0.0645-0.7044-0.0645-1.1972v-10.401c0.44668 0.01589 0.68388 0.04848 1.0519 0.09935 0.46737 0.06518 0.88238 0.20855 1.2345 0.42473 0.34098 0.20904 0.63514 0.52478 0.87678 0.93888 0.25752 0.44112 0.46989 1.0681 0.62966 1.8629l0.0918 0.45205h1.612l-0.29559-5.9264h-14.707zm-104.54 0.11175-6.7994 0.0096v1.5959c0.51664 0.07391 1.5059 0.20417 1.8317 0.55389 0.33303 0.35608 0.45856 0.88355 0.60482 2.536 7.9e-4 0.0048 4.45e-4 8e-3 0.0012 0.01267 0.06756 0.76859 0.11 1.74 0.13544 2.6453 0.0016 0.05881 0.0048 0.11668 0.0063 0.17636 0.02306 0.78847 0.03481 1.5609 0.03481 2.2939v0.25424c-1.1318-1.3768-3.2101-3.8067-5.082-5.9948-1.4363-1.6779-2.6763-3.1283-3.2724-3.85l-0.18132-0.21981-6.0234-0.01107v1.5611c1.3813 0.33383 2.1547 0.75255 2.7968 1.2779 0 0.01589 0.0032 1.5207-0.02353 2.3893l-8e-3 0.86811c-0.01267 1.2073-0.03497 3.4279-0.04848 4.7068-7.91e-4 0.08029-0.0016 0.15737-0.0032 0.22976-7.89e-4 0.14863-0.0048 0.28231-0.0048 0.3912v0.01107l-0.0012 0.09188c0 0.19076-0.0032 0.36756-8e-3 0.53527-8e-3 0.40139-0.02623 0.73576-0.07949 1.0171v0.0032c-7.91e-4 0.0032-0.0032 0.0063-0.0032 0.0096-0.01107 0.05803-0.02416 0.11445-0.03846 0.16765-0.0048 0.0143-8e-3 0.0291-0.01267 0.0434-0.08426 0.28296-0.22202 0.50635-0.45331 0.68678-0.59454 0.46576-1.5513 0.48972-2.1609 0.57875v1.6045l7.5012 0.0012v-1.602c-0.12956-0.01987-0.27585-0.04037-0.42846-0.06581l-0.05706-8e-3c-0.16373-0.02543-0.29125-0.0507-0.39617-0.07693-0.23685-0.05325-0.47854-0.12415-0.70664-0.22355-0.48643-0.21221-0.83664-0.32333-0.94634-1.2779-0.0048-0.04292-0.0096-0.08806-0.0143-0.13416-0.0048-0.05564-0.0096-0.11143-0.01267-0.17261-0.0016-0.04928-0.0048-0.1035-8e-3 -0.16147-7.9e-4 -0.01987-0.0016-0.04308-0.0032-0.06454-0.0016-0.03975-0.0016-0.07805-0.0032-0.12176-7.89e-4 -0.02703-0.0016-0.05881-0.0032-0.08823-7.89e-4 -0.04053-0.0032-0.08044-0.0032-0.12415-7.89e-4 -0.02782-4.45e-4 -0.05833-0.0012-0.08695-7.91e-4 -0.04928-0.0032-0.09857-0.0032-0.15023-7.92e-4 -0.02306-4.45e-4 -0.04816-0.0012-0.07201-0.0016-0.06201-0.0032-0.12352-0.0048-0.18877-7.89e-4 -0.01669 0-0.03497 0-0.05087-0.0016-0.0771-0.0032-0.15451-0.0032-0.23473 0-0.0032-4.45e-4 -0.0063-0.0012-0.0096-0.0016-0.18838-0.0063-0.38776-8e-3 -0.59363-0.02622-2.3105-0.0143-5.5563-0.0143-5.7351v-0.01107l0.0048 0.0143c0.01589 0.01908 0.03497 0.04102 0.05088 0.06088 1.8551 2.1436 4.6596 5.6706 4.6596 5.6706 1.6389 1.9981 3.3456 4.0816 4.6125 5.6283l0.09569 0.11668h2.2452v-11.005c0-0.38708 0.0048-0.74198 0.01731-1.0631 0.0063-0.17724 0.01433-0.34673 0.02479-0.50172l0.0031-0.03608c6.09e-4 -0.0096 0.0019-0.02067 0.0031-0.031 6.08e-4 -0.0096 0.0019-0.01908 0.0031-0.02861 8e-3 -0.12081 0.01749-0.2367 0.02861-0.344 0.01592-0.15737 0.0353-0.28223 0.05832-0.38873 0.01107-0.05962 0.02131-0.11795 0.03481-0.17758 0.01267-0.07153 0.0291-0.14227 0.05212-0.2099 6.07e-4 -0.0032 0.0019-0.0063 0.0031-0.0096 0.0019-8e-3 8e-3 -0.01637 0.0096-0.02352 0.1534-0.41331 0.50726-0.73199 0.94759-0.84326 0.0063-0.0032 0.01433-0.0063 0.01987-8e-3 0.0063-7.9e-4 0.01107-0.0016 0.01731-0.0032 0.03815-8e-3 0.07948-0.01107 0.11923-0.01621 0.0294-0.0048 0.06184-0.0096 0.09681-0.0143 0.0048 0 0.0096-0.0012 0.01434-0.0012 0.0048-7.89e-4 0.0096-0.0016 0.01433-0.0032 0.0294-0.0032 0.06263-0.0048 0.0968-8e-3 0.27501-0.02226 0.58111-0.03052 0.67808-0.03608v-1.664zm-29.687 4.4298 1.5585 4.2969h-3.1805l1.6219-4.2969zm51.736 0 1.5587 4.2969h-3.1805zm73.964 0.0048 1.5587 4.2959h-3.1806zm-159.95 16.691v1.0979h198.72v-1.0979zm133.81 5.919c-1.8416 0-2.938 0.636-3.4936 1.1463-0.54049 0.49597-0.84151 1.054-0.96869 1.7512-0.0477 0.30919-0.0635 0.66459-0.0635 0.75758 0 0.44907 0.0951 0.80703 0.14275 0.96123 0.14307 0.40298 0.36563 0.68156 0.47689 0.80476 0.55479 0.65096 1.3026 0.9444 2.1126 1.1463 0.52378 0.1232 1.0634 0.21619 1.5872 0.27819 1.0007 0.1399 2.4925 0.17108 2.4925 1.1773 0 0.83615-1.1103 1.1473-1.1898 1.1624-0.36482 0.1081-0.74714 0.1081-0.8743 0.1081-0.9371 0-2.0159-0.32464-2.7471-0.9128-0.22177-0.17088-0.44411-0.41961-0.49181-0.46572l-2.1287 1.3015c0.44431 0.51107 0.58718 0.66562 0.8892 0.9128 0.74636 0.58896 2.0005 1.3177 4.2238 1.3177 0.38152 0 0.76409-0.03133 1.1289-0.07821 0.53968-0.06201 2.5557-0.29395 3.5245-2.0131 0.41251-0.74316 0.44459-1.3947 0.44459-1.704 0-0.55796-0.14353-0.97626-0.2223-1.1773-0.57146-1.3321-2.0165-1.6107-2.4131-1.6877-0.61917-0.13989-1.2394-0.26344-1.8754-0.35643-1.0476-0.1542-1.6664-0.13926-2.048-0.54148-0.0795-0.07789-0.23719-0.27888-0.23719-0.57376 0-0.51028 0.52369-1.1612 1.6665-1.1612 0.47692 0 0.90512 0.12415 1.0482 0.15515 0.84173 0.26308 1.2698 0.60407 1.8889 1.1922l2.0654-1.4407c-0.63587-0.54207-0.85792-0.72771-1.2394-0.9749-1.5245-1.007-3.0168-1.0854-3.6996-1.0854zm-110.44 0.26328v10.935h2.6999l-0.09569-6.7684 4.0647 6.7684h2.7471v-10.935h-2.6825l0.11048 6.8616-4.0969-6.8616h-2.7471zm38.495 0 3.8425 10.935h2.8588l3.8897-10.935h-2.9843l-2.3037 7.7756-2.3173-7.7756h-2.9855zm23.201 0v10.935h8.7978v-2.1523h-6.0035v-2.6031h5.1292v-2.0753h-5.1292v-1.9981h5.4954v-2.1063zm21.757 0v10.935h2.8265v-3.9033h1.7461l2.2392 3.9033h3.0812l-2.5893-4.3679c0.461-0.17009 0.6995-0.27939 0.90535-0.38748 0.17487-0.1081 0.36637-0.24739 0.52533-0.40237 0.38073-0.35608 0.87183-1.0065 0.87183-2.2304 0-0.89815-0.28564-1.5328-0.44461-1.8268-0.87351-1.5643-2.6507-1.6729-3.1595-1.704-0.31713-0.01589-0.63541-0.0162-0.95255-0.0162h-5.0496zm81.087 0 4.209 5.8394v5.0956h2.762v-5.1726l4.2399-5.7624h-3.1904l-2.3981 3.7021-2.4144-3.7021zm-187.71 0.0012v6.1016c0 1.3631 0.03259 2.7099 1.1128 3.7631 1.2701 1.2391 3.1443 1.3177 3.6363 1.3177 0.63507 0 3.5884-0.17063 4.5256-2.7259 0.27024-0.75906 0.30178-1.5487 0.30178-2.3545v-6.1015h-2.8117v6.7983c0 0.61918-0.0159 1.2697-0.53899 1.7187-0.39661 0.34098-0.85846 0.40362-1.3823 0.40362-0.19076 0-0.9372 3.51e-4 -1.4928-0.41852-0.44431-0.34019-0.52284-0.71296-0.52284-1.6889v-6.8131h-2.8279zm46.261 0v10.934h2.7956v-10.934zm105.56 0v10.934h2.7956v-10.934zm15.532 0v2.1523h2.9223v8.7815h2.8253v-8.7815h2.906v-2.1523h-8.6538zm-57.918 2.028h2.3819c0.49199 0 1.6195 0.03164 1.6195 1.4568 0 0.27819-0.032 1.1142-0.93641 1.4083-0.31794 0.10889-0.63511 0.10937-0.74639 0.10937h-2.3187v-2.9744z" style="fill:#512888;stroke-width:.59708"/></svg>
