<svg width="200" height="200" version="1.0" xmlns="http://www.w3.org/2000/svg"><path d="m86.105 152.25v-45.358h7e-3l9.8902 32.653c0.0312 0.11905 0.0652 0.23669 0.10631 0.35008 0.55702 1.5648 2.0622 2.6887 3.8382 2.6887 1.7873 0 3.3024-1.1381 3.8495-2.7199l0.0822-0.27496 9.8264-32.537h9e-3v45.198c0 0.1885 0.017 0.37276 0.0298 0.55843-4.2875 1.4301-8.9505 2.2238-13.835 2.2238-4.8813 0-9.5458-0.79372-13.832-2.2238 0.0127-0.18425 0.0284-0.36993 0.0284-0.55843m-16.608-102.46v92.234c-4.5964-5.2697-7.3192-11.77-7.3192-18.798v-73.289c0-4.6616-3.8268-8.4403-8.5494-8.4403-4.7226 0-8.5494 3.7786-8.5494 8.4403v73.289c0 26.846 24.597 48.687 54.829 48.687 30.233 0 54.83-21.841 54.83-48.687v-73.289c0-4.6616-3.8268-8.4403-8.5494-8.4403-4.7212 0-8.5494 3.7786-8.5494 8.4403v73.289c0 7.0286-2.7227 13.529-7.3192 18.798v-92.234c0-4.0777-3.0374-7.536-7.1264-8.1143-4.0905-0.57686-7.9882 1.9007-9.1461 5.8154 0 0-7.6083 25.696-14.118 47.682-6.5283-21.986-14.161-47.688-14.161-47.688-1.1622-3.9133-5.0599-6.388-9.1475-5.8083-4.089 0.57828-7.1236 4.0352-7.1236 8.1129m-46.377 96.629-0.87875-1.5818 5.8012-3.1649c0.35292 0.703 0.7923 1.406 1.1438 2.109 1.2303 2.109 1.1424 3.9558-0.88017 5.0982-2.5484 1.3196-3.9558-0.35009-5.1861-2.4605m6.7692 4.3952c2.2848-1.2302 2.3741-3.8679 0.703-6.8571-0.87875-1.5818-1.8454-2.7256-2.4605-3.9558-0.703-1.1424-1.2317-2.2862-1.5832-3.1649l-0.3515 0.17576 0.43938 2.1983c0.08787 0.61513 0 0.79089-2.1969 1.9347l-8.3524 4.5709c-1.7575 0.96664-1.9347 0.96664-2.4619 0.43796l-1.5818-1.406-0.35292 0.17575c0.70442 1.0559 1.5832 2.2862 2.1983 3.4286 0.44079 0.79087 1.2303 2.374 1.671 3.3421l0.3515-0.17575-0.43938-2.1104c-0.08788-0.703 0.3515-1.0559 3.3407-2.7255l2.7241-1.406 0.96805 1.7575c-1.0545 2.374-2.9013 5.9784-4.5724 8.7918 0.35292 0.52725 0.7923 1.1424 1.0559 1.6696l0.79088 1.5832 0.3515-0.17717c-0.52725-1.406-0.43938-1.5818 0.88017-3.9544l2.9878-5.7147c1.4939 1.8454 3.5164 2.8999 5.8905 1.5818m17.934 33.583-1.2303-11.077 8.351-0.52867c1.3195-0.0879 2.3741 0.35292 3.0771 0.61513l0.26363-0.26221c-0.87875-0.52725-1.6696-1.0559-2.4619-1.5832-0.96663-0.703-1.7575-1.4939-2.6363-2.1969l-0.26363 0.26363c0.703 0.96663 1.1424 1.4939 0.96663 1.7575-0.08787 0.17575-0.87875 0.35151-2.1983 0.43938l-7.4722 0.703 0.96663 9.5827c0 0.35291 0.08929 0.52725 0 0.703-0.17575 0.17717-0.61513 0-2.0211-0.52583l-0.26363 0.2622c0.96663 0.61654 1.9333 1.1438 2.9013 1.8468 1.0545 0.79088 2.0211 1.6696 2.9892 2.4619l0.17575-0.26363c-0.44079-0.52866-0.7923-1.1424-0.96805-1.4074 0-0.0879-0.17575-0.61513-0.17575-0.79088m-7.3844-7.9116c0.87875-1.2317 1.8468-2.5498 2.8134-3.7815 0.96663-1.2302 1.9333-2.4619 2.9013-3.6908 1.5818-1.9347 1.6696-2.0226 2.1983-1.8468l2.1969 0.703 0.26363-0.26362c-1.1424-0.70301-2.1969-1.406-3.2528-2.1983-1.2189-0.87024-2.1785-1.6555-3.0501-2.5243 0.0411-0.0312 0.08929-0.0666 0.15024-0.11198-0.61654-0.52866-1.2317-1.0559-1.7589-1.7589-0.61513-0.61512-1.1438-1.406-1.6696-2.1969l-0.26363 0.26362c0.35008 0.703 0.87875 1.7575 0.61371 2.0211-0.52725 0.43938-5.9784 1.5818-8.351 2.1104 0.3515-0.96804 2.9013-7.1207 3.3407-7.4736 0.43938-0.35009 0.96663-0.17575 2.1983 0.79229l0.3515-0.26504c-0.87875-0.78946-1.671-1.5803-2.4619-2.4605-0.703-0.87875-1.406-1.8468-2.0226-2.7256l-0.26363 0.17576c0.17717 0.52867 0.3515 1.1438 0.44079 1.671-0.88017 2.7256-1.8468 5.0982-3.8693 9.8463l-3.0771 2.5498c-0.79088 0.61513-1.2303 0.52725-2.3741-0.17717l-1.0531-0.70301-0.26504 0.26363c0.7923 0.7923 1.8468 1.8468 2.7256 2.8134 0.79088 0.96805 1.671 2.1983 2.2862 3.0771l0.3515-0.17576-0.52725-1.1438c-0.52867-1.2303-0.52867-1.6696 0.26363-2.2848l3.0771-2.5498 8.616-1.7589c1.5818-0.26364 2.5484-0.43938 3.3393 0.35291 0 0 0.0014-2e-3 0.10063-0.0751-0.03827 0.0524-0.09638 0.12897-0.18851 0.25087l1.3195 1.8468c0.26362 0.43937 0.17433 0.6137-1.2317 2.5484-0.96663 1.2302-1.8454 2.5498-2.8134 3.7801-0.96663 1.2317-2.0211 2.4619-2.9878 3.6922-1.2317 1.5832-1.3195 1.5832-2.0225 1.4074l-2.0226-0.61512-0.26362 0.26362c1.0559 0.61513 2.2862 1.406 3.3407 2.1983 0.96805 0.70301 2.1104 1.6696 3.0771 2.4605l0.17575-0.26362-1.2303-1.7589c-0.3515-0.52725-0.3515-0.703 0.87875-2.2848m-38.858-93.451c0.35292-0.52725 0.61654-0.79088 1.4074-0.79088 1.6696 0.17576 11.342 1.4074 13.099 1.8468 0.43938 0.0865 0.52725 0.35151 0.703 1.4939l0.17575 1.1424 0.35292 0.0893c0.26221-1.671 0.61371-3.3421 1.0531-4.836-3.6043-2.6377-7.2072-5.3632-10.637-8.351 4.4845-0.70442 8.8797-1.4953 13.276-2.0226 0.43938-1.4953 0.96663-3.1649 1.4939-4.7481l-0.3515-0.0879-0.96805 1.3181c-0.26363 0.44079-0.61513 0.52867-1.0545 0.44079-1.9333-0.52725-8.2631-2.8134-12.132-4.3952-0.78946-0.3515-0.87875-0.52725-1.0545-1.4074l-0.08788-1.4939-0.3515-0.0879c-0.17575 0.96663-0.3515 2.0226-0.61513 2.9892-0.26363 1.0545-0.61513 2.109-0.96663 3.1649l0.3515 0.0879 0.79088-1.2317c0.3515-0.61512 0.703-0.79087 1.3181-0.61512 1.671 0.43937 8.7918 2.7256 12.045 3.8679-5.1875 0.88017-10.374 1.8468-15.737 2.374l-0.08788 0.3515c4.2194 3.077 8.0874 6.0648 12.396 9.4948-1.3195-0.0879-11.342-1.4074-12.66-1.671-0.17575-0.0879-0.52725-0.43938-0.52725-1.3181l-0.17575-1.3181-0.3515-0.0893c-0.17575 1.1438-0.3515 2.2862-0.70442 3.5164-0.26221 1.1438-0.703 2.2862-1.0545 3.4286l0.3515 0.0893zm10.814 45.098 7.5601 0.52868-5.6254 5.0103zm11.516 0.17717-0.17575-0.52867c-5.1861-0.26362-11.867-0.87875-17.67-1.2302-0.52867-0.4408-1.0545-1.0559-1.4953-1.4939l-0.35008 0.0864c0.43796 0.88017 0.79088 1.7589 1.1424 2.6377 0.3515 0.96805 0.61513 1.9347 0.87875 2.9013l0.3515-0.0864v-2.3755c1.4953-0.17434 3.0771-0.26363 4.6588-0.0879 0.35292 1.0559 0.7923 2.0226 1.1438 3.0771 0.3515 1.0559 0.703 2.0225 1.0545 3.077-0.61513 0.61513-2.6377 2.1969-3.6043 2.9013-0.61513-0.61512-1.3181-1.5818-1.6696-2.1104l-0.35292 0.0893c0.52867 1.0545 1.0559 2.109 1.4074 3.1635 0.43938 1.3196 0.87875 2.6391 1.2303 3.9572l0.3515-0.17575-0.08788-2.2862c4.3087-3.7815 8.7039-7.8237 13.187-11.516m36.044 54.768c0.703-1.406 1.406-2.812 2.109-4.218 1.1438-2.1104 1.3181-2.2862 1.8468-2.1983l2.2862 0.26362 0.17575-0.3515c-1.2317-0.43937-2.4619-0.87875-3.6043-1.4953-1.4074-0.61512-2.4619-1.2302-3.6043-1.8468l-0.17575 0.26505 1.6696 1.5818c0.43938 0.43938 0.3515 0.61655-0.703 2.8148-0.70442 1.406-1.3195 2.812-2.0225 4.218-0.703 1.4074-1.406 2.8134-2.1969 4.133-0.88017 1.8454-0.96663 1.8454-1.671 1.7575l-2.1983-0.26363-0.08646 0.3515c1.0531 0.43938 2.4605 0.96663 3.6922 1.5832 1.0545 0.43938 2.3726 1.2303 3.4286 1.8454l0.17575-0.3515-1.4953-1.4074c-0.52725-0.52584-0.52725-0.70301 0.3515-2.4605 0.61513-1.4074 1.3181-2.8134 2.0225-4.2208m-52.043-62.768c5.2739-1.1424 2.6363-8.7904 6.6814-9.6705 1.7575-0.35151 3.3393 0.88017 3.6043 2.4619 0.17433 0.87876 0.26363 1.7589 0.08788 2.7256l-2.6377 1.4939v0.35291l3.6043-0.61654c0.26362-1.1424 0.26362-2.8134 0-3.8679-0.52725-2.7241-2.6377-5.2739-5.8026-4.6588-4.8346 0.96663-2.9013 8.7904-6.5935 9.5827-2.3726 0.43938-3.6922-1.2317-4.1316-3.2528-0.08788-0.61655-0.17575-1.8468 0.08788-2.6377l3.1649-1.5832-0.08788-0.35151-4.3087 0.4408c-0.26221 1.5818-0.17433 2.6362 0.08929 3.8679 1.0545 5.0103 3.9558 6.1527 6.242 5.7133m-1.1438-21.011v-5.8012l7.0329 2.9878zm10.813-2.4605c-4.7467-1.8468-10.813-4.6602-16.175-7.0343-0.3515-0.61513-0.61513-1.3181-0.88017-1.9333h-0.3515c0.08787 0.96663 0.17575 1.9333 0.17575 2.8999 0 0.96804-0.08788 2.0226-0.17575 2.9906h0.3515l0.7923-2.1983c1.4939 0.3515 3.0771 0.79088 4.3952 1.4939v3.2528c0 1.0559 0 2.1983-0.08787 3.2528-0.7923 0.3515-3.2528 1.2303-4.3966 1.4953-0.26363-0.79229-0.61513-1.9347-0.79088-2.5498h-0.35151c0.08788 1.1424 0.17575 2.2848 0.17575 3.4286 0 1.406-0.08787 2.7256-0.26363 4.1316h0.43938l0.79088-2.1983c5.3632-2.109 10.814-4.3952 16.352-6.4177zm135.21 77.098-1.406 1.0545-4.0437-5.0103c0.61513-0.52725 1.2302-0.96662 1.8454-1.4939 1.9347-1.4953 3.8679-1.7589 5.2754 0.0864 1.8454 2.1983 0.26362 3.8679-1.6711 5.3632m8.9675 0.703-6.242-1.9347c1.6696-1.7575 2.3726-3.9544 0.703-5.9769-1.5818-2.0226-4.3073-1.7589-7.0329 0.35151-1.406 1.1438-2.4619 2.1969-3.6043 3.077-1.0545 0.87875-2.109 1.4939-2.9892 2.0226l0.26505 0.26221 2.1969-0.703c0.52725-0.26363 0.70301-0.17576 2.2862 1.7589l5.8905 7.2965c1.3181 1.5818 1.3181 1.7575 0.87875 2.374l-1.2317 1.7575 0.26363 0.26362c0.88017-0.79088 2.0226-1.8468 3.077-2.6377 0.7923-0.61512 2.1983-1.5818 3.1649-2.1969l-0.26362-0.26363-2.0211 0.70301c-0.70442 0.26362-1.1438-0.0879-3.2542-2.7256l-1.9332-2.3726 1.671-1.2317c2.5484 0.61512 6.5042 1.8468 9.5812 2.9892 0.52867-0.43938 0.96805-0.87876 1.4953-1.3181 0.43938-0.35292 0.96663-0.70442 1.4939-0.96805l-0.17576-0.3515c-1.406 0.703-1.5818 0.703-4.2194-0.17576m13.89-39.385c-0.35149-0.26221-0.52725-0.61513-0.43938-1.1424l0.26364-1.8454-0.52726-0.26363c-0.43938 1.1424-0.87875 2.1969-1.406 3.2514-0.44079 0.96804-1.0559 1.9347-1.5832 2.8134l0.35151 0.17575 1.4074-1.2302c0.61513-0.52868 0.87875-0.61513 1.5818-0.35151 1.1424 0.43938 2.374 1.0545 3.4286 1.5818l5.8026 2.727v0.0865l-12.308 2.1983c-1.0545 0.17575-2.0226 0.3515-3.0771 0.3515-0.26362 0.703-0.52725 1.4953-0.87875 2.1983s-0.88017 1.406-1.3195 2.109l0.3515 0.17575c0.61654-0.61513 1.2317-1.2303 1.9347-1.7575l0.61512-0.0879 4.6602 2.2862c2.9892 1.406 6.5056 3.3393 7.2086 3.7801 0.17575 0.0879 0.26363 0.43938 0.26363 0.79087l-0.26363 2.1104 0.3515 0.17574c0.43938-1.0559 0.79087-2.0226 1.3181-3.077 0.52725-0.96804 1.1438-2.0226 1.7589-2.9906l-0.3515-0.17576-1.2317 1.3196c-0.61513 0.61512-0.87875 0.61512-1.2303 0.52725-0.52725-0.17575-5.1875-2.374-8.351-3.8679l-2.6377-1.3181 8.8782-1.5832c2.9892-0.52725 5.8905-1.0545 8.9675-1.4939l0.26362-0.52867c-2.7241-1.2288-5.4511-2.5484-6.4177-3.0756-1.406-0.61655-5.4497-2.9013-7.3844-3.8694m8.7918-32.702c-0.4408-0.17575-0.70442-0.43938-0.79229-1.0559l-0.35151-1.7575-0.43938-0.0879c-0.17574 1.1424-0.26362 2.2862-0.43937 3.4286-0.17575 1.0559-0.43937 2.1104-0.79088 3.1649l0.43938 0.0893 0.96663-1.5832c0.43937-0.703 0.703-0.88017 1.4074-0.79229 1.3181 0.17717 2.5498 0.35292 3.8679 0.52866l6.242 1.0545 0.0865 0.0879-11.164 5.539c-0.96662 0.43938-1.8454 0.87876-2.9013 1.2303 0 0.703 0 1.4939-0.17575 2.2862-0.0879 0.79089-0.3515 1.5818-0.61513 2.3726l0.35151 0.0879c0.43937-0.79089 0.79087-1.4939 1.3195-2.1969l0.61513-0.26364 5.0982 0.87876c3.3421 0.52725 7.2086 1.3181 8.0009 1.5818 0.26362 0.0879 0.43937 0.35149 0.52725 0.70441l0.43937 2.109h0.3515c0.0879-1.0545 0.17575-2.1969 0.35151-3.2528 0.17575-1.1424 0.43937-2.2862 0.79229-3.3407l-0.35292-0.0879-0.87875 1.5832c-0.35151 0.703-0.61513 0.87875-0.96663 0.87875-0.52725 0-5.7147-0.79087-9.1433-1.4074l-2.9013-0.52726 8.0009-3.9558c2.7241-1.406 5.3618-2.7256 8.1752-3.9558l0.0879-0.61512c-2.9892-0.43938-5.9784-0.96663-7.0329-1.1424-1.4939-0.17717-6.0662-1.2317-8.1752-1.5832m-10.989 53.627c-3.6057-2.9013-5.3632-4.2208-6.507-5.0996-0.43938-0.35149-0.35151-0.79087-0.17575-1.4939l0.35292-1.1438-0.26364-0.26363c-0.61653 0.87876-1.1438 1.7589-1.7589 2.5498-0.70301 0.87875-1.4953 1.671-2.2862 2.4619l0.26504 0.26363 1.3181-0.88017c0.61512-0.35151 0.96663-0.52584 1.406-0.35151 1.5818 0.96805 4.9224 3.5164 7.4722 5.4525 2.4619 1.9332 2.8134 4.218 1.0559 6.3284-2.5498 3.2528-4.7481 2.5498-7.4722 0.43937-3.1649-2.4619-4.9238-3.78-6.1541-4.7481-0.70442-0.61372-0.61654-0.87734-0.17575-2.2848l0.43938-1.2303-0.35151-0.26362c-0.79229 1.1424-1.4953 2.2848-2.374 3.3393-0.79087 0.96804-1.5832 1.8468-2.4619 2.8148l0.26363 0.26363 1.7589-1.0559c0.70301-0.43938 1.1424-0.17575 2.9013 1.2317l5.8012 4.4831c3.1649 2.374 6.1541 1.3181 8.5282-1.5832 2.3726-3.0756 2.4619-6.1541-1.5818-9.2297m17.758-33.672-0.0879 0.35292c1.3181 0.87875 2.0211 1.406 2.2848 1.8454 0.26362 0.26363 0.17575 0.703-0.703 3.3421-0.3515 1.0545-0.79088 2.1969-1.2303 3.3393-1.0545-0.26363-2.2862-0.52725-3.4286-0.87875l-3.4286-1.0545 0.87876-2.6377c0.96662-2.9013 1.0545-3.1649 1.7575-3.2528h2.1104l0.0879-0.3515c-1.0545-0.3515-2.0211-0.61513-3.0756-0.96805-0.88017-0.26362-1.8468-0.61371-2.8148-0.87734l-0.0879 0.35009 1.5832 1.1438c0.43938 0.43937 0.43938 0.703-0.52725 3.6922l-0.88017 2.5498-3.0771-0.96805c-1.0545-0.3515-1.9333-0.703-2.8134-0.96663 0.26505-0.96662 0.61655-2.109 1.0559-3.5164 0.96663-2.8134 0.96663-3.0771 1.7575-3.0771h2.1104l0.0879-0.35009c-0.52725-0.17716-1.406-0.44079-1.8468-0.52866-0.3515-0.0879-1.2302-0.43938-1.8454-0.703-0.61512 2.1983-1.2302 4.5709-2.0226 6.9436-0.61512 1.8468-1.3181 3.6936-2.109 5.7147l0.35151 0.0893 1.406-1.8468c0.3515-0.43938 0.52867-0.52725 2.9013 0.26362l9.1433 2.8134c1.9333 0.61513 2.0226 0.703 2.0226 1.4953v2.109l0.3515 0.0879c0.52583-1.7589 1.1424-4.2194 1.8454-6.3284 0.43938-1.4088 1.7575-5.1889 2.2862-6.4192l-1.9347-0.61513c-0.70301-0.17574-1.406-0.52725-2.109-0.79229m-92.66 60.308c-1.0545-0.0865-2.1969-0.17575-3.2528-0.35009v0.35009l1.671 0.79229c0.79089 0.35151 0.96663 0.52725 0.96663 1.3181 0 1.2317 0 2.4619-0.0879 3.7815l-0.43938 6.2406-6.8571-10.198c-0.61512-0.87875-1.1438-1.7575-1.5832-2.7241-0.79088 0.0865-1.5818 0.17433-2.374 0.0865-0.78946 0-1.6696-0.17575-2.4605-0.35151l-0.0879 0.35151c0.87876 0.35291 1.6696 0.703 2.4619 1.0559l0.26363 0.52726-0.26363 5.0982c-0.17717 3.3421-0.61654 7.2086-0.7923 8.0009 0 0.26363-0.26362 0.43938-0.703 0.52725l-2.0211 0.61513v0.43938c1.1424-0.0879 2.2848-0.0879 3.3393-0.0879 1.2317 0.0879 2.374 0.26362 3.5179 0.43937v-0.3515l-1.6711-0.61513c-0.79087-0.26363-0.88017-0.52725-0.96663-0.96663-0.0879-0.44079 0.17576-5.539 0.43938-8.9675l0.17575-2.9013 4.9238 7.3844c1.6696 2.4619 3.3407 4.9238 4.9224 7.4736h0.61514c0.0879-2.9013 0.26362-5.8919 0.35149-6.945 0.0879-1.4953 0.52726-6.0662 0.79089-8.0888 0-0.52725 0.35291-0.70442 0.88017-0.87875l1.8454-0.52867v-0.52725c-1.2303 0.0879-2.3726 0.0879-3.6043 0m-80.967-123.87c1.4953 0 2.6377-1.1424 2.6377-2.5498 0-1.406-1.1424-2.5498-2.6377-2.5498-1.406 0-2.5484 1.1438-2.5484 2.5498 0 1.4074 1.1424 2.5498 2.5484 2.5498m51.254 129.32 4.8346-5.8026 0.96663 7.2951zm6.7678-9.2312-0.52725-0.0893c-3.1635 3.9558-7.4722 8.9675-11.164 13.452-0.703 0.17575-1.4953 0.26362-2.1983 0.26362l-0.08787 0.35009c0.96805 0.17575 1.9347 0.35291 2.9013 0.61655 1.0545 0.2622 2.0226 0.61512 2.9892 0.96662l0.08788-0.3515-2.0226-1.3196c0.7923-1.3181 1.5832-2.7241 2.6377-3.7786 1.0559 0.26363 2.1104 0.52725 3.1649 0.79089 1.1424 0.35149 2.1983 0.61512 3.2528 0.96662 0.17575 0.79088 0.26363 3.4286 0.26363 4.4831-0.79088 0.0879-2.0211 0.17717-2.6363 0.17717l-0.17717 0.26362c1.2317 0.26221 2.3741 0.43938 3.5164 0.78946 1.3195 0.35292 2.6377 0.7923 3.9572 1.2317l0.0879-0.35151-1.9347-1.2302c-0.70301-5.7147-1.5818-11.517-2.1104-17.231m64.968 11.34c-0.61655 0.26364-1.2317 0.52726-1.8468 0.79089-0.43938-0.703-0.79089-1.4074-1.1424-2.1969l-2.0226-4.3966 1.671-0.79229c2.7241-1.2303 5.3618-1.3167 6.5042 1.2317 1.3196 2.8134-0.87733 4.3966-3.1635 5.3632m-5.3632-6.5949-1.4939-3.2514c-0.52866-1.0545-0.7923-1.7589-1.2317-2.8134 0.79088-0.43937 1.3196-0.61513 2.1104-0.96662 2.0211-0.96805 4.0437-0.87876 5.0996 1.4939 1.3181 2.6377-1.0559 3.9558-2.6377 4.6588zm3.9558-1.2303v-0.0865c2.1983-1.2317 3.78-3.3407 2.9013-5.2754-1.3181-2.8134-4.3952-2.7256-7.0328-1.5818-1.3181 0.52725-3.0771 1.5818-4.0437 2.0211-0.96663 0.35151-2.1983 0.79089-3.6043 1.3181l0.17574 0.35292 2.2848-0.26363c0.61655-0.0893 0.7923 0.0879 1.7589 2.2862l3.9558 8.5267c0.87875 1.8454 0.79087 1.9333 0.26362 2.4605l-1.5818 1.4074 0.0879 0.3515c1.0545-0.52725 2.0211-1.0559 3.1649-1.5832 1.406-0.703 3.4286-1.3181 5.2739-2.109 3.4286-1.4953 4.3073-4.1316 3.3407-6.3313-1.3181-2.7227-4.4831-2.3726-6.945-1.4939m-30.154 9.6705 2.1983-7.1207 3.6922 6.4177zm11.254 4.1316c-2.8134-4.921-5.8026-10.021-8.5282-15.12l-0.61513 0.0893c-1.3181 4.8346-3.4286 11.077-5.0982 16.614-0.61654 0.35151-1.3195 0.703-1.9347 1.0545l0.0879 0.35291c0.96663-0.17717 1.9347-0.44079 2.9013-0.52725 1.0545-0.0893 2.0211-0.17717 3.077-0.17717v-0.35149l-2.374-0.52726c0.17576-1.4939 0.43938-3.077 0.96663-4.3952 1.1424-0.17716 2.1983-0.35291 3.2528-0.44079 1.1438-0.17574 2.2862-0.26221 3.3407-0.35008 0.44079 0.703 1.5832 3.0756 2.0225 4.0423-0.703 0.4408-1.8468 0.88017-2.4619 1.1438l0.0879 0.3515c1.1438-0.26362 2.2862-0.43937 3.4286-0.61513 1.4074-0.17575 2.8134-0.17575 4.2194-0.26362l-0.0879-0.3515zm-40.879-192.97c0.61513 0.08788 0.703 0.26363 1.0545 2.6377l1.406 9.3176c0.26504 1.9347 0.17717 2.0225-0.43796 2.3741l-1.9347 0.96663v0.35292c1.9347-0.35292 4.3952-0.7923 6.6814-1.1438 1.4939-0.26363 5.5376-0.703 6.8557-0.79088l-0.26221-1.9347c-0.0879-0.79088-0.0879-1.5818-0.17717-2.2848l-0.35008 0.08646c-0.26362 1.4953-0.43938 2.3741-0.70442 2.8134-0.17575 0.35292-0.61513 0.44079-3.3407 0.87875-1.2302 0.08929-2.4619 0.26504-3.6922 0.35292-0.17576-1.0559-0.43938-2.1983-0.61513-3.3407l-0.52725-3.5164 2.7241-0.3515c3.1649-0.52867 3.43-0.44079 3.7815 0.08788l0.96663 1.8454 0.3515-0.08788c-0.17576-1.0545-0.3515-2.0211-0.52725-3.0771-0.17576-0.96663-0.26363-1.9333-0.35151-2.9013h-0.43937l-0.3515 1.9347c-0.17717 0.61513-0.4408 0.703-3.6057 1.1424l-2.7241 0.44079-0.43938-3.1649c-0.17575-1.0559-0.26504-2.0226-0.3515-2.9013 0.96663-0.17575 2.1969-0.43938 3.6908-0.61513 2.9892-0.43938 3.1649-0.43938 3.6057 0.17575l0.96663 1.8454 0.35149-0.08788c-0.0879-0.52725-0.35149-1.406-0.35149-1.7575-0.0879-0.44079-0.17576-1.3195-0.26363-2.0226-2.2862 0.43938-4.6602 0.96663-7.2086 1.3181-1.9347 0.26363-3.9558 0.43938-6.1541 0.61513l0.0879 0.44079zm99.077 67.78c-0.26364-0.87875-0.43938-1.671-0.43938-2.6377l2.3726-1.9332-0.0879-0.26505-3.4271 1.0559c-0.0893 1.2303 0.17433 2.9013 0.61512 3.8679 0.96664 2.6377 3.5164 4.8346 6.5042 3.6922 4.5724-1.7589 1.4074-9.1433 4.9239-10.461 2.2862-0.87875 3.8679 0.61513 4.5709 2.5498 0.26363 0.52726 0.52726 1.7575 0.35151 2.6363l-2.8134 2.0226 0.0893 0.35151 4.2194-1.1424c0-1.5818-0.26363-2.6377-0.70442-3.7815-1.8454-4.7467-4.9224-5.4497-7.0314-4.6588-5.0996 1.9347-1.2302 9.1433-5.0996 10.551-1.671 0.61513-3.4286-0.35292-4.0437-1.8468m-78.154-69.627c0.79087 0 1.5818 0 2.4605 0.08788 2.4619 0.08788 4.0451 1.1438 3.9572 3.4286-0.17716 2.8134-2.4619 3.0771-4.836 2.9892l-1.8454-0.08788zm2.2862 15.561v-0.3515l-2.1104-0.7923c-0.703-0.17575-0.703-0.79088-0.61654-4.1316l0.17717-2.9892 2.0211 0.08929c1.4953 2.109 3.78 5.5376 5.2754 8.4389 0.70301-0.08787 1.406-0.08787 2.0211-0.08787 0.61512 0.08787 1.2317 0.08787 1.8468 0.17575v-0.3515c-1.4953-0.26363-1.5832-0.52725-3.0771-2.8134l-3.3407-5.4511c2.374-0.26363 4.3952-1.406 4.4831-4.0437 0.0879-2.5498-2.109-4.0437-5.6254-4.2194-1.8468-0.08788-3.3407 0.08787-4.7481 0-1.406 0-2.6363-0.17575-3.6043-0.3515v0.3515l2.1983 0.87875c0.52726 0.17575 0.61513 0.35292 0.52726 2.8134l-0.43938 9.319c-0.0879 1.9333-0.17575 2.109-0.88017 2.2848l-2.109 0.61654v0.3515c1.2303-0.08788 2.8134-0.08788 4.1316-0.08788 0.96663 0.08788 2.7256 0.26363 3.8694 0.3515m59.428 27.956c3.3407 3.9558 6.5056 3.5164 8.2631 2.1104 4.133-3.5164-2.0211-8.9675 1.1438-11.604 1.3181-1.1438 3.3407-0.7923 4.3952 0.43796 0.61513 0.61513 1.0559 1.4074 1.3181 2.2862l-1.5818 2.6377 0.26363 0.17575 2.8134-2.1104c-0.3515-1.1424-1.1424-2.6377-1.8468-3.5164-1.8454-2.1104-5.0103-3.3407-7.3844-1.3181-3.78 3.1635 1.7589 9.1419-1.0545 11.517-1.9347 1.5818-3.8679 0.703-5.2739-0.88017-0.3515-0.43938-1.0559-1.4953-1.2317-2.3741l2.0226-2.8134-0.26505-0.26363-3.6043 2.3741c0.52867 1.4953 1.1438 2.4619 2.0226 3.3407m13.538 8.4403c0 1.406 1.1424 2.5484 2.6377 2.5484 1.406 0 2.5484-1.1424 2.5484-2.5484 0-1.4074-1.1424-2.5498-2.5484-2.5498-1.4953 0-2.6377 1.1424-2.6377 2.5498m-15.649-29.099-2.109 7.1207-4.5709-3.6043zm-15.032 4.8346-0.26362 0.26363c0.87875 0.52867 1.6696 1.0559 2.4605 1.5832 0.79229 0.703 1.4953 1.406 2.2862 2.109l0.17574-0.26363-1.2302-2.0211c1.2302-0.87875 2.5498-1.8468 3.9558-2.4619 0.87876 0.70442 1.6711 1.3195 2.5498 2.0226 0.87876 0.703 1.7575 1.406 2.6377 2.109-0.26505 0.79088-1.1438 3.2528-1.5832 4.3087-0.79088-0.26504-1.9332-0.70442-2.5484-0.96805l-0.26504 0.26363c1.0559 0.61654 2.0225 1.2317 2.9013 2.0226 1.1438 0.79088 2.1104 1.7589 3.1649 2.7256l0.17575-0.3515-1.2303-1.9347c1.6696-5.4511 3.2528-11.077 5.0117-16.528l-0.44079-0.43938c-4.4831 2.4619-10.461 5.3632-15.647 8.0888-0.70442-0.08787-1.4953-0.3515-2.1104-0.52867m-9.6705-4.7467-0.17574 0.26363c1.1424 0.52725 2.1983 0.96805 3.6922 1.671 1.4074 0.79088 2.374 1.406 3.4286 2.0211l0.17575-0.26363c-1.4939-1.4939-1.8454-2.0211-1.7575-2.374 0-0.43938 0.26362-1.0545 0.87874-2.1969l5.4497-9.9342c3.5178 1.8454 3.6936 2.0211 3.6057 2.9878l-0.3515 2.1983 0.3515 0.17717 2.1104-3.9572c-2.1104-0.87875-4.133-1.8454-6.1555-2.9013-2.0211-1.0545-4.0437-2.1983-5.9769-3.3407l-2.1104 3.8679 0.35151 0.17717 1.671-1.4953c0.70301-0.61513 1.0545-0.52725 4.4831 1.2317l-5.3632 9.9327c-0.61513 1.1438-0.96663 1.7589-1.3181 2.0226-0.26363 0.17575-0.87875 0.26363-2.9892-0.08788m-10.461-3.6922c1.1424 0.3515 2.6377 0.79088 3.8679 1.2317 1.0559 0.35008 2.4619 0.96663 3.6043 1.4939l0.17574-0.3515-1.6696-1.3195c-0.52866-0.43938-0.61512-0.52725 0.0879-2.3741 0.52725-1.4939 1.0545-2.9878 1.5818-4.4831 0.52725-1.406 1.1424-2.9013 1.7589-4.3073 0.87876-2.2862 0.96663-2.4619 1.4939-2.4619l2.374 0.08788 0.0879-0.3515c-1.2303-0.3515-2.4619-0.703-3.6922-1.1424-1.4074-0.43938-2.6377-1.0545-3.7801-1.5832l-0.0879 0.3515 1.8454 1.4953c0.35151 0.26363 0.35151 0.43938-0.52725 2.8134-0.52725 1.406-0.96662 2.9013-1.5818 4.3952-0.52867 1.406-1.1438 2.9013-1.671 4.3073-0.79088 1.8468-0.87876 1.9347-1.5818 1.9347l-2.1104-0.08787zm-0.52725-4.9239c1.2302-5.1861-7.1207-5.9769-6.1541-9.9327 0.35151-1.7589 2.1983-2.6377 3.7801-2.2862 0.87874 0.17575 1.6696 0.52725 2.4619 1.0545l0.3515 3.0771h0.3515l0.87876-3.4286c-0.96663-0.703-2.4619-1.406-3.6043-1.5818-2.7241-0.61654-5.9784 0.17575-6.6814 3.2528-1.1424 4.7467 7.0329 6.2406 6.1541 9.757-0.52725 2.3741-2.6377 2.9013-4.6588 2.4619-0.61513-0.17575-1.8468-0.61513-2.4619-1.2303l-0.17576-3.4286-0.3515-0.08788-1.4074 4.0437c1.4074 0.87875 2.4619 1.2303 3.6936 1.4953 5.0982 1.1424 7.2965-0.96805 7.8238-3.1663m-65.318-6.7692c0.87875 0 1.0545 0 1.7575 0.7923 2.8134 2.9892 7.5601 8.2631 10.813 12.132l0.52867-0.17717c0.17433-6.8571 0.35008-12.395 0.78946-16.264 0.08929-0.96663 0.35292-1.3181 1.3195-1.9333l-0.17575-0.3515c-0.703 0.3515-1.4074 0.703-2.1983 0.96663-0.87875 0.3515-1.9333 0.52725-2.8999 0.79088l0.17575 0.3515c1.2303-0.08787 2.0211-0.08787 2.1969 0.17575 0.08929 0.26363 0.08929 0.61654 0.08929 1.0559 0.08646 3.0771-0.08929 7.0329-0.26504 11.077-2.1104-2.109-8.0888-8.616-8.2631-9.1433-0.08929-0.26362 0.08787-0.43938 1.1424-1.1424l0.79088-0.61513-0.08787-0.3515c-1.0545 0.52725-2.109 0.96663-3.1649 1.3181-1.1424 0.43938-2.2848 0.70442-3.5164 0.96663l0.17575 0.3515zm-7.7373 4.5724c0.52725-0.08787 0.703 0.08788 1.8468 2.1969 0.79088 1.3195 1.5818 2.7256 2.3741 4.133 0.703 1.3181 1.406 2.7256 2.109 4.1316 0.96805 1.7575 0.96805 1.9333 0.43938 2.3726l-1.4939 1.5832 0.17575 0.26363c1.0545-0.61513 2.3741-1.406 3.5164-2.0211 1.0545-0.52867 2.4619-1.1438 3.6043-1.5832l-0.17575-0.3515-2.1983 0.3515c-0.61513 0.08788-0.79088 0.08788-1.7575-1.671-0.7923-1.406-1.5832-2.7241-2.2862-4.1316-0.79088-1.406-1.4953-2.812-2.1983-4.1316-1.0545-2.1969-1.1424-2.374-0.79088-2.7256l1.5832-1.6696-0.17575-0.3515c-1.0559 0.703-2.1983 1.406-3.3407 2.0211-1.3195 0.61513-2.5498 1.1438-3.6936 1.671l0.17575 0.26363zm-31.736 26.813c0.703-0.3515 1.1424-0.08787 2.8134 1.3181l5.6254 4.7481c2.9892 2.5484 6.0662 1.6696 8.5282-1.1438 2.5498-2.9013 2.8134-5.9784-1.0559-9.319-3.515-3.0771-5.1861-4.3952-6.2406-5.3618-0.43938-0.3515-0.3515-0.79088-0.08788-1.4953l0.3515-1.1424-0.26363-0.26363c-0.61654 0.87875-1.1438 1.6696-1.8468 2.4619-0.79088 0.79088-1.5818 1.5818-2.3741 2.3726l0.26504 0.26363 1.3181-0.79088c0.61513-0.43938 1.0545-0.52725 1.406-0.26363 1.4953 0.96805 4.7481 3.6936 7.2086 5.7147 2.3741 2.0211 2.5498 4.3952 0.70442 6.4177-2.7256 3.1649-4.9239 2.2848-7.4737 0.08787-3.0771-2.6377-4.7467-4.0451-5.8891-5.0996-0.61654-0.61513-0.61654-0.87875-0.08788-2.2848l0.43938-1.2317-0.26363-0.17575c-0.79088 1.0545-1.671 2.1983-2.5498 3.1649-0.79088 0.96663-1.6696 1.7589-2.6363 2.7256l0.26221 0.17575zm15.122-15.473 0.52584 0.17575 3.1663 4.1316c2.0211 2.6377 4.2194 5.8026 4.6588 6.5056 0.17575 0.17575 0.08788 0.52725-0.08788 0.88017l-1.2317 1.7575 0.26504 0.26363c0.87875-0.703 1.6696-1.4074 2.5484-2.1104 0.96805-0.703 1.9347-1.3181 2.9892-1.9333l-0.26362-0.26363-1.671 0.61513c-0.78946 0.26362-1.0545 0.17575-1.406-0.08788-0.3515-0.3515-3.5164-4.3952-5.6269-7.1207l-1.7575-2.2862 0.08788-0.08787 8.616 2.5498c2.8999 0.79088 5.8012 1.5818 8.6146 2.6377l0.52725-0.44079c-1.8454-2.2848-3.6922-4.6588-4.3073-5.5376-0.96663-1.1424-3.6043-5.0103-4.8346-6.6814-0.26504-0.43938-0.17717-0.79088 0.17575-1.2303l1.0545-1.5832-0.3515-0.3515c-0.87875 0.7923-1.7589 1.5818-2.7256 2.2862-0.87875 0.61513-1.8454 1.1424-2.7256 1.7575l0.17717 0.26363 1.8454-0.43938c0.79088-0.26363 1.0545-0.17575 1.5818 0.35292 0.88017 0.96663 1.671 1.9333 2.3741 2.9892l3.8679 5.0103-12.045-3.4286c-0.96663-0.26363-1.9333-0.61513-2.8999-1.0559-0.52867 0.52725-1.1424 1.0559-1.7589 1.5832-0.703 0.43938-1.406 0.87875-2.1969 1.3181l0.26363 0.26504c0.79088-0.26504 1.6696-0.52867 2.5498-0.70442m154.9 54.242c-1.4939 0.26362-3.0756 0.61513-4.6588 0.88017-2.374 0.52583-2.6377 0.52583-2.9013 0.0864l-1.2303-1.9332-0.35292 0.0879c0.43938 1.2303 0.7923 2.4619 1.0559 3.6922 0.3515 1.406 0.52725 2.6377 0.703 3.8679l0.3515-0.0879 0.26363-2.1969c0.0879-0.52725 0.26362-0.61655 2.6377-1.2317 1.5818-0.35151 3.077-0.70301 4.6588-1.0545 1.5832-0.3515 3.1649-0.70442 4.6588-0.96804 2.0226-0.43938 2.1104-0.35151 2.4634 0.17716l1.1424 1.8454 0.3515-0.0879c-0.3515-1.1424-0.79088-2.5498-1.0545-3.8679-0.26504-1.0545-0.52866-2.5498-0.70441-3.7801l-0.35151 0.0879-0.17574 2.109c-0.0879 0.703-0.17576 0.79229-2.1983 1.2317-1.4939 0.3515-3.077 0.79088-4.6588 1.1424m5.6268 17.584v0.35151l4.3073 0.26221c0.52725-1.4939 0.61512-2.5484 0.61512-3.8679-0.17575-5.0103-2.8999-6.6814-5.1861-6.5935-5.4511 0.26505-4.133 8.2645-8.2645 8.4403-1.7575 0-3.0771-1.406-3.1649-3.077 0-0.87875 0.0879-1.6696 0.43938-2.5498l2.8148-1.1424v-0.26362l-3.6057-0.0893c-0.43938 1.1438-0.70301 2.8134-0.70301 3.8694 0.0879 2.8134 1.7575 5.6268 4.9224 5.5376 5.0117-0.17434 4.3952-8.2631 8.1767-8.351 2.374-0.0879 3.4286 1.7575 3.5164 3.7801 0 0.70442-0.0879 1.8468-0.52725 2.6377z" style="fill:#233d79"/></svg>
