<svg width="200" height="200" version="1.1" viewBox="0 0 52.917 52.917" xmlns="http://www.w3.org/2000/svg"><g transform="translate(0 -.89763)"><g transform="matrix(.0048232 0 0 -.0048232 .016466 51.628)" style="stroke-width:7.3142"><path d="m9859.6 468.31 260.95 421.17 246.9-421.24zm429.25 663.53-330.44 0.03-711.43-1114.1 333.36-0.039 138.9 223.72 780.91-0.109 131.2-223.78 333.2 0.0625-675.7 1114.2" style="fill:#211d1d"/><path d="m8174.8 531.85 540.09-513.9 396.58-0.1094-709.67 666.79 669.69 447.51h-430.65l-766.88-506.18 0.11 506.26-293.31 0.04-0.11-1114.2 293.17 0.1094 0.03 313.2 300.95 200.53" style="fill:#211d1d"/><path d="m7193.7 900.88v231.43l-1572.5 0.39v-231.62l640.53-0.141-0.24-882.53 293.16-0.1407 0.22 882.67 638.87-0.062" style="fill:#211d1d"/><path d="m4564.1 1165.1c-462.92 0.06-734.5-109.37-734.5-348.65-0.14-285.42 344.04-328.79 672.73-345.7 277.81-13.949 543.13-4.68 543.2-117.47-0.04-86.441-196.08-121.85-497-121.78-229.9 0.07-467.52 23.281-712.88 117.46l-0.11-254.67c202.2-64.891 475.41-94.25 726.93-94.32 549.33 0 780.79 112.65 776.19 373.41-4.57 294.72-374.9 325.68-703.66 339.65-273.1 10.789-512.2-3.109-512.2 112.73-0.04 81.73 161.87 107.94 415.05 107.87 253.18-0.113 473.82-34 689.82-98.82l0.03 240.66c-203.72 60.24-424.25 89.62-663.6 89.63" style="fill:#211d1d"/><path d="m2217.5 901.65 1117.2-0.207-0.07 231.44-1410.4 0.28-0.17-1114.1 1410.4-0.2774 0.03 231.5-1117.1 0.179-0.04 213.05 1049.4-0.242-0.04 226.89-1049.3 0.179 0.07 211.33" style="fill:#211d1d"/><path d="m293.41 901.97 1117.2-0.149 0.21 231.47-1410.6 0.17-0.25-1114.1 293.23-0.0781 0.176 444.36 1049.3-0.039-0.03 226.79-1049.3 0.14v211.4" style="fill:#211d1d"/></g><g transform="matrix(.0063026 0 0 -.0063026 .11345 48.991)" style="stroke-width:5.5974"><path d="m5376.5 3620.8 326.78 0.4619-1.2498 1927.3-326.37-0.4076 0.8423-1927.3" style="fill:#231f20;stroke-width:5.5974"/><path d="m4834.2 3620.2 326.37 0.2174-0.8694 1927.4-326.86-0.2445 1.3586-1927.4" style="fill:#231f20;stroke-width:5.5974"/><path d="m5914.2 3621 326.37 0.2446-1.1683 1927.2-326.48-0.163 1.2771-1927.3" style="fill:#231f20;stroke-width:5.5974"/><path d="m4292.2 3620.2 326.26 0.2445-0.9509 1927.4-326.78-0.2988 1.4672-1927.3" style="fill:#231f20;stroke-width:5.5974"/><path d="m3207.5 2534.8 327.13-326.59-2.4997 3997.3 2706.9 1.7389-0.2718 279.26-3033.6-1.8748 2.3095-3949.8" style="fill:#231f20;stroke-width:5.5974"/><path d="m2664.9 3076.5 326.94-326.21-2.6084 3923.4 3249.3 1.7661v279.18l-3575.9-2.1736 2.3094-3876.1" style="fill:#231f20;stroke-width:5.5974"/><path d="m2119.6 7420.8 2.5812-3802.2 326.64-331.43-2.3095 3855 3791.9 2.0922-0.1902 279.48-4118.8-2.7986" style="fill:#231f20;stroke-width:5.5974"/><path d="m3750.7 1992.4 326.56-331.72-2.4725 4076.4 2164.5 1.44-0.081 278.88-2491.2-1.4943 2.6627-4023.4" style="fill:#231f20;stroke-width:5.5974"/></g></g></svg>
